<svg width="240" height="121" viewBox="0 0 240 121" fill="none" xmlns="http://www.w3.org/2000/svg">
<g id="1.svg">
<path id="Vector" d="M133.447 74.0354C127.151 78.6515 118.029 81.1208 110.163 81.1208C99.1436 81.1208 89.2296 77.0657 81.7205 70.3147C81.1357 69.7863 81.6554 69.0636 82.3704 69.4735C90.4642 74.1648 100.487 76.9796 110.823 76.9796C117.801 76.9796 125.472 75.545 132.526 72.5579C133.599 72.1157 134.487 73.259 133.447 74.0354Z" fill="#FF9901"/>
<path id="Vector_2" d="M136.059 71.0481C135.257 70.0236 130.739 70.5628 128.713 70.8C128.096 70.8756 127.998 70.3363 128.561 69.9588C132.158 67.4352 138.063 68.1686 138.757 69.0098C139.45 69.8618 138.573 75.7504 135.192 78.5649C134.672 78.9962 134.174 78.7701 134.412 78.198C135.17 76.3112 136.872 72.0834 136.059 71.0481Z" fill="#FF9901"/>
<path id="Vector_3" d="M128.853 52.1647V49.7165C128.853 49.3499 129.135 49.1018 129.471 49.1018H140.49C140.847 49.1018 141.13 49.3606 141.13 49.7165V51.8196C141.13 52.1754 140.826 52.6284 140.295 53.3617L134.595 61.4719C136.72 61.418 138.962 61.7307 140.88 62.8092C141.314 63.0572 141.433 63.4131 141.465 63.7582V66.3681C141.465 66.724 141.064 67.1446 140.653 66.9289C137.261 65.1602 132.753 64.9661 129.005 66.9505C128.626 67.1554 128.224 66.7456 128.224 66.3897V63.9092C128.224 63.5102 128.224 62.8308 128.626 62.2267L135.246 52.7794H129.493C129.135 52.7794 128.853 52.5313 128.853 52.1647Z" fill="black"/>
<path id="Vector_4" d="M88.6448 67.4574H85.2965C84.9715 67.4358 84.7222 67.1986 84.7005 66.8858V49.7597C84.7005 49.4146 84.9932 49.145 85.3504 49.145H88.4823C88.8073 49.1558 89.0671 49.4038 89.0888 49.7166V51.9598H89.1539C89.9663 49.7921 91.505 48.7891 93.564 48.7891C95.6657 48.7891 96.9767 49.8029 97.9194 51.9598C98.7318 49.7921 100.574 48.7891 102.546 48.7891C103.954 48.7891 105.493 49.3714 106.425 50.6656C107.487 52.1107 107.27 54.203 107.27 56.0364V66.8427C107.27 67.1878 106.978 67.4574 106.62 67.4574H103.272C102.936 67.4358 102.665 67.1662 102.665 66.8427V57.762C102.665 57.0394 102.73 55.2384 102.568 54.5481C102.318 53.3942 101.571 53.0706 100.595 53.0706C99.783 53.0706 98.9377 53.6099 98.591 54.4726C98.2443 55.3354 98.2773 56.7805 98.2773 57.7512V66.8319C98.2773 67.177 97.9845 67.4466 97.6266 67.4466H94.2895C93.9541 67.4251 93.683 67.1554 93.683 66.8319V57.7512C93.683 55.8423 93.9968 53.0275 91.6135 53.0275C89.2079 53.0275 89.2947 55.7668 89.2947 57.7512V66.8319C89.2947 67.177 89.002 67.4574 88.6448 67.4574Z" fill="black"/>
<path id="Vector_5" d="M150.632 48.7771C145.777 48.7771 143.079 52.9184 143.079 58.2568C143.079 63.5521 145.734 67.8121 150.632 67.8121C155.323 67.8121 158.303 63.6708 158.303 58.4402C158.292 53.0371 155.605 48.7771 150.632 48.7771ZM150.632 64.2855C147.998 64.2855 148.031 59.8206 148.031 57.7176C148.031 55.6254 148.183 52.2822 150.653 52.2822C151.715 52.2822 152.474 52.7458 152.842 53.943C153.276 55.3127 153.34 57.0382 153.34 58.4833C153.351 60.6726 153.221 64.2855 150.632 64.2855Z" fill="black"/>
<path id="Vector_6" d="M164.749 67.4562H161.412C161.077 67.4346 160.806 67.165 160.806 66.8414V49.7046C160.838 49.3918 161.109 49.1438 161.455 49.1438H164.565C164.858 49.1545 165.097 49.3595 165.161 49.6183V52.239H165.226C166.169 49.8987 167.48 48.7771 169.799 48.7771C171.304 48.7771 172.767 49.3163 173.71 50.7938C174.588 52.1635 174.588 54.4715 174.588 56.1215V66.9062C174.555 67.2082 174.274 67.4454 173.938 67.4454H170.579C170.276 67.4238 170.015 67.1974 169.983 66.9062V57.6098C169.983 55.7332 170.199 52.9939 167.881 52.9939C167.068 52.9939 166.31 53.5331 165.941 54.3636C165.465 55.4097 165.41 56.4558 165.41 57.6098V66.8307C165.4 67.1758 165.107 67.4562 164.749 67.4562Z" fill="black"/>
<path id="Vector_7" d="M126.037 64.3187C125.419 63.4775 124.768 62.7873 124.768 61.2235V56.0252C124.768 53.8252 124.92 51.7977 123.295 50.2878C122.017 49.0476 119.882 48.6162 118.246 48.6162C115.06 48.6162 111.495 49.8025 110.748 53.7281C110.673 54.1488 110.976 54.3644 111.246 54.4292L114.497 54.7743C114.8 54.7635 115.028 54.4615 115.082 54.1595C115.364 52.8114 116.501 52.1535 117.78 52.1535C118.474 52.1535 119.254 52.4016 119.666 53.0164C120.142 53.7066 120.077 54.6448 120.077 55.4321V55.8635C118.137 56.0792 115.591 56.2302 113.771 57.0282C111.669 57.9341 110.196 59.7783 110.196 62.4853C110.196 65.9579 112.384 67.6836 115.212 67.6836C117.596 67.6836 118.896 67.1228 120.738 65.257C121.345 66.1305 121.551 66.5619 122.667 67.4786C122.916 67.608 123.241 67.5972 123.457 67.4032V67.4139C124.13 66.8207 125.343 65.7639 126.025 65.1923C126.296 64.9766 126.253 64.6099 126.037 64.3187ZM119.438 62.8088C118.907 63.7471 118.051 64.3295 117.119 64.3295C115.83 64.3295 115.082 63.3589 115.082 61.9137C115.082 59.0665 117.639 58.5489 120.066 58.5489V59.2715C120.066 60.5764 120.098 61.6549 119.438 62.8088Z" fill="black"/>
<path id="Vector_8" d="M82.0784 64.3187C81.4607 63.4775 80.8108 62.7873 80.8108 61.2235V56.0252C80.8108 53.8252 80.9628 51.7977 79.3373 50.2878C78.048 49.0476 75.9246 48.6162 74.2882 48.6162C71.1027 48.6162 67.538 49.8025 66.7904 53.7281C66.7145 54.1488 67.0179 54.3644 67.2888 54.4292L70.5393 54.7743C70.8427 54.7635 71.0594 54.4615 71.1136 54.1595C71.3952 52.8114 72.5329 52.1535 73.8115 52.1535C74.5049 52.1535 75.2852 52.4016 75.697 53.0164C76.1627 53.7066 76.0975 54.6448 76.0975 55.4321V55.8635C74.169 56.09 71.6228 56.2409 69.8025 57.0282C67.7005 57.9341 66.227 59.7783 66.227 62.4853C66.227 65.9579 68.4264 67.6836 71.2436 67.6836C73.6273 67.6836 74.9275 67.1228 76.7691 65.257C77.3868 66.1305 77.5823 66.5619 78.6979 67.4786C78.9472 67.608 79.2722 67.5972 79.4893 67.4032L79.4998 67.4139C80.1714 66.8207 81.3851 65.7639 82.0679 65.1923C82.339 64.9766 82.2955 64.6099 82.0784 64.3187ZM75.4798 62.8088C74.9491 63.7471 74.104 64.3295 73.1614 64.3295C71.872 64.3295 71.1244 63.3589 71.1244 61.9137C71.1244 59.0665 73.6814 58.5489 76.1088 58.5489V59.2715C76.1088 60.5764 76.141 61.6549 75.4798 62.8088Z" fill="black"/>
</g>
</svg>
