<svg width="241" height="120" viewBox="0 0 241 120" fill="none" xmlns="http://www.w3.org/2000/svg">
<g id="10.svg">
<path id="Vector" d="M100.416 67.9955L101.8 64.8194C103.296 65.9222 105.282 66.4957 107.247 66.4957C108.698 66.4957 109.613 65.9443 109.613 65.1062C109.591 62.7682 100.93 64.5988 100.862 58.7317C100.84 55.7541 103.519 53.4602 107.314 53.4602C109.569 53.4602 111.823 54.0116 113.431 55.2688L112.135 58.5112C110.663 57.5848 108.832 56.9231 107.09 56.9231C105.907 56.9231 105.127 57.4745 105.127 58.1804C105.148 60.4743 113.877 59.217 113.966 64.8194C113.966 67.8632 111.354 70.0027 107.604 70.0027C104.858 70.0027 102.336 69.3631 100.416 67.9955ZM153.523 63.6725C152.831 64.8635 151.536 65.6796 150.041 65.6796C147.831 65.6796 146.045 63.9151 146.045 61.7315C146.045 59.5478 147.831 57.7833 150.041 57.7833C151.536 57.7833 152.831 58.5994 153.523 59.7904L157.34 57.6951C155.912 55.1806 153.166 53.4602 150.041 53.4602C145.42 53.4602 141.669 57.1657 141.669 61.7315C141.669 66.2972 145.42 70.0027 150.041 70.0027C153.189 70.0027 155.912 68.3044 157.34 65.7678L153.523 63.6725ZM115.886 46.6006H120.664V69.694H115.886V46.6006ZM159.216 46.6006V69.694H163.993V62.7682L169.663 69.694H175.779L168.569 61.4668L175.244 53.7911H169.395L163.993 60.1654V46.6006H159.216ZM134.861 63.7166C134.169 64.8415 132.74 65.6796 131.133 65.6796C128.923 65.6796 127.137 63.9151 127.137 61.7315C127.137 59.5478 128.923 57.7833 131.133 57.7833C132.74 57.7833 134.169 58.6656 134.861 59.8125V63.7166ZM134.861 53.7911V55.6659C134.079 54.3645 132.137 53.4602 130.106 53.4602C125.909 53.4602 122.606 57.1216 122.606 61.7094C122.606 66.2972 125.909 70.0027 130.106 70.0027C132.137 70.0027 134.079 69.0984 134.861 67.797V69.6719H139.638V53.7911H134.861Z" fill="black"/>
<path id="Vector_2" d="M70.8823 63.6942C70.8823 65.3043 69.5652 66.6057 67.9356 66.6057C66.3061 66.6057 64.989 65.3043 64.989 63.6942C64.989 62.0841 66.3061 60.7827 67.9356 60.7827H70.8823V63.6942ZM72.3556 63.6942C72.3556 62.0841 73.6727 60.7827 75.3023 60.7827C76.9322 60.7827 78.2492 62.0841 78.2492 63.6942V70.9729C78.2492 72.5831 76.9322 73.8844 75.3023 73.8844C73.6727 73.8844 72.3556 72.5831 72.3556 70.9729V63.6942Z" fill="#E01E5A"/>
<path id="Vector_3" d="M75.3023 52.0051C73.6727 52.0051 72.3556 50.7037 72.3556 49.0936C72.3556 47.4835 73.6727 46.1821 75.3023 46.1821C76.9321 46.1821 78.2492 47.4835 78.2492 49.0936V52.0051H75.3023ZM75.3023 53.4829C76.9321 53.4829 78.2492 54.7843 78.2492 56.3943C78.2492 58.0045 76.9321 59.3059 75.3023 59.3059H67.9133C66.2837 59.3059 64.9666 58.0045 64.9666 56.3943C64.9666 54.7843 66.2837 53.4829 67.9133 53.4829H75.3023Z" fill="#36C5F0"/>
<path id="Vector_4" d="M87.1112 56.3943C87.1112 54.7843 88.4283 53.4829 90.0583 53.4829C91.6875 53.4829 93.0045 54.7843 93.0045 56.3943C93.0045 58.0045 91.6875 59.3059 90.0583 59.3059H87.1112V56.3943ZM85.6377 56.3943C85.6377 58.0045 84.3207 59.3059 82.6915 59.3059C81.0615 59.3059 79.7444 58.0045 79.7444 56.3943V49.0936C79.7444 47.4835 81.0615 46.1821 82.6915 46.1821C84.3207 46.1821 85.6377 47.4835 85.6377 49.0936V56.3943Z" fill="#2EB67D"/>
<path id="Vector_5" d="M82.6915 68.0614C84.3207 68.0614 85.6377 69.3628 85.6377 70.9729C85.6377 72.5831 84.3207 73.8844 82.6915 73.8844C81.0615 73.8844 79.7444 72.5831 79.7444 70.9729V68.0614H82.6915ZM82.6915 66.6057C81.0615 66.6057 79.7444 65.3043 79.7444 63.6942C79.7444 62.0841 81.0615 60.7827 82.6915 60.7827H90.08C91.71 60.7827 93.027 62.0841 93.027 63.6942C93.027 65.3043 91.71 66.6057 90.08 66.6057H82.6915Z" fill="#ECB22E"/>
</g>
</svg>
