<svg width="105" height="120" viewBox="0 0 105 120" fill="none" xmlns="http://www.w3.org/2000/svg">
<g id="11.svg">
<path id="Vector" d="M84.876 44.9216C76.5778 44.9216 69.853 51.7162 69.853 59.9263C69.853 68.2779 76.5778 75.0721 84.876 75.0721C93.318 75.0721 99.8994 68.2779 99.8994 59.9263C100.042 51.7162 93.461 44.9216 84.876 44.9216ZM84.876 51.2915C91.7441 51.2915 96.7517 55.5381 98.8976 59.9263C96.7517 64.3144 91.7441 68.7025 84.876 68.7025C78.0086 68.7025 73.0007 64.3144 70.8545 59.9263C73.0007 55.6797 78.0086 51.2915 84.876 51.2915ZM84.876 51.9993C80.4405 51.9993 76.7208 55.5381 76.7208 59.9263C76.7208 64.456 80.2975 67.9948 84.876 67.9948C89.4545 67.9948 92.889 64.456 92.889 59.9263C93.032 55.5381 89.4545 51.9993 84.876 51.9993Z" fill="black"/>
<path id="Vector_2" d="M114.351 46.7615C106.481 46.7615 100.901 52.7067 100.901 59.9259V60.0675C100.901 67.4282 106.482 73.0903 114.064 73.0903C119.072 73.0903 121.934 71.3917 124.652 68.5607L121.075 65.0218C119.072 66.862 117.212 67.9945 114.351 67.9945C109.915 67.9945 106.911 64.3141 106.911 59.9259C106.911 55.5378 110.058 51.9989 114.351 51.9989C116.926 51.9989 118.929 53.1314 120.932 54.83L124.509 50.5835C122.22 48.3186 119.215 46.7615 114.351 46.7615Z" fill="black"/>
</g>
</svg>
