<svg width="241" height="120" viewBox="0 0 241 120" fill="none" xmlns="http://www.w3.org/2000/svg">
<g id="14.svg">
<path id="Vector" d="M145.28 68.8554L145.725 71.4691H148.848V59.0538H139.481V62.7566H144.387C144.053 65.9149 142.268 67.6574 139.035 67.6574C134.574 67.6574 133.013 63.8457 133.013 60.0339C133.013 56.0044 134.686 52.1927 139.035 52.1927C141.377 52.1927 143.161 53.4995 143.718 56.0044H148.402C147.956 50.8858 143.718 48.0542 139.146 48.0542C132.232 48.0542 128.218 53.3907 128.218 60.1429C128.218 66.7862 132.232 72.0137 139.146 72.0137C141.265 72.0137 143.496 71.1425 145.28 68.8554Z" fill="black"/>
<path id="Vector_2" d="M159.554 48.5979L151.079 71.4683H156.097L157.881 66.3497H166.244L167.917 71.4683H172.935L164.572 48.5979H159.554ZM162.006 54.261L164.906 62.6468H159.107L162.006 54.261Z" fill="black"/>
<path id="Vector_3" d="M124.984 48.5979L116.732 71.4683H120.3L128.552 48.5979H124.984Z" fill="black"/>
<path id="Vector_4" d="M113.833 54.9144C113.833 51.4295 111.268 48.5979 107.254 48.5979H95.2096V71.4683H100.117V62.5379H105.023C107.476 62.5379 108.369 63.627 108.703 66.023C108.926 67.8744 108.926 70.0525 109.484 71.4683H114.39C113.498 70.1615 113.498 67.5477 113.498 66.023C113.387 63.7359 112.606 61.3399 110.264 60.6865V60.5777C112.717 59.5975 113.833 57.6371 113.833 54.9144ZM108.926 55.6768C108.926 57.9639 107.699 58.944 105.58 58.944H100.228V52.5185H105.58C107.699 52.5185 108.926 53.4987 108.926 55.6768Z" fill="black"/>
<path id="Vector_5" d="M68.1122 71.4683H90.4147V48.5979H68.1122V71.4683Z" fill="#E51837"/>
</g>
</svg>
