<svg width="241" height="121" viewBox="0 0 241 121" fill="none" xmlns="http://www.w3.org/2000/svg">
<g id="16.svg">
<path id="Vector" d="M168.305 69.8766C168.11 69.5302 168.005 69.1688 168.005 68.7622C168.005 68.3556 168.11 67.9941 168.305 67.6477C168.501 67.3013 168.771 67.0453 169.101 66.8496C169.446 66.6538 169.807 66.5483 170.212 66.5483C170.602 66.5483 170.978 66.6538 171.323 66.8496C171.669 67.0453 171.924 67.3164 172.119 67.6477C172.315 67.9941 172.42 68.3556 172.42 68.7622C172.42 69.1688 172.315 69.5302 172.119 69.8766C171.924 70.223 171.654 70.479 171.323 70.6748C170.978 70.8706 170.617 70.9609 170.212 70.9609C169.822 70.9609 169.446 70.8706 169.101 70.6748C168.771 70.479 168.516 70.2079 168.305 69.8766ZM168.501 69.9067C168.696 70.1929 168.936 70.4188 169.236 70.5845C169.537 70.7501 169.867 70.8254 170.227 70.8254C170.602 70.8254 170.948 70.735 171.264 70.5543C171.579 70.3736 171.834 70.1176 172.015 69.8013C172.194 69.485 172.285 69.1387 172.285 68.7622C172.285 68.3857 172.194 68.0393 172.015 67.723C171.834 67.4068 171.579 67.1508 171.264 66.97C170.948 66.7893 170.602 66.6989 170.227 66.6989C169.852 66.6989 169.506 66.7893 169.191 66.97C168.876 67.1508 168.621 67.4068 168.441 67.723C168.26 68.0393 168.171 68.3857 168.171 68.7622C168.156 69.1839 168.275 69.5603 168.501 69.9067ZM169.491 69.7862V68.8676H170.212H170.227H170.242L170.948 69.7862H171.158L170.423 68.8374C170.617 68.8073 170.768 68.732 170.888 68.6116C171.008 68.4911 171.068 68.3405 171.068 68.1447C171.068 68.0242 171.038 67.9339 170.978 67.8435C170.918 67.7531 170.843 67.6929 170.753 67.6477C170.663 67.6026 170.573 67.5725 170.498 67.5573C170.408 67.5423 170.332 67.5272 170.257 67.5272H169.491H169.461H169.342V69.7712H169.491V69.7862ZM169.491 68.1748V67.6929H170.287C170.453 67.6929 170.602 67.7381 170.708 67.8134C170.828 67.8887 170.888 68.0092 170.888 68.1447C170.888 68.3255 170.828 68.461 170.723 68.5514C170.602 68.6417 170.423 68.6869 170.167 68.6869H169.491V68.1748Z" fill="black"/>
<path id="Vector_2" d="M84.4119 55.1167L84.3669 55.0715C81.3488 52.0445 76.4693 52.0445 73.4509 55.0715C70.4328 58.0685 70.4328 62.9931 73.4509 66.0203C76.4236 69.0473 81.3787 69.0473 84.3669 66.0203L86.3339 67.9931V68.0383C82.1747 72.1648 75.6281 72.2099 71.4688 68.0383C67.3095 63.8215 67.3095 57.2553 71.4238 53.0987C75.613 48.8819 82.385 49.0927 86.3638 53.0987L84.4119 55.1167Z" fill="#414042"/>
<path id="Vector_3" d="M110.179 60.6295C110.179 66.4728 105.524 71.1565 99.6075 71.1565C93.7366 71.1565 89.1117 66.4878 89.1117 60.6295V60.5843V42.9338H91.9202V53.2952C93.8115 51.2771 96.4995 50.0121 99.5925 50.0121C105.269 50.0121 110.179 54.6506 110.179 60.6295ZM107.371 60.5843C107.371 56.2922 103.932 52.8434 99.6531 52.8434C95.4183 52.8434 91.9352 56.2922 91.9352 60.5843C91.9352 64.8312 95.4183 68.3251 99.6531 68.3251C103.932 68.3251 107.371 64.8312 107.371 60.5843Z" fill="#414042"/>
<path id="Vector_4" d="M167.087 53.2952V42.9338H169.895V60.6295C169.895 66.4728 165.285 71.1565 159.399 71.1565C153.483 71.1565 148.829 66.4878 148.829 60.6295C148.829 54.6506 153.739 50.0272 159.399 50.0272C162.462 50.0121 165.195 51.2771 167.087 53.2952ZM167.087 60.5843C167.087 56.2922 163.603 52.8434 159.369 52.8434C155.089 52.8434 151.651 56.2922 151.651 60.5843C151.651 64.8312 155.089 68.3251 159.369 68.3251C163.603 68.3251 167.087 64.8312 167.087 60.5843Z" fill="#414042"/>
<path id="Vector_5" d="M134.008 60.6143C134.008 66.4726 129.353 71.1412 123.437 71.1412C117.567 71.1412 112.942 66.4726 112.942 60.6143C112.942 54.6805 117.476 50.012 123.437 50.012C129.098 50.012 134.008 54.6504 134.008 60.6143ZM131.2 60.5841C131.2 56.292 127.761 52.8432 123.482 52.8432C119.248 52.8432 115.764 56.292 115.764 60.5841C115.764 64.8311 119.248 68.325 123.482 68.325C127.761 68.325 131.2 64.8311 131.2 60.5841Z" fill="#166DFF"/>
<path id="Vector_6" d="M137.267 59.0039C137.237 51.5191 144.699 50.269 147.762 50.269V53.1004C143.573 53.1004 140.255 54.5762 140.089 58.6575V71.1574H137.282L137.267 59.0039Z" fill="#414042"/>
</g>
</svg>
