<svg width="241" height="121" viewBox="0 0 241 121" fill="none" xmlns="http://www.w3.org/2000/svg">
<g id="2.svg">
<g id="Clip path group">
<mask id="mask0_11_387" style="mask-type:luminance" maskUnits="userSpaceOnUse" x="49" y="45" width="143" height="30">
<g id="clip0_5301_12220">
<path id="Vector" d="M191.887 45.7295H49.6272V74.7429H191.887V45.7295Z" fill="white"/>
</g>
</mask>
<g mask="url(#mask0_11_387)">
<g id="Group">
<path id="Vector_2" d="M54.2942 64.8693C54.2942 66.5402 54.6543 67.8162 55.1345 68.5909C55.7498 69.6086 56.6802 70.034 57.6256 70.034C58.841 70.034 59.9515 69.7302 62.0974 66.7225C63.8081 64.3224 65.834 60.935 67.1995 58.8235L69.5105 55.2386C71.1162 52.7474 72.962 49.9828 75.0929 48.0991C76.8035 46.5801 78.6643 45.7295 80.5552 45.7295C83.7215 45.7295 86.7227 47.5827 89.0336 51.0613C91.5547 54.8741 92.7853 59.6742 92.7853 64.6262C92.7853 67.5732 92.215 69.7302 91.2396 71.4466C90.2942 73.1024 88.4635 74.7581 85.3722 74.7581V70.0491C88.0132 70.0491 88.6735 67.5883 88.6735 64.7781C88.6735 60.7679 87.7431 56.3172 85.7173 53.1272C84.2767 50.8638 82.4009 49.4967 80.3451 49.4967C78.1091 49.4967 76.3233 51.198 74.3125 54.2361C73.2471 55.8462 72.1366 57.8057 70.9061 60.0236L69.5405 62.4692C66.8093 67.3757 66.1191 68.4846 64.7535 70.3378C62.3375 73.5125 60.2967 74.743 57.6106 74.743C54.4142 74.743 52.4033 73.3454 51.1578 71.234C50.1224 69.5175 49.6272 67.2694 49.6272 64.7021L54.2942 64.8693Z" fill="#0081FB"/>
<path id="Vector_3" d="M53.3037 51.3954C55.4346 48.0536 58.5259 45.7295 62.0524 45.7295C64.1082 45.7295 66.1341 46.3371 68.265 48.0991C70.5909 50.0132 73.067 53.1879 76.1582 58.3982L77.2687 60.2666C79.9398 64.7781 81.4705 67.1022 82.3559 68.1959C83.4963 69.6086 84.3067 70.0188 85.3421 70.0188C87.9832 70.0188 88.6435 67.5579 88.6435 64.7477L92.7552 64.611C92.7552 67.5579 92.185 69.7149 91.2096 71.4315C90.2642 73.0872 88.4334 74.7429 85.3421 74.7429C83.4213 74.7429 81.7256 74.3176 79.8348 72.5252C78.3942 71.1428 76.6984 68.6972 75.3929 66.4946L71.5213 59.9476C69.5855 56.6665 67.7997 54.2209 66.7643 53.112C65.6539 51.9271 64.2283 50.484 61.9623 50.484C60.1165 50.484 58.5559 51.7904 57.2503 53.7955L53.3037 51.3954Z" fill="url(#paint0_linear_11_387)"/>
<path id="Vector_4" d="M61.9774 50.4689C60.1316 50.4689 58.5709 51.7752 57.2654 53.7804C55.4196 56.6057 54.2942 60.8135 54.2942 64.8693C54.2942 66.5402 54.6543 67.8162 55.1345 68.5909L51.1578 71.234C50.1224 69.5175 49.6272 67.2694 49.6272 64.7021C49.6272 60.0236 50.8877 55.1627 53.3038 51.3954C55.4347 48.0688 58.5259 45.7295 62.0524 45.7295L61.9774 50.4689Z" fill="url(#paint1_linear_11_387)"/>
<path id="Vector_5" d="M101.834 46.6414H107.221L116.405 63.4418L125.574 46.6414H130.856V74.2269H126.46V53.0972L118.416 67.7407H114.289L106.246 53.0972V74.2421H101.849V46.6414H101.834ZM144.616 56.9404C141.465 56.9404 139.56 59.3405 139.109 62.3177H149.809C149.599 59.2493 147.858 56.9404 144.616 56.9404ZM134.757 64.0039C134.757 57.7455 138.749 53.1884 144.707 53.1884C150.559 53.1884 154.056 57.6847 154.056 64.3381V65.5533H139.124C139.649 68.7888 141.78 70.9762 145.202 70.9762C147.933 70.9762 149.644 70.1255 151.249 68.5914L153.591 71.4927C151.385 73.5434 148.593 74.7282 145.037 74.7282C138.599 74.7282 134.757 69.9736 134.757 64.0039ZM159.383 57.3201H155.332V53.6744H159.383V47.6591H163.629V53.6897H169.782V57.3353H163.629V66.571C163.629 69.7305 164.62 70.8395 167.081 70.8395C168.207 70.8395 168.837 70.7484 169.782 70.5812V74.1813C168.596 74.5155 167.471 74.6674 166.256 74.6674C161.679 74.6674 159.383 72.1306 159.383 67.0571V57.3201ZM187.64 60.8746C186.784 58.7024 184.894 57.0923 182.088 57.0923C178.456 57.0923 176.13 59.705 176.13 63.9431C176.13 68.0901 178.276 70.8243 181.907 70.8243C184.774 70.8243 186.814 69.1382 187.625 67.0419V60.8746H187.64ZM191.887 74.2269H187.714V71.356C186.545 73.0421 184.428 74.7282 180.992 74.7282C175.47 74.7282 171.779 70.0496 171.779 63.9583C171.779 57.8062 175.56 53.2035 181.217 53.2035C184.023 53.2035 186.214 54.3428 187.699 56.3328V53.6897H191.887V74.2269Z" fill="#192830"/>
</g>
</g>
</g>
</g>
<defs>
<linearGradient id="paint0_linear_11_387" x1="58.9814" y1="59.4844" x2="88.6957" y2="60.967" gradientUnits="userSpaceOnUse">
<stop stop-color="#0064E1"/>
<stop offset="0.4" stop-color="#0064E1"/>
<stop offset="0.83" stop-color="#0073EE"/>
<stop offset="1" stop-color="#0082FB"/>
</linearGradient>
<linearGradient id="paint1_linear_11_387" x1="55.8436" y1="66.844" x2="55.8436" y2="55.755" gradientUnits="userSpaceOnUse">
<stop stop-color="#0082FB"/>
<stop offset="1" stop-color="#0064E0"/>
</linearGradient>
</defs>
</svg>
