<svg width="240" height="121" viewBox="0 0 240 121" fill="none" xmlns="http://www.w3.org/2000/svg">
<g id="22.svg">
<path id="Vector" d="M161.017 55.3196C161.017 54.2714 160.193 53.4478 159.145 53.4478H137.956C134.062 53.4478 130.918 56.4427 130.918 60.2612C130.918 64.1547 134.062 67.0747 137.956 67.0747H154.952C156.599 67.0747 157.947 68.5722 157.947 70.2194C157.947 71.8666 156.599 73.3641 154.952 73.3641H133.838C132.789 73.3641 131.966 74.1877 131.966 75.1611C131.966 76.209 132.789 76.9577 133.838 76.9577H155.027C158.92 76.9577 162.065 73.9631 162.065 70.1445C162.065 66.2511 158.92 63.331 155.027 63.331H137.956C136.308 63.331 134.961 61.8336 134.961 60.1864C134.961 58.5391 136.308 57.0417 137.956 57.0417H159.145C160.193 57.1914 161.017 56.3678 161.017 55.3196Z" fill="#A2C037"/>
<path id="Vector_2" d="M123.655 45.3624C123.655 43.865 122.457 42.667 120.959 42.667C119.462 42.667 118.264 43.865 118.264 45.3624C118.264 46.8599 119.462 48.0579 120.959 48.0579C122.457 47.983 123.655 46.785 123.655 45.3624Z" fill="#A2C037"/>
<path id="Vector_3" d="M112.499 47.982C111.001 47.982 109.803 46.784 109.803 45.2865C109.803 43.789 111.001 42.5911 112.499 42.5911C113.996 42.5911 115.194 43.789 115.194 45.2865C115.119 46.784 113.921 47.982 112.499 47.982Z" fill="#B6CB5D"/>
<path id="Vector_4" d="M103.963 47.982C102.466 47.982 101.268 46.784 101.268 45.2865C101.268 43.789 102.466 42.5911 103.963 42.5911C105.461 42.5911 106.659 43.789 106.659 45.2865C106.659 46.784 105.461 47.982 103.963 47.982Z" fill="#C9D888"/>
<path id="Vector_5" d="M95.4276 47.982C93.9301 47.982 92.7321 46.784 92.7321 45.2865C92.7321 43.789 93.9301 42.5911 95.4276 42.5911C96.9251 42.5911 98.123 43.789 98.123 45.2865C98.123 46.784 96.9251 47.982 95.4276 47.982Z" fill="#DCE5B2"/>
<path id="Vector_6" d="M86.9669 47.982C85.4694 47.982 84.2715 46.784 84.2715 45.2865C84.2715 43.789 85.4694 42.5911 86.9669 42.5911C88.4644 42.5911 89.6623 43.789 89.6623 45.2865C89.6623 46.784 88.4644 47.982 86.9669 47.982Z" fill="#EEF2DA"/>
<path id="Vector_7" d="M109.129 53.5232C109.055 53.5232 108.98 53.5232 108.98 53.5232H90.9352C83.7473 53.5232 78.9554 58.2402 78.9554 65.3532V75.3862C78.9554 76.5093 79.8539 77.4078 80.977 77.4078C82.1001 77.4078 82.9986 76.5093 82.9986 75.3862V65.3532C82.9986 60.4116 85.9935 57.192 91.0101 57.192H109.055C109.129 57.192 109.129 57.192 109.204 57.192C110.253 57.192 111.001 56.3684 111.001 55.395C111.001 54.4217 110.178 53.5232 109.129 53.5232Z" fill="#A2C037"/>
<path id="Vector_8" d="M84.9453 65.3511C84.9453 66.3993 85.7689 67.2229 86.7423 67.2229H105.161C106.209 67.2229 107.033 66.3993 107.033 65.3511C107.033 64.3029 106.209 63.4792 105.161 63.4792H86.8171C85.7689 63.4792 84.9453 64.3029 84.9453 65.3511Z" fill="#A2C037"/>
<path id="Vector_9" d="M119.013 55.3199V75.3111C119.013 76.4341 119.911 77.3326 121.034 77.3326C122.157 77.3326 123.056 76.4341 123.056 75.3111V55.3199C123.056 54.1968 122.157 53.2983 121.034 53.2983C119.836 53.3732 119.013 54.2717 119.013 55.3199Z" fill="#A2C037"/>
</g>
</svg>
