<svg width="241" height="121" viewBox="0 0 241 121" fill="none" xmlns="http://www.w3.org/2000/svg">
<g id="23.svg">
<path id="Vector" d="M87.8127 60.2621C87.8127 78.2497 102.395 92.832 120.383 92.832C138.37 92.832 152.953 78.2497 152.953 60.2621C152.953 42.2742 138.37 27.6921 120.383 27.6921C102.395 27.6921 87.8127 42.2742 87.8127 60.2621Z" fill="#0F75BD"/>
<path id="Vector_2" d="M139.126 48.2822C139.126 47.462 139.779 46.81 140.598 46.81C141.419 46.81 142.07 47.462 142.07 48.2822C142.07 49.1025 141.419 49.7545 140.598 49.7545C139.779 49.7545 139.126 49.1025 139.126 48.2822ZM140.598 50.1541C141.629 50.1541 142.47 49.3128 142.47 48.2822C142.47 47.2517 141.629 46.4104 140.598 46.4104C139.568 46.4104 138.727 47.2517 138.727 48.2822C138.727 49.3128 139.568 50.1541 140.598 50.1541ZM140.43 47.1675C140.725 47.1675 140.851 47.1886 140.977 47.2306C141.355 47.3568 141.397 47.6723 141.397 47.8195C141.397 47.8406 141.397 47.9037 141.376 47.9878C141.355 48.0719 141.313 48.2191 141.124 48.3454C141.103 48.3663 141.082 48.3664 141.04 48.4084L141.524 49.2707H141.061L140.64 48.4715H140.346V49.2707H139.925V47.1675H140.43ZM140.557 48.135C140.682 48.114 140.83 48.114 140.893 48.0088C140.935 47.9458 140.956 47.9037 140.956 47.8195C140.956 47.7144 140.893 47.6302 140.788 47.5671C140.703 47.5251 140.598 47.5251 140.409 47.5251H140.283V48.135H140.557Z" fill="white"/>
<path id="Vector_3" d="M127.955 64.3903C126.542 66.5808 125.192 68.6602 123.843 70.7396C123.335 71.5175 122.859 72.2953 122.303 73.0413C121.557 74.0731 120.478 74.3588 119.192 73.9461C118.16 73.6127 117.589 72.7238 117.541 71.5016C117.51 70.565 117.764 69.7555 118.288 68.9777C120.335 65.9617 122.351 62.914 124.383 59.898C124.668 59.4694 124.701 59.1679 124.383 58.7075C122.589 56.0566 120.827 53.3899 119.097 50.7073C118.446 49.7073 118.589 48.6278 119.176 47.6278C119.732 46.6913 120.589 46.3104 121.652 46.4056C122.589 46.5008 123.272 47.0088 123.764 47.7707C125.065 49.7867 126.367 51.8184 127.653 53.8503C127.716 53.9614 127.796 54.0566 127.938 54.2312C129.129 52.3581 130.272 50.5644 131.414 48.7707C131.732 48.2786 132.018 47.7548 132.399 47.3421C133.367 46.2786 134.923 46.0564 135.907 46.8024C137.13 47.7231 137.526 49.4692 136.701 50.7708C135.479 52.6915 134.209 54.5646 132.955 56.4694C132.526 57.1361 132.145 57.8345 131.637 58.4536C131.129 59.0726 131.176 59.5171 131.621 60.1679C133.653 63.1045 135.605 66.0887 137.589 69.0571C138.145 69.8825 138.399 70.7555 138.304 71.7556C138.177 72.9619 137.574 73.708 136.431 74.0413C135.272 74.3746 134.24 74.0889 133.557 73.0889C132.256 71.1683 131.002 69.1999 129.732 67.2633C129.209 66.3268 128.621 65.422 127.955 64.3903Z" fill="white"/>
<path id="Vector_4" d="M108.383 55.2459C109.779 53.0077 111.097 50.8648 112.414 48.7378C112.605 48.4203 112.811 48.1187 113.002 47.8012C113.78 46.5155 115.049 46.0551 116.399 46.5631C117.43 46.9441 118.351 48.5631 117.954 49.7219C117.589 50.8331 116.986 51.8807 116.366 52.8807C114.732 55.4999 113.017 58.0873 111.366 60.6905C111.192 60.9763 111.113 61.3731 111.113 61.7223C111.097 64.897 111.113 68.0717 111.097 71.2464C111.097 72.9607 110.049 74.0877 108.478 74.1512C106.747 74.2147 105.604 73.0242 105.621 71.1829C105.636 68.0558 105.652 64.9446 105.636 61.8175C105.636 61.4207 105.493 60.9763 105.287 60.6429C103.287 57.4682 101.271 54.3094 99.2548 51.1505C98.3024 49.6584 98.6364 47.5631 99.9534 46.7536C101.223 45.9599 102.843 46.4044 103.716 47.8012C105.176 50.1347 106.62 52.468 108.065 54.8015C108.145 54.9126 108.207 55.0078 108.383 55.2459Z" fill="white"/>
</g>
</svg>
