<svg width="105" height="121" viewBox="0 0 105 121" fill="none" xmlns="http://www.w3.org/2000/svg">
<g id="25.svg">
<path id="Vector" d="M72.586 67.5748V50.2947H48.0995V70.7487C48.0995 70.7487 50.3062 68.7738 53.2958 68.5622C57.5667 68.2801 59.3462 70.3255 63.4036 71.0309C68.3863 71.8772 71.6607 68.8444 72.3725 67.9275C72.586 67.7864 72.586 67.7159 72.586 67.5748Z" fill="#0784BD"/>
<path id="Vector_2" d="M50.4486 67.0802C51.3028 66.657 52.0146 66.4454 53.723 66.3044C57.9227 66.0928 59.4887 67.5739 63.4037 68.2087C66.5357 68.7024 68.2441 67.9971 69.5965 67.1508C70.3083 66.7276 70.0948 66.7981 70.4507 66.516C70.8066 66.2339 70.8777 66.0928 70.8066 65.8812C70.8066 65.8107 70.7354 65.8107 70.593 65.8812C70.5219 65.9517 70.3083 66.0928 70.3083 66.0928C67.1763 68.2087 63.1189 67.0097 59.5599 65.8812C56.2143 64.8232 52.1569 65.317 50.3062 66.5865C50.3062 66.5865 50.0927 66.7276 49.9503 66.9392C49.8791 67.0097 49.8079 67.3623 49.9503 67.2918C50.1639 67.2213 50.3062 67.0802 50.4486 67.0802Z" fill="white"/>
<path id="Vector_3" d="M55.289 61.7212L51.73 57.1367V61.7212H50.1639V54.4565H51.6588L55.0755 58.9V54.4565H56.6415V61.6507H55.289V61.7212Z" fill="white"/>
<path id="Vector_4" d="M61.4107 61.7927C59.2753 61.7927 57.7093 60.1705 57.7093 58.0545C57.7093 56.0091 59.2753 54.3164 61.4819 54.3164C62.8344 54.3164 63.6886 54.7396 64.3292 55.4449L63.3327 56.6439C62.7632 56.1502 62.1938 55.7975 61.4819 55.7975C60.2718 55.7975 59.3465 56.785 59.3465 58.0545C59.3465 59.3241 60.2007 60.3115 61.4819 60.3115C62.3361 60.3115 62.8344 59.9589 63.4039 59.4652L64.4004 60.4526C63.6174 61.299 62.7632 61.7927 61.4107 61.7927Z" fill="white"/>
<path id="Vector_5" d="M65.3969 61.7212V54.4565H67.0341V60.2401H70.6644V61.6507C70.6644 61.7212 65.3969 61.7212 65.3969 61.7212Z" fill="white"/>
<path id="Vector_6" d="M84.5451 61.1565L79.2059 54.2444V61.1565H76.7859V50.2947H78.9925L84.1176 56.9951V50.2947H86.5375V61.1565C86.6093 61.1565 84.5451 61.1565 84.5451 61.1565Z" fill="black"/>
<path id="Vector_7" d="M96.1474 61.3688C92.731 61.3688 90.3103 58.8297 90.3103 55.7968C90.3103 52.6934 92.8021 50.1543 96.1474 50.1543C99.5639 50.1543 101.985 52.6934 101.985 55.7262C102.056 58.8297 99.5639 61.3688 96.1474 61.3688ZM99.4928 55.7262C99.4928 53.8924 98.1406 52.2702 96.1474 52.2702C94.2254 52.2702 92.8732 53.8219 92.8732 55.6557C92.8732 57.4896 94.2254 59.1118 96.2186 59.1118C98.1406 59.1118 99.4928 57.6306 99.4928 55.7262Z" fill="black"/>
<path id="Vector_8" d="M79.6334 70.6076C77.9959 70.6076 76.7859 69.3381 76.7859 67.7864C76.7859 66.2347 77.9959 64.9651 79.6334 64.9651C80.7011 64.9651 81.2701 65.3178 81.7688 65.8115L80.9856 66.6579C80.5588 66.3052 80.1313 66.0231 79.5623 66.0231C78.6368 66.0231 77.9959 66.799 77.9959 67.7159C77.9959 68.6328 78.6368 69.4086 79.5623 69.4086C80.2024 69.4086 80.5588 69.1265 80.9856 68.7738L81.7688 69.5497C81.2701 70.1844 80.63 70.6076 79.6334 70.6076Z" fill="black"/>
<path id="Vector_9" d="M86.965 70.4663L85.755 68.703H84.8296V70.4663H83.6196V65.0354H86.1107C87.3918 65.0354 88.1749 65.7407 88.1749 66.7987C88.1749 67.645 87.677 68.2093 86.965 68.4914L88.3172 70.4663H86.965ZM86.965 66.8692C86.965 66.3755 86.6093 66.0934 86.0395 66.0934H84.8296V67.7156H86.0395C86.6093 67.7156 86.965 67.3629 86.965 66.8692Z" fill="black"/>
<path id="Vector_10" d="M92.3746 70.6069C90.8794 70.6069 90.0258 69.7605 90.0258 68.2088V65.1055H91.2358V68.2088C91.2358 69.1257 91.6626 69.5489 92.4457 69.5489C93.1578 69.5489 93.6557 69.1257 93.6557 68.2088V65.1055H94.8656V68.2088C94.7945 69.7605 93.7979 70.6069 92.3746 70.6069Z" fill="black"/>
<path id="Vector_11" d="M96.8595 70.4663V65.0354H98.0694V70.4663H96.8595Z" fill="black"/>
<path id="Vector_12" d="M102.127 70.5371C101.273 70.5371 100.489 70.255 99.7773 69.6907L100.489 68.8444C100.988 69.2675 101.486 69.4791 102.127 69.4791C102.625 69.4791 102.909 69.2675 102.909 68.9854C102.909 68.7033 102.696 68.4917 101.77 68.2801C100.774 67.998 100.063 67.7159 100.063 66.5874C100.063 65.5999 100.845 64.9651 101.985 64.9651C102.767 64.9651 103.479 65.2473 104.049 65.6705L103.408 66.5874C102.909 66.2347 102.411 66.0231 101.985 66.0231C101.486 66.0231 101.273 66.2347 101.273 66.5168C101.273 66.8695 101.486 67.0106 102.482 67.2222C103.621 67.5043 104.191 67.9275 104.191 68.8444C104.191 69.9729 103.337 70.5371 102.127 70.5371Z" fill="black"/>
</g>
</svg>
