<svg width="241" height="121" viewBox="0 0 241 121" fill="none" xmlns="http://www.w3.org/2000/svg">
<g id="28.svg">
<path id="Vector" d="M74.6293 55.3376C78.423 55.3376 81.5467 58.341 81.5467 62.0343C81.5467 65.7073 78.444 68.7309 74.6293 68.7309C70.8144 68.7309 67.7122 65.7276 67.7122 62.0343C67.7122 60.3094 67.7122 47.1597 67.7122 47.1597H71.2755V61.9734C71.2755 63.8606 72.8267 65.3623 74.776 65.3623C76.7256 65.3623 78.2763 63.8606 78.2763 61.9734C78.2763 60.0862 76.7256 58.5845 74.776 58.5845H72.9943V55.2768L74.6293 55.3376Z" fill="#E87511"/>
<path id="Vector_2" d="M61.1304 58.8687C61.1304 58.7267 61.2771 58.6455 61.361 58.6455H66.0982V55.4189C66.0982 55.4189 60.4387 55.4189 60.271 55.4189C58.8037 55.4189 57.6299 56.5554 57.6299 57.9759C57.6299 58.057 57.6299 68.5687 57.6299 68.5687H61.1304V58.8687Z" fill="#E87511"/>
<path id="Vector_3" d="M180.609 65.9906C180.294 66.295 180.148 66.6602 180.148 67.127C180.148 67.5938 180.294 67.959 180.609 68.2634C180.923 68.5678 181.301 68.7098 181.782 68.7098C182.243 68.7098 182.642 68.5678 182.956 68.2634C183.271 67.959 183.417 67.5938 183.417 67.2082C183.417 66.7617 183.271 66.3762 182.956 66.0717C182.642 65.7674 182.264 65.6253 181.782 65.6253C181.301 65.5442 180.902 65.7065 180.609 65.9906ZM176.333 55.0933C175.473 55.0933 174.698 55.2355 174.152 55.4789C173.524 55.7021 173.062 56.1486 172.601 56.6762C171.973 57.4271 171.679 58.3199 171.679 59.3143C171.679 60.0651 171.91 60.8159 172.308 61.4247C172.853 62.2567 173.775 62.7843 175.18 63.1496C175.955 63.2917 176.417 63.454 176.647 63.596C177.108 63.8192 177.338 64.2048 177.338 64.7325C177.338 65.1789 177.192 65.5645 176.794 65.8688C176.48 66.1733 176.018 66.3153 175.389 66.3153C174.467 66.3153 173.293 66.0109 171.889 65.4224V68.2025C173.209 68.649 174.383 68.8722 175.389 68.8722C176.794 68.8722 177.883 68.5678 178.722 67.8981C179.728 67.0661 180.189 66.0109 180.189 64.7325C180.189 63.6772 179.791 62.7032 179.099 62.0335C178.785 61.7291 178.47 61.5059 178.093 61.3638C177.695 61.2218 177.087 60.9782 176.228 60.755C175.536 60.613 175.054 60.3695 174.823 60.1462C174.593 59.9231 174.425 59.6187 174.425 59.2534C174.425 58.8679 174.572 58.5026 174.886 58.1982C175.201 57.8938 175.746 57.7517 176.354 57.7517C177.129 57.7517 177.988 57.9749 178.995 58.4214V55.6413C178.03 55.1745 177.192 55.0933 176.333 55.0933ZM159.794 56.7574C158.159 58.117 157.384 59.8419 157.384 61.8712C157.384 63.0684 157.698 64.2048 158.306 65.26C158.935 66.3153 159.857 67.2082 161.031 67.817C162.121 68.4258 163.211 68.649 164.447 68.649C165.684 68.649 166.774 68.3446 167.865 67.817C168.954 67.2082 169.814 66.3965 170.505 65.4021C171.197 64.3469 171.512 63.1496 171.512 61.9523C171.512 60.0042 170.82 58.4214 169.499 57.0618C168.095 55.7021 166.481 55.0325 164.531 55.0325C162.666 55.0933 161.115 55.621 159.794 56.7574ZM167.319 58.7866C168.241 59.6187 168.723 60.6739 168.723 61.9523C168.723 62.9264 168.409 63.8395 167.718 64.6512C166.858 65.6253 165.768 66.153 164.531 66.153C163.442 66.153 162.519 65.7674 161.744 65.0977C160.737 64.2657 160.276 63.2105 160.276 61.9321C160.276 60.8768 160.591 59.9839 161.366 59.1519C162.226 58.1779 163.316 57.7314 164.636 57.7314C165.621 57.7314 166.544 58.117 167.319 58.7866ZM151.095 68.4866V62.3176C151.179 62.7032 151.326 62.9872 151.556 63.1496C151.787 63.2917 152.185 63.3728 152.647 63.3728H152.961C153.422 63.3728 153.737 63.454 153.883 63.596C154.03 63.7381 154.114 64.0425 154.114 64.4889V68.4663H156.902V64.2657C156.902 62.9061 156.44 62.0944 155.434 61.8509C156.357 61.0188 156.755 60.126 156.755 59.0708C156.755 57.7923 156.21 56.7371 155.12 55.9863C154.721 55.763 154.345 55.5398 153.946 55.4586C153.548 55.3775 153.087 55.3166 152.479 55.3166H151.011C150.382 55.3166 149.922 55.3166 149.691 55.3978C149.461 55.4789 149.146 55.621 148.916 55.7833C148.601 56.0066 148.454 56.3109 148.371 56.6153C148.287 56.9197 148.224 57.3661 148.224 58.0358V68.4866H151.095ZM152.353 57.8735C152.898 57.8735 153.359 58.0155 153.59 58.2591C153.904 58.4823 154.051 58.8679 154.051 59.3143C154.051 59.6187 153.967 59.9839 153.737 60.2071C153.506 60.5116 153.108 60.6536 152.563 60.7348C152.018 60.8159 151.64 60.8768 151.473 61.0392C151.242 61.1812 151.158 61.4856 151.074 61.9321V57.8735C151.095 57.8735 152.353 57.8735 152.353 57.8735ZM142.941 57.8735C143.403 57.8735 143.801 58.0155 144.032 58.1779C144.346 58.4011 144.43 58.7055 144.43 59.0708C144.43 59.4563 144.283 59.7404 143.969 60.0448C143.738 60.1868 143.424 60.268 142.879 60.268H141.956V57.8532C141.935 57.8735 142.941 57.8735 142.941 57.8735ZM146.903 60.0651C147.134 59.6796 147.217 59.1722 147.217 58.7055C147.217 58.0358 147.071 57.4271 146.672 56.8994C146.274 56.3718 145.813 55.9253 145.206 55.7021C144.577 55.4789 143.654 55.3166 142.25 55.3166C141.621 55.3166 141.159 55.3978 140.846 55.4586C140.531 55.5398 140.217 55.6818 139.986 55.905C139.756 56.1283 139.525 56.4327 139.441 56.7371C139.357 57.0415 139.294 57.5691 139.294 58.1576V65.3818C139.294 66.0514 139.378 66.5791 139.441 66.9647C139.525 67.3502 139.756 67.6343 139.986 67.8575C140.301 68.0807 140.615 68.2431 140.909 68.3852C141.306 68.4663 141.83 68.5272 142.69 68.5272C143.78 68.5272 144.556 68.446 144.933 68.3852C145.792 68.1619 146.484 67.7155 147.113 67.0255C147.574 66.3559 147.888 65.6659 147.888 64.8542C147.888 64.3266 147.804 63.8801 147.574 63.3526C147.343 62.9061 147.113 62.4596 146.714 62.0741C146.484 61.8509 146.169 61.6276 145.792 61.4044C146.358 60.958 146.672 60.5116 146.903 60.0651ZM142.941 62.8452C143.403 62.8452 143.717 62.8452 143.864 62.8452C144.011 62.8452 144.178 62.9264 144.325 62.9872C144.556 63.1293 144.786 63.2917 144.954 63.5149C145.122 63.7381 145.185 64.0425 145.185 64.2657C145.185 64.8745 144.954 65.3209 144.409 65.5442C144.178 65.6253 144.011 65.6862 143.864 65.6862C143.717 65.6862 143.403 65.6862 142.941 65.6862H142.019V62.6829H142.941V62.8452ZM131.686 55.3369C130.679 55.3369 129.988 55.5601 129.505 55.9457C129.044 56.3921 128.876 57.0821 128.876 58.117V65.7065C128.876 66.2341 128.96 66.5994 129.023 66.9038C129.086 67.2082 129.254 67.5125 129.484 67.7358C129.715 68.0402 130.03 68.1822 130.344 68.3446C130.658 68.4258 131.12 68.4866 131.749 68.4866H135.71V65.9297H131.665V62.9264H135.396V60.4507H131.665V57.9749H135.71V55.4181H131.665L131.686 55.3369ZM125.02 68.4866H127.807V55.3369H125.02V68.4866ZM121.205 55.3369V60.4507H116.95V55.3369H114.162V68.4866H116.95V62.9264H121.226V68.4866H124.013V55.3369H121.205ZM113.366 55.3369H112.443C111.668 55.3369 111.039 55.4181 110.577 55.4789C109.174 55.7833 107.937 56.453 107.014 57.4271C105.84 58.7055 105.232 60.126 105.232 61.8712C105.232 63.3728 105.693 64.6512 106.637 65.8485C107.559 66.985 108.733 67.7967 110.137 68.1822C110.766 68.3243 111.542 68.4055 112.632 68.4055H113.408V65.9297H112.632C111.772 65.9297 111.081 65.7877 110.535 65.5442C109.99 65.3209 109.446 64.9354 108.985 64.4077C108.356 63.6569 108.062 62.8249 108.062 61.8509C108.062 61.1812 108.209 60.4913 108.607 59.9028C108.922 59.3751 109.299 58.9287 109.844 58.5431C110.242 58.2388 110.619 58.0967 111.081 57.9343C111.479 57.8532 112.003 57.7923 112.632 57.7923H113.491V55.3166H113.366V55.3369ZM98.1477 55.3369V57.8938H100.705V68.4866H103.493V57.8938H106.05V55.3369H98.1477ZM94.6683 68.4866H97.4558V55.3369H94.6683V68.4866ZM88.0652 68.4866V62.3176C88.1491 62.7032 88.2958 62.9872 88.5264 63.1496C88.757 63.2917 89.1554 63.3728 89.6166 63.3728H89.9311C90.3923 63.3728 90.7068 63.454 90.9374 63.596C91.0841 63.7381 91.168 64.0425 91.168 64.4889V68.4663H93.9555V64.2657C94.0394 62.9061 93.4943 62.0944 92.488 61.8509C93.4104 61.0188 93.8088 60.126 93.8088 59.0708C93.8088 57.7923 93.2637 56.7371 92.1735 55.9863C91.7752 55.763 91.3986 55.5398 91.0003 55.4586C90.6019 55.3775 90.1407 55.3166 89.5327 55.3166H88.0652C87.4363 55.3166 86.9758 55.3166 86.7452 55.3978C86.5146 55.4789 86.2001 55.621 85.9695 55.7833C85.655 56.0066 85.5083 56.3109 85.4244 56.6153C85.3406 56.9197 85.2777 57.3661 85.2777 58.0358V68.4866H88.0652ZM89.3021 57.8735C89.8472 57.8735 90.3084 58.0155 90.539 58.2591C90.8535 58.4823 91.0003 58.8679 91.0003 59.3143C91.0003 59.6187 90.9164 59.9839 90.6858 60.2071C90.4552 60.5116 90.0568 60.6536 89.5118 60.7348C88.9667 60.8159 88.5893 60.8768 88.4216 61.0392C88.191 61.1812 88.1071 61.4856 88.0233 61.9321V57.8735C88.0652 57.8735 89.3021 57.8735 89.3021 57.8735Z" fill="black"/>
</g>
</svg>
