<svg width="241" height="121" viewBox="0 0 241 121" fill="none" xmlns="http://www.w3.org/2000/svg">
<g id="3.svg">
<path id="Vector" d="M89.4376 44.9197H83.5974V50.8538H89.4376V44.9197Z" fill="#0069B7"/>
<path id="Vector_2" d="M89.2938 75.8402V54.4655H83.7644V75.8402H89.2938ZM126.046 76.0513V70.8133C125.236 70.8133 124.549 70.7711 124.051 70.6866C123.469 70.6021 123.033 70.3909 122.741 70.0952C122.45 69.7995 122.263 69.3771 122.16 68.8279C122.076 68.2999 122.034 67.6029 122.034 66.758V59.2811H126.046V54.4655H122.034V46.1225H116.484V66.8003C116.484 68.5534 116.629 70.0318 116.921 71.2147C117.212 72.3763 117.711 73.3268 118.396 74.0449C119.083 74.763 119.997 75.2696 121.099 75.5864C122.222 75.9038 123.635 76.0513 125.319 76.0513H126.046ZM157.81 75.8402V44.4751H152.259V75.8402H157.81ZM111.142 56.5565C109.603 54.8668 107.442 54.0219 104.698 54.0219C103.367 54.0219 102.162 54.2965 101.059 54.8457C99.979 55.3948 99.0431 56.1551 98.3161 57.1268L98.0038 57.528V57.169V54.4655H92.5366V75.8402H98.0458V64.4558V65.2373C98.0458 65.1106 98.0458 64.9838 98.0458 64.8571C98.1079 62.8506 98.5863 61.3721 99.5006 60.4216C100.478 59.4079 101.663 58.901 103.014 58.901C104.614 58.901 105.841 59.4079 106.652 60.3794C107.442 61.351 107.857 62.7239 107.857 64.4769V64.5192V75.8192H113.449V63.6955C113.47 60.654 112.68 58.2462 111.142 56.5565ZM149.391 65.1106C149.391 63.5687 149.121 62.1325 148.601 60.7807C148.06 59.4501 147.312 58.2673 146.377 57.2534C145.42 56.2397 144.277 55.4581 142.947 54.8879C141.616 54.3176 140.14 54.043 138.54 54.043C137.022 54.043 135.588 54.3387 134.258 54.909C132.927 55.5004 131.763 56.2819 130.786 57.2746C129.809 58.2673 129.019 59.4501 128.458 60.8018C127.875 62.1536 127.606 63.611 127.606 65.1528C127.606 66.6947 127.875 68.152 128.416 69.5038C128.957 70.8556 129.725 72.0383 130.682 73.0311C131.638 74.0238 132.823 74.8263 134.195 75.3969C135.567 75.9877 137.085 76.2834 138.706 76.2834C143.404 76.2834 146.314 74.1082 148.06 72.0806L144.069 68.9969C143.238 70.0107 141.242 71.3836 138.748 71.3836C137.189 71.3836 135.9 71.0245 134.922 70.2853C133.945 69.5671 133.28 68.5533 132.927 67.3072L132.865 67.1171H149.391V65.1106ZM132.906 63.1463C132.906 61.5833 134.673 58.8587 138.477 58.8375C142.282 58.8375 144.069 61.5622 144.069 63.1252L132.906 63.1463Z" fill="black"/>
</g>
</svg>
