<svg width="240" height="121" viewBox="0 0 240 121" fill="none" xmlns="http://www.w3.org/2000/svg">
<g id="34.svg">
<path id="Vector" d="M68.7091 66.3121L59.8947 65.1033L58.9629 60.5954L59.0133 60.4694L53.3973 58.2281V53.4431L58.9378 46.2153L73.2674 46.3413L80.52 53.4431L80.4197 60.5701L78.3547 65.7077L75.6847 67.7224L73.9977 74.2954L68.8098 66.2366L68.7091 66.3121Z" fill="#603FF0"/>
<path id="Vector_2" d="M73.3178 46.2153V53.3928H66.1404L58.9378 46.2153H73.3178Z" fill="#7681F2"/>
<path id="Vector_3" d="M58.9378 46.2153V53.3928H53.2714L58.9378 46.2153Z" fill="#7681F2"/>
<path id="Vector_4" d="M68.7091 66.3135L59.7689 65.2305L58.963 60.5967L68.7091 66.3135Z" fill="#00BBD7"/>
<path id="Vector_5" d="M80.5208 53.3928H73.3179V46.2153L80.5208 53.3928Z" fill="#00BBD7"/>
<path id="Vector_6" d="M58.9378 53.3926V60.57L53.2714 58.3287V53.3926H58.9378Z" fill="#00BBD7"/>
<path id="Vector_7" d="M73.3178 53.3926H66.1403V60.5952H73.3178V53.3926Z" fill="#2745FF"/>
<path id="Vector_8" d="M66.1404 53.3926V60.5952H58.9378V53.4178L66.1404 53.3926Z" fill="#002B9D"/>
<path id="Vector_9" d="M78.3546 65.7342L75.7857 67.7993L74.0481 74.599L68.7092 66.3135L66.1403 60.5967H73.3178L78.3546 65.7342Z" fill="#002B9D"/>
<path id="Vector_10" d="M87.7228 52.7872H90.7956V54.3486C91.5511 53.3412 92.5582 52.5857 94.1702 52.5857C96.6882 52.5857 99.0811 54.5501 99.0811 58.1766V58.2269C99.0811 61.8282 96.7136 63.8178 94.1702 63.8178C92.5335 63.8178 91.5257 63.0622 90.7956 62.206V66.8398H87.7228V52.7872ZM96.0083 58.2017V58.1513C96.0083 56.3633 94.7999 55.1797 93.3638 55.1797C91.9285 55.1797 90.7447 56.3633 90.7447 58.1513V58.2017C90.7447 59.9898 91.9285 61.1735 93.3638 61.1735C94.7999 61.1735 96.0083 60.0149 96.0083 58.2017Z" fill="black"/>
<path id="Vector_11" d="M100.668 66.136L101.7 63.9198C102.103 64.1716 102.607 64.348 103.01 64.348C103.538 64.348 103.815 64.1969 104.067 63.6428L99.8366 52.8137H103.085L105.553 60.1674L107.921 52.8137H111.094L106.938 63.8443C106.107 66.0353 105.226 66.8663 103.387 66.8663C102.279 66.8663 101.473 66.5893 100.668 66.136Z" fill="black"/>
<path id="Vector_12" d="M112.907 52.7872H115.979V54.3234C116.685 53.4168 117.616 52.5857 119.152 52.5857C120.563 52.5857 121.62 53.2153 122.2 54.2982C123.157 53.1901 124.265 52.5857 125.751 52.5857C128.017 52.5857 129.403 53.9456 129.403 56.5648V63.5911H126.33V57.5721C126.33 56.1115 125.675 55.3811 124.542 55.3811C123.384 55.3811 122.678 56.1366 122.678 57.5721V63.5911H119.606V57.5721C119.606 56.1115 118.951 55.3811 117.817 55.3811C116.685 55.3811 115.954 56.1366 115.954 57.5721V63.5911H112.882V52.7872H112.907Z" fill="black"/>
<path id="Vector_13" d="M131.518 58.2521V58.2017C131.518 55.1293 133.709 52.5857 136.857 52.5857C140.458 52.5857 142.12 55.3811 142.12 58.4535C142.12 58.7054 142.095 58.9824 142.07 59.2595H134.565C134.867 60.6446 135.825 61.3749 137.21 61.3749C138.242 61.3749 138.972 61.0475 139.829 60.2668L141.591 61.8282C140.584 63.0874 139.123 63.8429 137.184 63.8429C133.91 63.8429 131.518 61.5512 131.518 58.2521ZM139.149 57.3455C138.972 55.9855 138.167 55.0537 136.882 55.0537C135.623 55.0537 134.792 55.9603 134.54 57.3455H139.149Z" fill="black"/>
<path id="Vector_14" d="M144.89 60.5196V55.4072H143.606V52.7881H144.89V50.0178H147.963V52.7881H150.506V55.4072H147.963V60.0159C147.963 60.721 148.266 61.0736 148.945 61.0736C149.499 61.0736 150.003 60.9225 150.456 60.6958V63.1639C149.801 63.5416 149.071 63.7935 148.039 63.7935C146.175 63.7683 144.89 63.0379 144.89 60.5196Z" fill="black"/>
<path id="Vector_15" d="M152.748 52.7881H155.82V54.954C156.45 53.4681 157.457 52.4859 159.27 52.5867V55.7851H159.119C157.08 55.7851 155.846 57.019 155.846 59.5878V63.592H152.748V52.7881Z" fill="black"/>
<path id="Vector_16" d="M161.235 48.8857H164.458V51.6056H161.235V48.8857ZM161.311 52.7893H164.383V63.5931H161.311V52.7893Z" fill="black"/>
<path id="Vector_17" d="M166.725 58.2521V58.2017C166.725 55.1293 169.092 52.5857 172.391 52.5857C174.432 52.5857 175.69 53.2657 176.698 54.399L174.834 56.4137C174.154 55.6834 173.474 55.23 172.367 55.23C170.83 55.23 169.747 56.5899 169.747 58.1766V58.2269C169.747 59.8891 170.805 61.1986 172.492 61.1986C173.525 61.1986 174.23 60.7453 174.96 60.0402L176.748 61.8534C175.69 63.0118 174.482 63.8178 172.341 63.8178C169.118 63.8429 166.725 61.3245 166.725 58.2521Z" fill="black"/>
<path id="Vector_18" d="M177.932 62.1556L179.241 60.1409C180.4 60.9971 181.634 61.4253 182.641 61.4253C183.523 61.4253 183.926 61.0979 183.926 60.6194V60.569C183.926 59.9142 182.868 59.6876 181.685 59.3098C180.173 58.8565 178.461 58.1513 178.461 56.0611V56.0107C178.461 53.8197 180.224 52.5857 182.415 52.5857C183.774 52.5857 185.285 53.039 186.444 53.8449L185.285 55.9603C184.228 55.3308 183.145 54.953 182.364 54.953C181.609 54.953 181.231 55.2804 181.231 55.7085V55.7841C181.231 56.3884 182.263 56.6655 183.422 57.0684C184.933 57.5721 186.696 58.3024 186.696 60.2668V60.3172C186.696 62.7096 184.908 63.7925 182.566 63.7925C181.055 63.7925 179.342 63.2889 177.932 62.1556Z" fill="black"/>
</g>
</svg>
