<svg width="241" height="121" viewBox="0 0 241 121" fill="none" xmlns="http://www.w3.org/2000/svg">
<g id="35.svg">
<path id="Vector" d="M97.5525 79.3568H95.8154V77.762H97.5525V75.0528H99.7627V77.762H102.13V79.3568H99.7627V83.3423C99.7627 84.3007 99.7627 84.9371 100.55 84.9371C101.181 84.9371 101.657 84.7777 102.287 84.7777V86.5319H100.55C97.7104 86.5319 97.5525 85.5766 97.5525 83.9818V79.3568ZM105.92 81.1111C106.235 79.3568 107.657 78.8791 108.76 78.8791C109.863 78.8791 111.443 79.5156 111.6 81.1111H105.92ZM113.971 82.7029V82.2252C113.971 79.8345 112.55 77.4438 108.76 77.4438C105.601 77.4438 103.549 79.1973 103.549 82.0657C103.549 84.4565 104.97 86.6884 108.917 86.6884C112.076 86.6884 113.337 84.7747 113.81 83.817H111.285C110.97 84.6129 110.339 85.0936 108.76 85.0936C106.55 85.0936 105.92 83.6576 105.92 82.7029H113.971ZM115.866 74.4131H118.233V86.3695H115.866V74.4131ZM120.759 74.4131H122.968V86.3695H120.759V74.4131ZM124.863 77.762H127.073V82.7029C127.073 83.9788 127.389 84.9341 129.441 84.9341C130.39 84.9341 131.966 84.2977 131.966 82.5434V77.762H134.176V86.3695H131.966V85.2524C131.178 86.0483 130.071 86.6884 128.492 86.6884C126.755 86.6884 124.86 86.0513 124.86 83.4981L124.863 77.762ZM138.126 83.6606C138.126 84.9342 139.705 85.2554 140.494 85.2554C141.601 85.2554 142.703 84.9371 142.703 84.1382C142.703 83.3423 142.388 83.1829 140.021 82.8646C137.338 82.5464 135.916 82.2282 135.916 80.1557C135.916 77.765 138.76 77.4468 140.179 77.4468C141.601 77.4468 144.756 77.6055 144.914 80.3152H142.546C142.388 79.0416 140.809 78.8791 140.179 78.8791C138.917 78.8791 138.126 79.5156 138.126 79.9962C138.126 80.6334 138.442 80.7922 140.494 81.1141C143.334 81.4323 145.229 81.7505 145.229 83.823C145.229 86.0543 143.177 86.6944 140.494 86.6944C138.599 86.6944 135.758 86.3762 135.598 83.6665L138.126 83.6606Z" fill="#0C0E0F"/>
<path id="Vector_2" d="M98.4981 91.4741H97.5524V90.9964H99.7627V91.4741H98.9743V93.3871H98.4981V91.4741ZM101.027 90.9964H103.079V91.4741H101.5V91.951H102.921V92.4287H101.5V93.0659H103.079V93.3841H101.027V90.9964ZM106.392 91.951C106.392 91.4741 106.077 91.3146 105.604 91.3146C105.131 91.3146 104.816 91.6328 104.816 92.27C104.816 92.7469 105.131 93.0659 105.604 93.0659C106.235 93.0659 106.392 92.7469 106.392 92.4287H106.865C106.865 92.9064 106.55 93.3841 105.601 93.3841C104.652 93.3841 104.337 92.9064 104.337 92.2663C104.337 91.4703 104.652 90.9934 105.601 90.9934C106.389 90.9934 106.865 91.3116 106.865 91.948L106.392 91.951ZM108.287 90.9964H108.759V91.951H110.181V90.9964H110.655V93.3871H110.181V92.27H108.759V93.3871H108.287V90.9964ZM112.234 90.9964H112.707L114.129 92.7499V90.9964H114.602V93.3871H114.129L112.707 91.6328V93.3871H112.234V90.9964ZM117.288 93.0689C116.814 93.0689 116.499 92.7499 116.499 92.273C116.499 91.6358 116.814 91.3176 117.288 91.3176C117.918 91.3176 118.236 91.6358 118.236 92.273C118.233 92.7469 117.918 93.0689 117.288 93.0689ZM117.288 93.3871C118.394 93.3871 118.709 92.9094 118.709 92.27C118.709 91.4741 118.394 90.9964 117.288 90.9964C116.342 90.9964 116.023 91.4741 116.023 92.27C116.023 92.9094 116.339 93.3871 117.288 93.3871ZM119.97 90.9964H120.601V93.0689H122.023V93.3871H119.97V90.9964ZM123.918 93.0689C123.444 93.0689 123.129 92.7499 123.129 92.273C123.129 91.6358 123.444 91.3176 123.918 91.3176C124.548 91.3176 124.863 91.6358 124.863 92.273C124.863 92.7469 124.548 93.0689 123.918 93.0689ZM123.918 93.3871C124.863 93.3871 125.339 92.9094 125.339 92.27C125.339 91.4741 124.866 90.9964 123.918 90.9964C122.968 90.9964 122.496 91.4741 122.496 92.27C122.496 92.9094 122.971 93.3871 123.918 93.3871ZM129.129 93.3871H128.813V93.0689C128.656 93.2276 128.34 93.3871 127.867 93.3871C126.919 93.3871 126.603 92.9094 126.603 92.27C126.603 91.4741 126.919 90.9964 127.867 90.9964C128.656 90.9964 128.974 91.3146 129.129 91.7923H128.495C128.495 91.4741 128.179 91.3146 127.864 91.3146C127.234 91.3146 127.077 91.6328 127.077 92.27C127.077 92.9064 127.392 93.0659 127.864 93.0659C128.337 93.0659 128.495 92.9064 128.653 92.4287H128.022V92.1105H129.129V93.3871ZM131.338 92.4287L130.393 90.9934H131.023L131.657 92.1105L132.287 90.9934H132.918L131.815 92.4287V93.3841H131.341L131.338 92.4287ZM136.231 90.9964H136.704V93.3871H136.231V90.9964ZM138.126 90.9964H138.757L140.021 92.7499V90.9964H140.494V93.3871H140.021L138.599 91.6328V93.3871H138.126V90.9964ZM143.653 91.951C143.653 91.4741 143.337 91.3146 143.022 91.3146C142.549 91.3146 142.234 91.6328 142.234 92.27C142.234 92.7469 142.549 93.0659 143.022 93.0659C143.495 93.0659 143.653 92.7469 143.653 92.4287H144.283C144.125 92.9064 143.81 93.3841 142.861 93.3841C142.073 93.3841 141.6 92.9064 141.6 92.2663C141.6 91.4703 142.073 90.9934 143.022 90.9934C143.81 90.9934 144.128 91.3116 144.286 91.948L143.653 91.951Z" fill="black"/>
<path id="Vector_3" d="M100.708 47.4721C100.708 35.9928 109.866 26.7483 121.232 26.7483C132.6 26.7483 141.755 35.9959 141.755 47.4721C141.755 58.9481 132.597 68.1958 121.232 68.1958C109.866 68.1958 100.708 58.9512 100.708 47.4721Z" fill="#769ACA"/>
<path id="Vector_4" d="M116.972 52.0934C110.815 51.6159 106.395 49.7027 106.395 47.6304C106.395 45.0804 113.025 42.8489 121.235 42.8489C122.814 42.8489 124.393 43.0081 125.812 43.1672L116.972 52.0934Z" fill="white"/>
<path id="Vector_5" d="M116.814 47.6317C116.814 39.3421 118.867 32.6475 121.392 32.6475C124.075 32.6475 126.127 39.3421 126.127 47.6317C126.127 55.9211 124.075 62.6158 121.392 62.6158C118.867 62.6188 116.814 55.9211 116.814 47.6317Z" fill="#0C0E0F"/>
<path id="Vector_6" d="M125.812 43.1677C131.812 43.8044 136.074 45.5584 136.074 47.6308C136.074 50.1807 129.444 52.4123 121.235 52.4123C119.813 52.4123 118.394 52.2531 116.972 52.0939L125.812 43.1677Z" fill="white"/>
</g>
</svg>
