<svg width="240" height="121" viewBox="0 0 240 121" fill="none" xmlns="http://www.w3.org/2000/svg">
<g id="36.svg">
<path id="Vector" d="M77.1165 54.0122C76.5415 54.2831 76.0923 54.6985 75.7149 55.0416C74.1514 56.4141 73.5764 59.0146 73.7201 60.2427C74.0795 63.078 75.6071 64.6853 77.7994 65.498C80.2433 66.0578 82.0582 65.6424 83.37 64.3602C84.2325 63.6018 84.5739 62.771 84.8794 61.9945H92.7501C92.4626 67.2137 88.1499 71.7104 84.1247 72.9565C79.6323 74.4193 74.3131 73.9137 70.9169 69.9948C68.3652 66.7441 68.473 63.5837 69.5871 60.4233C70.27 58.1297 71.8693 56.2877 73.3607 55.2764C74.403 54.5901 75.679 54.0122 77.1165 54.0122Z" fill="#06415D"/>
<path id="Vector_2" d="M92.0673 53.4543C92.5525 54.5559 92.858 56.0188 92.9478 57.2648H84.7537C84.1247 55.3505 83.3341 54.6643 82.5254 53.9419C82.0941 53.6529 81.609 53.3099 80.9441 53.1473C78.069 52.461 75.2118 53.0751 72.7679 54.6824C72.3906 54.9171 71.9593 55.3145 71.2944 55.8743C68.545 58.6373 67.6466 62.5924 68.2036 66.6377C66.3707 63.5134 65.5441 58.7818 66.9098 55.1339C68.6888 49.6618 73.0195 46.5917 78.7877 46.0319C86.6045 45.8874 90.6477 49.6438 92.0673 53.4543Z" fill="#06415D"/>
<path id="Vector_3" d="M106.587 49.4456C105.311 48.3801 103.622 48.1453 102.364 48.1453C99.5247 48.1453 98.6981 50.3847 98.6981 52.8408C98.6981 55.64 100.082 57.9154 103.19 57.9154C105.149 57.9154 106.695 57.3918 108.078 56.6513L106.766 59.5588C105.293 59.92 103.891 60.0465 102.508 60.0465C100.387 60.0465 98.6082 59.7034 96.9371 58.2948C95.3378 56.9764 94.4752 55.0621 94.4752 53.0033C94.4752 51.1432 95.2839 49.1567 96.7394 47.9106C98.3207 46.5922 100.908 45.6351 105.149 46.4116L105.67 46.5741L106.587 49.4456Z" fill="#06415D"/>
<path id="Vector_4" d="M112.391 57.5164C113.074 57.7873 114.727 57.8776 115.446 57.8235C116.811 57.7151 117.494 57.6429 118.483 56.7037H118.59L117.764 59.7738H108.024L107.899 59.7197C108.923 59.0876 108.671 57.9498 108.671 56.9024V49.3175C108.671 48.27 108.887 47.0961 107.863 46.5002V46.446H115.949C116.129 46.446 116.47 46.446 116.704 46.3376H116.776L117.279 49.2813H117.207C116.65 48.3242 114.961 48.4325 113.954 48.4325H112.427V51.6652H114.601H115.374H115.482V53.5614C114.817 53.5434 114.134 53.5253 113.361 53.5253H112.427V57.5164H112.391Z" fill="#06415D"/>
<path id="Vector_5" d="M131.151 60.2444C130.414 60.2444 129.408 59.6665 128.779 59.3776C127.234 58.6191 126.838 57.9328 125.832 56.6325L121.843 51.4314H121.771V56.7951C121.771 57.9689 121.537 58.8899 122.436 59.7207H118.914C119.83 58.8899 119.723 58.0231 119.723 56.8493V49.8422C119.723 48.271 119.507 47.675 118.393 46.447V46.3928H122.723V46.447L129.103 54.6099V49.3546C129.103 48.1807 129.336 47.2778 128.438 46.447V46.3928H131.942V46.447C131.043 47.2778 131.151 48.2349 131.151 49.4087V60.2444Z" fill="#06415D"/>
<path id="Vector_6" d="M137.764 57.4625C138.609 57.8598 138.878 57.8779 139.956 57.8057C141.088 57.7154 142.616 57.5528 143.532 56.8846L142.131 59.7561H133.074V59.7019C134.098 59.0699 133.954 57.9321 133.954 56.8846V49.3177C133.954 48.2703 134.098 47.0964 133.074 46.4824V46.4282H138.663V46.4824C137.638 47.1144 137.782 48.2703 137.782 49.3538V57.4625H137.764Z" fill="#06415D"/>
<path id="Vector_7" d="M149.193 49.8417H149.175L147.809 53.8328H150.63L149.193 49.8417ZM147.198 55.7291L146.695 57.1017C146.551 57.517 146.318 58.131 146.318 58.5645C146.318 59.1243 146.695 59.3952 147.072 59.7022V59.7564H142.813V59.7022C143.604 58.9979 143.874 58.4019 144.251 57.3725L147.126 49.2638C147.252 48.8665 147.575 48.0719 147.575 47.6385C147.575 47.0967 147.198 46.7175 146.785 46.4646V46.4104H151.87L155.806 56.8668C156.309 58.1671 156.416 58.6367 157.585 59.7022V59.7383V59.7564H151.547V59.7022C152.032 59.3952 152.158 59.1062 152.158 58.4561C152.158 58.113 152.122 58.0046 151.996 57.6795L151.313 55.711L147.198 55.7291Z" fill="#06415D"/>
<path id="Vector_8" d="M162.886 52.8212C166.264 52.9477 166.264 50.636 166.264 50.636C166.066 49.5164 166.39 47.873 162.76 48.2703H162.562V56.8485C162.562 57.896 162.418 59.0699 163.443 59.6838V59.738H157.854V59.7019C158.878 59.0699 158.735 57.914 158.735 56.8666V49.3177C158.735 48.2703 158.878 47.0964 157.854 46.4824V46.4282H164.251C165.276 46.4282 166.228 46.4463 167.162 46.9338C168.384 47.584 169.247 48.5051 169.211 50.0762C169.175 51.5932 168.276 52.749 166.713 53.2186L168.654 57.2277C169.211 58.1488 169.984 59.124 171.026 59.72L168.438 59.8464C167.037 59.9367 166.372 59.738 165.653 58.4919L162.886 52.8212Z" fill="#06415D"/>
<path id="Vector_9" d="M95.6792 66.491C95.4815 66.3104 95.2479 66.202 94.9963 66.202C94.4932 66.202 94.1517 66.7077 94.1517 67.43C94.1517 68.1524 94.5111 68.8025 95.0862 68.8025C95.3557 68.8025 95.6252 68.6762 95.8589 68.4956H95.8768L95.6971 69.0734C95.5174 69.1818 95.3377 69.2179 95.1401 69.2179C94.2775 69.2179 93.7564 68.5678 93.7564 67.5023C93.7564 66.4729 94.2775 65.8047 95.0323 65.8047C95.2479 65.8047 95.4815 65.8589 95.6971 65.9311V66.491H95.6792Z" fill="#06415D"/>
<path id="Vector_10" d="M96.5417 68.7144L97.0089 68.7686C97.2425 68.8047 97.4941 68.6964 97.6918 68.4797H97.7097L97.548 69.1298H96.0206V69.1118C96.2003 69.0215 96.1823 68.6603 96.1823 68.4255V66.5654C96.1823 66.3306 96.2003 65.9694 96.0206 65.8791V65.8611H97.1886L97.3683 65.843H97.3863V66.4209H97.3324C97.2246 66.2403 97.0628 66.2223 96.9011 66.2223C96.7753 66.2223 96.6495 66.2223 96.5238 66.2583V67.1794H96.955L97.1167 67.1433H97.1347V67.667H97.1167C97.0628 67.5225 96.9011 67.5225 96.7933 67.5225H96.5238V68.7144H96.5417Z" fill="#06415D"/>
<path id="Vector_11" d="M98.3207 68.4968C98.3207 68.7677 98.3207 68.9663 98.5184 69.1289V69.1469H97.8715V69.1289C98.0691 68.9844 98.0691 68.7857 98.0691 68.4968V66.5102C98.0691 66.2393 98.0691 66.0407 97.8715 65.8782V65.8601H98.4105L98.4645 65.9866L98.5184 66.0949L99.8481 68.3884V66.5102C99.8481 66.2393 99.8481 66.0407 99.6504 65.8782V65.8601H100.297V65.8782C100.1 66.0227 100.1 66.2213 100.1 66.5102V69.2914C99.8481 69.165 99.7223 69.0025 99.5606 68.7316L98.3027 66.5644V68.4968H98.3207Z" fill="#06415D"/>
<path id="Vector_12" d="M101.376 68.498C101.376 68.787 101.376 68.9676 101.573 69.1301V69.1482H100.854V69.1301C101.034 69.0398 101.016 68.6786 101.016 68.4438V66.2225H100.693C100.531 66.2225 100.369 66.2767 100.261 66.4212H100.243L100.369 65.8252H100.387L100.531 65.8614H100.621H101.986L102.148 65.8252H102.166L102.058 66.4212H102.04C101.986 66.2406 101.843 66.2225 101.735 66.2225H101.411V68.498H101.376Z" fill="#06415D"/>
<path id="Vector_13" d="M103.065 65.8782C103.55 65.8782 103.819 66.2213 103.819 66.6728C103.819 67.1062 103.532 67.4494 103.244 67.5397L103.765 68.4426C103.927 68.6954 104.143 68.9663 104.358 69.1289H104.017C103.819 69.1289 103.694 69.0566 103.586 68.876L103.137 68.1175L102.795 67.4132C103.083 67.3591 103.424 67.1604 103.424 66.7089C103.424 66.3477 103.19 66.149 102.957 66.1672C102.867 66.1672 102.795 66.1852 102.705 66.2033V68.4245C102.705 68.6593 102.687 69.0205 102.867 69.1108V69.1289H102.184V69.1108C102.364 69.0205 102.346 68.6593 102.346 68.4245V66.5644C102.346 66.3296 102.364 65.9685 102.184 65.8782V65.8601L103.065 65.8782Z" fill="#06415D"/>
<path id="Vector_14" d="M105.742 67.9187L105.94 68.623C106.03 68.9662 106.066 69.0203 105.886 69.1286V69.1468H106.641V69.1286C106.425 68.9842 106.371 68.7133 106.281 68.4244L105.527 65.8779H104.951V65.896C105.131 65.9682 105.059 66.185 105.005 66.3656L104.394 68.4424C104.323 68.7314 104.251 69.0023 104.035 69.1468V69.1648H104.7V69.1468C104.52 69.0565 104.556 68.912 104.628 68.6411L104.826 67.9367H105.742V67.9187ZM105.634 67.5394H104.916L105.275 66.2933L105.634 67.5394Z" fill="#06415D"/>
<path id="Vector_15" d="M107.827 68.7857C108.078 68.8038 108.294 68.6954 108.474 68.4787H108.491L108.294 69.1469H106.802V69.1289C106.982 69.0386 106.964 68.6774 106.964 68.4426V66.5644C106.964 66.3296 106.982 65.9685 106.802 65.8782V65.8601H107.503V65.8782C107.323 65.9685 107.341 66.3478 107.341 66.5644V68.7316L107.827 68.7857Z" fill="#06415D"/>
<path id="Vector_16" d="M110.738 68.7857C110.989 68.8038 111.205 68.6954 111.385 68.4787H111.403L111.205 69.1469H109.713V69.1289C109.893 69.0386 109.875 68.6774 109.875 68.4426V66.5644C109.875 66.3296 109.893 65.9685 109.713 65.8782V65.8601H110.414V65.8782C110.235 65.9685 110.253 66.3478 110.253 66.5644V68.7316L110.738 68.7857Z" fill="#06415D"/>
<path id="Vector_17" d="M112.912 65.7877C112.139 65.7695 111.546 66.5461 111.546 67.5033C111.546 68.5146 112.157 69.219 112.876 69.219C113.595 69.219 114.224 68.4785 114.224 67.4672C114.206 66.5822 113.667 65.7877 112.912 65.7877ZM112.876 66.1489C113.451 66.1489 113.793 66.8531 113.793 67.5755C113.793 68.316 113.433 68.8578 112.876 68.8578C112.301 68.8578 111.942 68.1354 111.942 67.4491C111.96 66.7087 112.319 66.1489 112.876 66.1489Z" fill="#06415D"/>
<path id="Vector_18" d="M116.021 67.9187L116.218 68.623C116.308 68.9662 116.344 69.0203 116.165 69.1286V69.1468H116.919V69.1286C116.704 68.9842 116.65 68.7133 116.56 68.4244L115.805 65.8779H115.23V65.896C115.41 65.9682 115.338 66.185 115.284 66.3656L114.673 68.4424C114.601 68.7314 114.529 69.0023 114.314 69.1468V69.1648H114.979V69.1468C114.799 69.0565 114.835 68.912 114.907 68.6411L115.104 67.9367H116.021V67.9187ZM115.913 67.5394H115.194L115.554 66.2933L115.913 67.5394Z" fill="#06415D"/>
<path id="Vector_19" d="M117.494 68.4968C117.494 68.7677 117.494 68.9663 117.692 69.1289V69.1469H117.045V69.1289C117.243 68.9844 117.243 68.7857 117.243 68.4968V66.5102C117.243 66.2393 117.243 66.0407 117.045 65.8782V65.8601H117.584L117.638 65.9866L117.692 66.0949L119.022 68.3884V66.5102C119.022 66.2393 119.022 66.0407 118.824 65.8782V65.8601H119.471V65.8782C119.273 66.0227 119.273 66.2213 119.273 66.5102V69.2914C119.022 69.165 118.896 69.0025 118.734 68.7316L117.476 66.5644V68.4968H117.494Z" fill="#06415D"/>
<path id="Vector_20" d="M122.292 67.9187L122.49 68.623C122.58 68.9662 122.616 69.0203 122.436 69.1286V69.1468H123.191V69.1286C122.975 68.9842 122.921 68.7133 122.831 68.4244L122.077 65.8779H121.502V65.896C121.681 65.9682 121.609 66.185 121.555 66.3656L120.944 68.4424C120.873 68.7314 120.801 69.0023 120.585 69.1468V69.1648H121.25V69.1468C121.07 69.0565 121.106 68.912 121.178 68.6411L121.376 67.9367H122.292V67.9187ZM122.202 67.5394H121.484L121.843 66.2933L122.202 67.5394Z" fill="#06415D"/>
<path id="Vector_21" d="M123.496 68.4244C123.496 68.7133 123.514 68.948 123.334 69.1286V69.1468H124.215C125.024 69.1468 125.581 68.4605 125.581 67.4852C125.581 66.492 125.059 65.8779 124.233 65.8779H123.334V65.896C123.514 65.9682 123.496 66.3294 123.496 66.5642V68.4244ZM123.856 66.2933C123.963 66.2572 124.071 66.2391 124.179 66.2391C124.79 66.2391 125.149 66.6726 125.149 67.5394C125.149 68.4063 124.664 68.7856 124.125 68.7856C124.035 68.7856 123.945 68.7856 123.856 68.7494V66.2933Z" fill="#06415D"/>
<path id="Vector_22" d="M127.971 66.185C128.007 66.0766 128.024 65.9863 128.024 65.8779H128.653V65.896C128.564 65.9321 128.546 66.0766 128.546 66.185L128.779 68.623C128.797 68.8577 128.815 68.9842 128.959 69.1286V69.1468H128.258V69.1286C128.384 69.0745 128.402 68.93 128.402 68.7494L128.186 66.3656L127.378 69.2189C127.198 69.0383 127.144 68.8939 127.054 68.623L126.353 66.3836L126.138 68.5147C126.102 68.8217 126.084 69.0383 126.263 69.1468V69.1648H125.67V69.1468C125.832 68.9662 125.85 68.7133 125.868 68.4605L126.084 66.3836C126.102 66.2391 126.138 66.0405 125.976 65.9141V65.896H126.623C126.623 65.9682 126.659 66.0586 126.677 66.1127L127.36 68.2979L127.971 66.185Z" fill="#06415D"/>
<path id="Vector_23" d="M129.264 66.5644C129.264 66.3296 129.282 65.9685 129.103 65.8782V65.8601H129.803V65.8782C129.624 65.9685 129.642 66.3478 129.642 66.5644V68.4426C129.642 68.6593 129.624 69.0205 129.803 69.1289V69.1469H129.103V69.1289C129.282 69.0386 129.264 68.6774 129.264 68.4426V66.5644Z" fill="#06415D"/>
<path id="Vector_24" d="M130.486 68.4968C130.486 68.7677 130.486 68.9663 130.684 69.1289V69.1469H130.037V69.1289C130.235 68.9844 130.235 68.7857 130.235 68.4968V66.5102C130.235 66.2393 130.235 66.0407 130.037 65.8782V65.8601H130.576L130.63 65.9866L130.684 66.0949L132.014 68.3884V66.5102C132.014 66.2393 132.014 66.0407 131.816 65.8782V65.8601H132.463V65.8782C132.265 66.0227 132.265 66.2213 132.265 66.5102V69.2914C132.014 69.165 131.888 69.0025 131.726 68.7316L130.468 66.5644V68.4968H130.486Z" fill="#06415D"/>
<path id="Vector_25" d="M132.822 66.5644C132.822 66.3296 132.84 65.9685 132.661 65.8782V65.8601H133.361V65.8782C133.182 65.9685 133.2 66.3478 133.2 66.5644V68.4426C133.2 68.6593 133.182 69.0205 133.361 69.1289V69.1469H132.661V69.1289C132.84 69.0386 132.822 68.6774 132.822 68.4426V66.5644Z" fill="#06415D"/>
<path id="Vector_26" d="M135.051 66.4548C134.907 66.2562 134.691 66.1478 134.476 66.1478C134.26 66.1478 134.008 66.2562 134.008 66.5993C134.008 67.2855 135.266 67.2675 135.266 68.1885C135.266 68.7122 134.853 69.2179 134.296 69.2179C134.08 69.2179 133.847 69.1818 133.649 69.0734L133.541 68.4594C133.757 68.7122 134.044 68.8748 134.332 68.8748C134.547 68.8748 134.853 68.7122 134.853 68.3511C134.853 67.5745 133.595 67.719 133.595 66.6716C133.595 66.0395 134.062 65.8047 134.512 65.8047C134.691 65.8047 134.871 65.8408 135.051 65.913V66.4548Z" fill="#06415D"/>
<path id="Vector_27" d="M136.38 68.498C136.38 68.787 136.38 68.9676 136.578 69.1301V69.1482H135.859V69.1301C136.039 69.0398 136.021 68.6786 136.021 68.4438V66.2225H135.698C135.536 66.2225 135.374 66.2767 135.266 66.4212H135.248L135.374 65.8252H135.392L135.536 65.8614H135.626H136.991L137.153 65.8252H137.171L137.063 66.4212H137.045C136.991 66.2406 136.848 66.2225 136.74 66.2225H136.416V68.498H136.38Z" fill="#06415D"/>
<path id="Vector_28" d="M138.069 65.8782C138.555 65.8782 138.824 66.2213 138.824 66.6728C138.824 67.1062 138.537 67.4494 138.249 67.5397L138.77 68.4426C138.932 68.6954 139.148 68.9663 139.363 69.1289H139.022C138.824 69.1289 138.698 69.0566 138.591 68.876L138.141 68.1175L137.8 67.4132C138.087 67.3591 138.429 67.1604 138.429 66.7089C138.429 66.3477 138.195 66.149 137.962 66.1672C137.872 66.1672 137.8 66.1852 137.71 66.2033V68.4245C137.71 68.6593 137.692 69.0205 137.872 69.1108V69.1289H137.171V69.1108C137.351 69.0205 137.333 68.6593 137.333 68.4245V66.5644C137.333 66.3296 137.351 65.9685 137.171 65.8782V65.8601L138.069 65.8782Z" fill="#06415D"/>
<path id="Vector_29" d="M140.747 67.9187L140.945 68.623C141.034 68.9662 141.07 69.0203 140.891 69.1286V69.1468H141.645V69.1286C141.43 68.9842 141.376 68.7133 141.286 68.4244L140.531 65.8779H139.956V65.896C140.136 65.9682 140.064 66.185 140.01 66.3656L139.399 68.4424C139.327 68.7314 139.255 69.0023 139.04 69.1468V69.1648H139.705V69.1468C139.525 69.0565 139.561 68.912 139.633 68.6411L139.831 67.9367H140.747V67.9187ZM140.657 67.5394H139.938L140.298 66.2933L140.657 67.5394Z" fill="#06415D"/>
<path id="Vector_30" d="M142.652 68.498C142.652 68.787 142.652 68.9676 142.849 69.1301V69.1482H142.131V69.1301C142.31 69.0398 142.292 68.6786 142.292 68.4438V66.2225H141.969C141.807 66.2225 141.645 66.2767 141.538 66.4212H141.52L141.645 65.8252H141.663L141.807 65.8614H141.897H143.263L143.424 65.8252H143.442L143.335 66.4212H143.317C143.263 66.2406 143.119 66.2225 143.011 66.2225H142.688V68.498H142.652Z" fill="#06415D"/>
<path id="Vector_31" d="M143.622 66.5644C143.622 66.3296 143.64 65.9685 143.46 65.8782V65.8601H144.161V65.8782C143.982 65.9685 143.999 66.3478 143.999 66.5644V68.4426C143.999 68.6593 143.982 69.0205 144.161 69.1289V69.1469H143.46V69.1289C143.64 69.0386 143.622 68.6774 143.622 68.4426V66.5644Z" fill="#06415D"/>
<path id="Vector_32" d="M145.725 65.7877C144.952 65.7695 144.359 66.5461 144.359 67.5033C144.359 68.5146 144.97 69.219 145.689 69.219C146.407 69.219 147.036 68.4785 147.036 67.4672C147.036 66.5822 146.497 65.7877 145.725 65.7877ZM145.707 66.1489C146.282 66.1489 146.623 66.8531 146.623 67.5755C146.623 68.316 146.264 68.8578 145.707 68.8578C145.132 68.8578 144.772 68.1354 144.772 67.4491C144.772 66.7087 145.15 66.1489 145.707 66.1489Z" fill="#06415D"/>
<path id="Vector_33" d="M147.701 68.4968C147.701 68.7677 147.701 68.9663 147.899 69.1289V69.1469H147.252V69.1289C147.45 68.9844 147.45 68.7857 147.45 68.4968V66.5102C147.45 66.2393 147.45 66.0407 147.252 65.8782V65.8601H147.791L147.845 65.9866L147.899 66.0949L149.229 68.3884V66.5102C149.229 66.2393 149.229 66.0407 149.031 65.8782V65.8601H149.678V65.8782C149.48 66.0227 149.48 66.2213 149.48 66.5102V69.2914C149.229 69.165 149.103 69.0025 148.941 68.7316L147.683 66.5644V68.4968H147.701Z" fill="#06415D"/>
<path id="Vector_34" d="M152.391 68.4424C152.266 68.6771 152.086 68.8757 151.852 68.8757C151.565 68.8757 151.349 68.641 151.349 68.2256C151.349 67.9186 151.493 67.6658 151.673 67.4852L152.391 68.4424ZM153.721 69.1286C153.038 68.6771 152.499 67.9186 151.96 67.1962C152.122 66.9976 152.283 66.7808 152.283 66.4558C152.283 66.0404 152.05 65.7695 151.762 65.7695C151.475 65.7695 151.187 66.0404 151.187 66.4558C151.187 66.7267 151.349 66.9614 151.475 67.1602C151.205 67.4491 150.972 67.738 150.972 68.2256C150.972 68.8396 151.385 69.1828 151.798 69.1828C152.14 69.1828 152.373 69.0022 152.553 68.6048C152.661 68.7493 152.859 68.948 152.984 69.0383C153.092 69.1105 153.2 69.1105 153.326 69.1105H153.721V69.1286ZM151.744 66.9253C151.655 66.799 151.493 66.6003 151.493 66.4016C151.493 66.221 151.601 66.1127 151.726 66.1127C151.87 66.1127 151.978 66.221 151.978 66.4197C151.978 66.6184 151.852 66.799 151.744 66.9253Z" fill="#06415D"/>
<path id="Vector_35" d="M155.644 65.8782C156.129 65.8782 156.399 66.2213 156.399 66.6728C156.399 67.1062 156.111 67.4494 155.824 67.5397L156.345 68.4426C156.506 68.6954 156.722 68.9663 156.938 69.1289H156.596C156.399 69.1289 156.273 69.0566 156.165 68.876L155.716 68.1175L155.374 67.4132C155.662 67.3591 156.003 67.1604 156.003 66.7089C156.003 66.3477 155.77 66.149 155.536 66.1672C155.446 66.1672 155.374 66.1852 155.284 66.2033V68.4245C155.284 68.6593 155.266 69.0205 155.446 69.1108V69.1289H154.745V69.1108C154.925 69.0205 154.907 68.6593 154.907 68.4245V66.5644C154.907 66.3296 154.925 65.9685 154.745 65.8782V65.8601L155.644 65.8782Z" fill="#06415D"/>
<path id="Vector_36" d="M157.297 68.7144L157.764 68.7686C157.998 68.8047 158.249 68.6964 158.447 68.4797H158.465L158.303 69.1298H156.776V69.1118C156.956 69.0215 156.938 68.6603 156.938 68.4255V66.5654C156.938 66.3306 156.956 65.9694 156.776 65.8791V65.8611H157.944L158.124 65.843H158.142V66.4209H158.124C158.016 66.2403 157.854 66.2223 157.692 66.2223C157.567 66.2223 157.441 66.2223 157.315 66.2583V67.1794H157.746L157.908 67.1433H157.926V67.667H157.89C157.836 67.5225 157.674 67.5225 157.567 67.5225H157.297V68.7144Z" fill="#06415D"/>
<path id="Vector_37" d="M159.561 65.8782C160.028 65.8782 160.388 66.1852 160.388 66.745C160.388 67.3229 159.992 67.6841 159.579 67.6841C159.489 67.6841 159.399 67.6661 159.31 67.6118C159.633 67.5938 159.957 67.3229 159.957 66.8534C159.957 66.4199 159.723 66.2393 159.435 66.2393C159.346 66.2393 159.256 66.2575 159.184 66.2755V68.5148C159.184 68.7857 159.184 68.9844 159.381 69.1469V69.165H158.663V69.1469C158.842 69.0566 158.824 68.6954 158.824 68.4607V66.5644C158.824 66.3478 158.842 65.9866 158.663 65.8782V65.8601L159.561 65.8782Z" fill="#06415D"/>
<path id="Vector_38" d="M161.861 65.7877C161.089 65.7695 160.496 66.5461 160.496 67.5033C160.496 68.5146 161.107 69.219 161.825 69.219C162.544 69.219 163.173 68.4785 163.173 67.4672C163.155 66.5822 162.616 65.7877 161.861 65.7877ZM161.825 66.1489C162.4 66.1489 162.742 66.8531 162.742 67.5755C162.742 68.316 162.382 68.8578 161.825 68.8578C161.25 68.8578 160.891 68.1354 160.891 67.4491C160.891 66.7087 161.268 66.1489 161.825 66.1489Z" fill="#06415D"/>
<path id="Vector_39" d="M164.251 65.8782C164.736 65.8782 165.006 66.2213 165.006 66.6728C165.006 67.1062 164.718 67.4494 164.431 67.5397L164.952 68.4426C165.114 68.6954 165.329 68.9663 165.545 69.1289H165.204C165.006 69.1289 164.88 69.0566 164.772 68.876L164.323 68.1175L163.982 67.4132C164.269 67.3591 164.611 67.1604 164.611 66.7089C164.611 66.3477 164.377 66.149 164.143 66.1672C164.054 66.1672 163.982 66.1852 163.892 66.2033V68.4245C163.892 68.6593 163.874 69.0205 164.054 69.1108V69.1289H163.353V69.1108C163.532 69.0205 163.514 68.6593 163.514 68.4245V66.5644C163.514 66.3296 163.532 65.9685 163.353 65.8782V65.8601L164.251 65.8782Z" fill="#06415D"/>
<path id="Vector_40" d="M166.228 68.498C166.228 68.787 166.228 68.9676 166.426 69.1301V69.1482H165.707V69.1301C165.886 69.0398 165.869 68.6786 165.869 68.4438V66.2225H165.545C165.383 66.2225 165.222 66.2767 165.114 66.4212H165.078L165.204 65.8252H165.222L165.365 65.8614H165.455H166.821L166.983 65.8252H167.001L166.875 66.4212H166.857C166.803 66.2406 166.659 66.2225 166.551 66.2225H166.228V68.498Z" fill="#06415D"/>
<path id="Vector_41" d="M167.18 66.5644C167.18 66.3296 167.198 65.9685 167.019 65.8782V65.8601H167.719V65.8782C167.54 65.9685 167.558 66.3478 167.558 66.5644V68.4426C167.558 68.6593 167.54 69.0205 167.719 69.1289V69.1469H167.019V69.1289C167.198 69.0386 167.18 68.6774 167.18 68.4426V66.5644Z" fill="#06415D"/>
<path id="Vector_42" d="M168.42 68.4968C168.42 68.7677 168.42 68.9663 168.618 69.1289V69.1469H167.971V69.1289C168.169 68.9844 168.169 68.7857 168.169 68.4968V66.5102C168.169 66.2393 168.169 66.0407 167.971 65.8782V65.8601H168.51L168.564 65.9866L168.618 66.0949L169.948 68.3884V66.5102C169.948 66.2393 169.948 66.0407 169.75 65.8782V65.8601H170.397V65.8782C170.199 66.0227 170.199 66.2213 170.199 66.5102V69.2914C169.948 69.165 169.822 69.0025 169.66 68.7316L168.402 66.5644L168.42 68.4968Z" fill="#06415D"/>
<path id="Vector_43" d="M172.625 66.4558C172.463 66.221 172.194 66.1488 171.96 66.1488C171.385 66.1488 170.954 66.6545 170.954 67.4491C170.954 68.2436 171.421 68.8577 171.996 68.8577C172.158 68.8577 172.338 68.8216 172.499 68.7674V68.045C172.499 67.8103 172.499 67.5755 172.338 67.4852V67.4671H172.895V67.4852C172.877 67.5394 172.877 67.6297 172.877 67.7019V68.8396C172.877 68.9119 172.877 69.0022 172.895 69.0563C172.607 69.1286 172.32 69.2008 172.032 69.2008C171.098 69.2008 170.559 68.5145 170.559 67.5032C170.559 66.4378 171.188 65.7695 172.068 65.7695C172.266 65.7695 172.445 65.8057 172.643 65.8598L172.625 66.4558Z" fill="#06415D"/>
<path id="Vector_44" d="M172.463 55.0975C172.463 55.2239 172.463 55.3323 172.553 55.4226H171.96C172.068 55.3503 172.05 55.2239 172.05 55.1155V54.2668C172.05 54.1404 172.068 54.0139 171.96 53.9598H172.733L172.823 53.9417V54.2668C172.769 54.1584 172.643 54.1765 172.535 54.1765H172.463V54.5376H172.625L172.715 54.5196H172.733V54.8446H172.715C172.679 54.7543 172.589 54.7543 172.517 54.7543H172.481V55.0975H172.463Z" fill="#06415D"/>
<path id="Vector_45" d="M171.834 57.2996C171.96 57.408 172.14 57.4802 172.302 57.4802C172.409 57.4802 172.535 57.4441 172.535 57.3177C172.535 57.0468 171.852 57.1009 171.852 56.5953C171.852 56.4688 171.906 56.3425 172.014 56.2702C172.122 56.198 172.266 56.1619 172.392 56.1619C172.517 56.1619 172.643 56.1799 172.769 56.2341V56.505C172.679 56.4508 172.571 56.3966 172.463 56.3966C172.374 56.3966 172.266 56.4328 172.266 56.5411C172.266 56.6494 172.391 56.6856 172.481 56.7217C172.589 56.7759 172.679 56.812 172.769 56.8842C172.877 56.9745 172.931 57.0829 172.931 57.2274C172.931 57.3718 172.877 57.4983 172.751 57.5886C172.625 57.6789 172.481 57.6969 172.32 57.6969C172.176 57.6969 172.032 57.6789 171.888 57.6247L171.834 57.2996Z" fill="#06415D"/>
<path id="Vector_46" d="M172.284 59.2135H172.338C172.499 59.2135 172.589 59.2858 172.589 59.4664C172.589 59.5928 172.535 59.7192 172.391 59.7192L172.302 59.6831V59.2135H172.284ZM171.798 58.437C171.906 58.5092 171.888 58.6356 171.888 58.762V59.6108C171.888 59.7373 171.906 59.8637 171.798 59.9359H172.445C172.607 59.9359 172.715 59.9359 172.841 59.8276C172.949 59.7373 173.002 59.6108 173.002 59.4844C173.002 59.2858 172.877 59.1232 172.679 59.1052C172.805 59.051 172.913 58.9787 172.913 58.8162C172.913 58.7078 172.859 58.6175 172.769 58.5454C172.679 58.4731 172.571 58.4731 172.463 58.4731L171.798 58.437ZM172.284 58.6717L172.356 58.6537C172.445 58.6537 172.499 58.744 172.499 58.8343C172.499 58.9246 172.445 59.0329 172.338 59.0329H172.302L172.284 58.6717Z" fill="#06415D"/>
<path id="Vector_47" d="M172.931 61.959H93.6486C93.6306 62.284 93.6127 62.4466 93.5767 62.6633L93.5408 62.9883H172.913" fill="#06415D"/>
<path id="Vector_48" d="M171.781 47.7828V47.1146H172.23C172.463 47.1146 172.697 47.1688 172.697 47.4397C172.697 47.7828 172.445 47.8008 172.176 47.8008H171.781V47.7828ZM171.781 48.0537H172.158L172.715 48.9928H173.074L172.463 48.0356C172.769 47.9995 173.02 47.8189 173.02 47.4397C173.02 47.0062 172.769 46.8256 172.266 46.8256H171.457V49.0108H171.781V48.0537ZM172.176 49.8054C173.182 49.8054 174.045 49.0108 174.045 47.9092C174.045 46.8256 173.182 46.0129 172.176 46.0129C171.152 46.0129 170.289 46.8076 170.289 47.9092C170.289 48.9928 171.152 49.8054 172.176 49.8054ZM170.648 47.9092C170.648 47.0062 171.313 46.338 172.158 46.338C173.002 46.338 173.667 47.0062 173.667 47.9092C173.667 48.8122 173.002 49.4984 172.158 49.4984C171.313 49.4803 170.648 48.8122 170.648 47.9092Z" fill="#06415D"/>
</g>
</svg>
