<svg width="241" height="121" viewBox="0 0 241 121" fill="none" xmlns="http://www.w3.org/2000/svg">
<g id="38.svg">
<path id="Vector" d="M72.7424 72.9679C79.9317 72.9679 85.759 67.1016 85.759 59.8651C85.759 52.6285 79.9317 46.7622 72.7424 46.7622C65.5534 46.7622 59.7256 52.6285 59.7256 59.8651C59.7256 67.1016 65.5534 72.9679 72.7424 72.9679Z" fill="#2DB670"/>
<path id="Vector_2" d="M78.4221 54.6145H71.5498V64.1771H78.4221V54.6145Z" fill="#6D6E71"/>
<path id="Vector_3" d="M80.5239 54.6959C78.5232 51.8271 75.4103 51.8271 73.672 51.8271H68.5381V66.8629C69.7104 67.0867 70.9029 66.924 72.0753 66.9036C72.1359 66.9036 72.2167 66.924 72.2572 66.985C72.3582 66.985 72.4593 67.046 72.4997 67.1681H73.9551C79.8365 67.1681 81.939 63.6482 81.939 59.4569C81.939 57.7886 81.5751 56.1405 80.5239 54.6959ZM74.2582 63.8313H72.5604V55.3674H74.2784C76.0367 55.3674 76.8251 56.0998 77.2901 56.7713C77.8561 57.6462 78.0381 58.7449 78.0381 59.6197C78.0583 61.7967 77.2092 63.8313 74.2582 63.8313Z" fill="white"/>
<path id="Vector_4" d="M64.7585 51.8271H68.5786V63.7093L72.4594 63.7296V67.1478L64.7585 67.1274V51.8271Z" fill="#6D6E71"/>
<path id="Vector_5" d="M88.4275 52.0935H89.9631V65.7457H95.9261V67.2106H88.4275V52.0935Z" fill="#6D6E71"/>
<path id="Vector_6" d="M106.659 63.3846L107.892 64.0153C107.487 64.7885 107.022 65.4192 106.477 65.9075C105.952 66.3755 105.345 66.7621 104.678 67.0061C104.011 67.2503 103.263 67.3928 102.414 67.3928C100.555 67.3928 99.079 66.8027 98.0278 65.6023C96.9773 64.4019 96.4517 63.059 96.4517 61.5534C96.4315 60.1699 96.9167 58.827 97.7859 57.7691C98.9173 56.3652 100.433 55.6531 102.314 55.6531C104.254 55.6531 105.83 56.3856 106.982 57.8301C107.811 58.8474 108.235 60.1292 108.235 61.6552H97.9469C97.9671 62.9573 98.3917 64.0153 99.2205 64.8495C100.049 65.6836 101.06 66.0906 102.273 66.0906C102.859 66.0906 103.425 65.9889 103.97 65.7854C104.476 65.6023 104.961 65.3378 105.365 64.9919C105.79 64.6461 106.214 64.117 106.659 63.3846ZM106.76 60.5158C106.558 59.7427 106.275 59.1322 105.911 58.6846C105.507 58.1963 105.001 57.8301 104.415 57.5656C103.809 57.2807 103.142 57.1383 102.475 57.1383C101.343 57.1383 100.393 57.4843 99.5844 58.1963C98.9981 58.705 98.5534 59.4781 98.2502 60.5158H106.76Z" fill="#6D6E71"/>
<path id="Vector_7" d="M121.474 55.9186V67.0886H120.02V65.1761C119.393 65.9086 118.706 66.4579 117.937 66.8241C117.149 67.1903 116.28 67.3938 115.411 67.3735C113.794 67.3735 112.399 66.8037 111.268 65.644C110.136 64.4843 109.549 63.1008 109.549 61.4528C109.549 59.8454 110.136 58.4619 111.288 57.3225C112.439 56.1831 113.834 55.6135 115.472 55.6135C116.361 55.5931 117.23 55.7965 118.018 56.2035C118.786 56.59 119.454 57.1801 120.02 57.9735V55.9186H121.474ZM115.613 57.1597C114.825 57.1597 114.037 57.3632 113.349 57.7497C111.954 58.5636 111.086 60.0489 111.086 61.6766C111.106 64.1791 113.127 66.2137 115.613 66.2137C116.421 66.2137 117.21 66.0102 117.897 65.6237C118.584 65.2575 119.171 64.6877 119.555 64.0163C119.939 63.3246 120.141 62.5311 120.141 61.7376C120.141 60.4355 119.696 59.3571 118.827 58.5026C117.958 57.587 116.886 57.1597 115.613 57.1597Z" fill="#6D6E71"/>
<path id="Vector_8" d="M123.395 55.9172H124.87V57.9112C125.456 57.1381 126.103 56.5683 126.831 56.1818C127.559 55.7952 128.347 55.6121 129.156 55.6121C130.004 55.6121 130.772 55.8156 131.439 56.2428C132.086 56.6497 132.612 57.2397 132.915 57.9519C133.238 58.664 133.38 59.783 133.38 61.309V67.0669H131.904V61.7363C131.904 60.4544 131.844 59.5795 131.743 59.1523C131.581 58.4198 131.237 57.8501 130.752 57.4839C130.267 57.1177 129.64 56.9346 128.873 56.9142C128.003 56.9142 127.154 57.2194 126.487 57.7687C125.8 58.3181 125.315 59.0506 125.092 59.9051C124.951 60.4544 124.89 61.4717 124.89 62.9366V67.0466H123.415V55.9172H123.395Z" fill="#6D6E71"/>
<path id="Vector_9" d="M134.976 52.0935H138.594C140.939 52.0935 142.657 52.358 143.809 52.9074C144.941 53.4567 145.871 54.3315 146.619 55.5726C147.346 56.7935 147.73 58.238 147.73 59.8657C147.75 60.9644 147.528 62.0631 147.124 63.0804C146.74 64.0163 146.154 64.8302 145.426 65.5015C144.759 66.1119 143.951 66.5799 143.081 66.8444C142.233 67.0886 140.777 67.2106 138.695 67.2106H135.017L134.976 52.0935ZM138.008 54.8809V64.4029H139.423C140.818 64.4029 141.829 64.2604 142.475 63.9553C143.102 63.6501 143.627 63.1414 144.011 62.4293C144.416 61.7172 144.618 60.8423 144.618 59.8046C144.618 58.1973 144.133 56.9562 143.182 56.061C142.314 55.2675 140.939 54.8605 139.039 54.8605L138.008 54.8809Z" fill="#2DB670"/>
<path id="Vector_10" d="M157.877 56.1836H160.869V67.3536H157.877V66.1735C157.291 66.7025 156.705 67.0687 156.119 67.2925C155.513 67.5164 154.866 67.6384 154.219 67.6384C152.682 67.6384 151.349 67.0687 150.237 65.9497C149.125 64.8307 148.559 63.4471 148.559 61.7787C148.559 60.0493 149.105 58.6454 150.176 57.5265C151.268 56.4278 152.581 55.8784 154.118 55.8784C154.805 55.8784 155.492 56.0005 156.119 56.265C156.765 56.5294 157.351 56.9161 157.857 57.4043L157.877 56.1836ZM154.805 58.4216C153.875 58.4216 153.127 58.7268 152.5 59.3372C151.895 59.9476 151.591 60.7411 151.591 61.6974C151.591 62.674 151.895 63.4675 152.521 64.0779C153.147 64.7086 153.895 65.0138 154.805 65.0138C155.735 65.0138 156.523 64.7086 157.129 64.0982C157.736 63.4878 158.059 62.674 158.059 61.6974C158.059 60.7208 157.756 59.9273 157.129 59.3372C156.523 58.7268 155.755 58.4216 154.805 58.4216Z" fill="#2DB670"/>
<path id="Vector_11" d="M163.698 52.0935H166.669V56.2034H168.448V58.6246H166.669V67.3937H163.698V58.6246H162.162V56.2034H163.698V52.0935Z" fill="#2DB670"/>
<path id="Vector_12" d="M178.029 56.1836H181.02V67.3536H178.029V66.1735C177.443 66.7025 176.857 67.0687 176.271 67.2925C175.664 67.5164 175.017 67.6384 174.371 67.6384C172.835 67.6384 171.5 67.0687 170.388 65.9497C169.277 64.8307 168.711 63.4471 168.711 61.7787C168.711 60.0493 169.257 58.6454 170.328 57.5265C171.419 56.4278 172.734 55.8784 174.27 55.8784C174.956 55.8784 175.644 56.0005 176.271 56.265C176.917 56.5294 177.504 56.9161 178.009 57.4043V56.1836H178.029ZM174.936 58.4216C174.007 58.4216 173.259 58.7268 172.632 59.3372C172.026 59.9476 171.723 60.7411 171.723 61.6974C171.723 62.674 172.026 63.4675 172.653 64.0779C173.279 64.7086 174.027 65.0138 174.936 65.0138C175.866 65.0138 176.655 64.7086 177.261 64.0982C177.888 63.4878 178.191 62.674 178.191 61.6974C178.191 60.7208 177.888 59.9273 177.261 59.3372C176.655 58.7268 175.886 58.4216 174.936 58.4216Z" fill="#2DB670"/>
</g>
</svg>
