<svg width="240" height="121" viewBox="0 0 240 121" fill="none" xmlns="http://www.w3.org/2000/svg">
<g id="41.svg">
<path id="Vector" d="M147.997 53.0152H150.841L151.776 48.7156H157.208L156.265 53.0152H159.852L159.085 56.5188H155.514L154.324 61.9733C154.061 63.1985 154.324 63.3701 155.786 63.3701C156.449 63.3701 156.992 63.3467 157.719 63.3233L157 66.6241C155.866 66.7724 154.412 66.8738 152.822 66.8738C149.284 66.8738 148.014 66.0232 148.653 63.097L150.09 56.511H147.246L147.997 53.0152Z" fill="#231F20"/>
<path id="Vector_2" d="M140.622 53.0117H146.054L143.107 66.5738H137.675L140.622 53.0117Z" fill="#231F20"/>
<path id="Vector_3" d="M141.663 48.2561H147.095L146.4 51.4554H140.968L141.663 48.2561Z" fill="#231F20"/>
<path id="Vector_4" d="M126.282 53.0164L123.292 66.599L128.537 66.5733L131.528 52.9907L126.282 53.0164Z" fill="#231F20"/>
<path id="Vector_5" d="M137.776 52.4153C135.347 52.4153 131.489 54.7484 130.474 58.8998L130.211 59.8362H130.299C131.074 58.0336 132.999 57.066 135.603 57.066C136.306 57.066 137.104 57.1596 137.744 57.3001L138.798 52.4543C138.462 52.4309 138.103 52.4153 137.776 52.4153Z" fill="#231F20"/>
<path id="Vector_6" d="M118.573 53.0117H124.005L121.057 66.5738H115.625L118.573 53.0117Z" fill="#231F20"/>
<path id="Vector_7" d="M119.613 48.2561H125.045L124.35 51.4554H118.918L119.613 48.2561Z" fill="#231F20"/>
<path id="Vector_8" d="M105.156 63.2712C107.641 63.2712 109.262 62.0695 109.75 59.8222C110.237 57.567 109.143 56.3652 106.658 56.3652C104.118 56.3652 102.496 57.7152 102.041 59.8222C101.578 61.9212 102.617 63.2712 105.156 63.2712ZM98.0869 53.0177H103.367L102.976 54.8202H103.024C104.477 53.4468 106.563 52.6665 108.767 52.6665C113.687 52.6665 116.308 55.3196 115.285 60.025C114.431 63.9579 110.764 67.126 105.668 67.126C103.264 67.126 101.586 66.3535 100.883 65.3546H100.835L99.5012 71.488H94.0692L98.0869 53.0177Z" fill="#231F20"/>
<path id="Vector_9" d="M82.8591 62.3484C82.8269 62.8478 82.9467 63.2458 83.378 63.5033C83.8093 63.7764 84.5123 63.9247 85.6946 63.9247C86.9008 63.9247 88.2268 63.6984 88.4425 62.723C88.6019 61.9973 88.107 61.7944 86.805 61.6461L82.0842 61.0687C78.9927 60.6942 77.6187 59.5939 78.1219 57.2919C78.9208 53.6165 82.3957 52.4617 87.5956 52.4617C91.2861 52.4617 95.8078 53.1093 95.2724 56.9642H89.1777C89.2496 56.3867 88.9456 56.0122 88.4507 55.8171C87.9633 55.5908 87.2602 55.5128 86.5654 55.5128C84.9998 55.5128 84.0092 55.8639 83.801 56.7925C83.7052 57.2217 83.9852 57.5962 85.3352 57.7445L89.9122 58.2439C93.563 58.6419 95.1601 59.7734 94.5851 62.4186C93.8902 65.618 90.4393 67.1241 84.6718 67.1241C80.8301 67.1241 75.7731 66.453 76.5406 62.3484H82.8591Z" fill="#231F20"/>
<path id="Vector_10" d="M161.477 54.0876C161.541 54.0876 161.589 54.072 161.628 54.0408C161.669 54.0096 161.684 53.9706 161.684 53.9159C161.684 53.8691 161.669 53.8301 161.636 53.7989C161.604 53.7677 161.549 53.752 161.477 53.752H161.341V54.0876H161.477ZM161.061 53.5414H161.532C161.66 53.5414 161.765 53.5726 161.852 53.6272C161.94 53.6818 161.988 53.7755 161.988 53.9081C161.988 53.9706 161.972 54.033 161.932 54.0876C161.892 54.1422 161.844 54.1891 161.772 54.2124L162.02 54.6495H161.717L161.532 54.2905H161.341V54.6495H161.053V53.5414H161.061ZM161.501 54.9694C161.621 54.9694 161.724 54.946 161.828 54.907C161.932 54.868 162.02 54.8055 162.092 54.7275C162.164 54.6495 162.22 54.5636 162.268 54.4544C162.307 54.3451 162.331 54.2281 162.331 54.1032C162.331 53.9784 162.307 53.8535 162.268 53.752C162.227 53.6428 162.172 53.5492 162.092 53.4712C162.02 53.3931 161.932 53.3307 161.828 53.2917C161.724 53.2526 161.613 53.2293 161.501 53.2293C161.381 53.2293 161.269 53.2526 161.166 53.2917C161.061 53.3307 160.973 53.3931 160.901 53.4712C160.829 53.5492 160.774 53.6428 160.726 53.752C160.686 53.8614 160.662 53.9784 160.662 54.1032C160.662 54.2281 160.686 54.3529 160.726 54.4544C160.766 54.5558 160.822 54.6495 160.901 54.7275C160.973 54.8055 161.061 54.8602 161.166 54.907C161.269 54.9538 161.381 54.9694 161.501 54.9694ZM161.501 55.2113C161.349 55.2113 161.205 55.1879 161.077 55.1332C160.942 55.0786 160.829 55.0006 160.726 54.907C160.622 54.8055 160.55 54.6963 160.494 54.5558C160.439 54.4231 160.406 54.2749 160.406 54.1111C160.406 53.9472 160.439 53.7989 160.494 53.6584C160.55 53.518 160.63 53.401 160.726 53.3073C160.829 53.2058 160.942 53.1356 161.077 53.081C161.213 53.0264 161.349 53.0029 161.501 53.0029C161.652 53.0029 161.796 53.0264 161.924 53.081C162.06 53.1356 162.172 53.2136 162.276 53.3073C162.379 53.4087 162.451 53.5258 162.507 53.6584C162.563 53.7989 162.595 53.9472 162.595 54.1111C162.595 54.2749 162.563 54.4231 162.507 54.5558C162.451 54.6885 162.372 54.8055 162.276 54.907C162.172 55.0084 162.06 55.0786 161.924 55.1332C161.796 55.1801 161.652 55.2113 161.501 55.2113Z" fill="#231F20"/>
</g>
</svg>
