<svg width="241" height="121" viewBox="0 0 241 121" fill="none" xmlns="http://www.w3.org/2000/svg">
<g id="42.svg">
<path id="Vector" d="M55.7581 64.0057L52.3888 65.8186L69.2481 74.9046L86.1073 65.8186L82.7252 63.9971L80.7074 65.0831L82.0708 65.8186L69.2438 72.7325L56.4165 65.8186L57.7463 65.1003L55.7581 64.0057Z" fill="url(#paint0_linear_11_694)"/>
<path id="Vector_2" d="M65.0407 59.0015L67.0503 60.0832L59.7302 64.034L57.712 62.948L65.0407 59.0015Z" fill="url(#paint1_linear_11_694)"/>
<path id="Vector_3" d="M73.4724 58.9929L71.4586 60.0833L78.7869 64.0341L80.8055 62.948L73.4724 58.9929Z" fill="url(#paint2_linear_11_694)"/>
<path id="Vector_4" d="M52.3888 60.1067L69.2481 69.1926L86.1073 60.1067L82.7252 58.2852L80.7074 59.3712L82.0708 60.1067L69.2438 67.0206L56.4165 60.1067L57.7463 59.3883L55.7538 58.2894L52.3888 60.1067Z" fill="url(#paint3_linear_11_694)"/>
<path id="Vector_5" d="M69.261 51.0112L80.7711 57.2239L78.7577 58.31L69.2482 53.1918L69.261 51.0112Z" fill="url(#paint4_linear_11_694)"/>
<path id="Vector_6" d="M69.261 51.0112L57.7421 57.2239L59.756 58.31L69.2781 53.179L69.261 51.0112Z" fill="url(#paint5_linear_11_694)"/>
<path id="Vector_7" d="M69.2483 63.4404L52.3889 54.3502L69.2483 45.2642L86.108 54.3502L69.2483 63.4404ZM69.2483 61.2684L56.421 54.3545L69.2483 47.4405L82.0753 54.3545L69.2483 61.2684Z" fill="url(#paint6_linear_11_694)"/>
<path id="Vector_8" d="M109.308 65.2832H107.589V64.0987C107.144 65.0223 106.315 65.4414 105.31 65.4414C103.553 65.4414 102.685 64.1672 102.685 62.1319V58.2281H104.403V62.1191C104.403 63.2608 104.848 63.932 105.772 63.932C106.567 63.932 107.585 63.2736 107.585 61.2768V58.2239H109.308V65.2832Z" fill="#18181B"/>
<path id="Vector_9" d="M111.125 65.2844V55.1936H112.844V65.2844H111.125Z" fill="#18181B"/>
<path id="Vector_10" d="M114.841 65.2838V54.7141H116.56V65.2838H114.841Z" fill="#18181B"/>
<path id="Vector_11" d="M119.6 62.4223C119.813 63.2561 120.566 63.859 121.626 63.859C122.644 63.859 123.384 63.4014 123.384 62.6147C123.384 62.0417 122.964 61.6227 122.097 61.3149L120.84 60.883C118.787 60.1989 118.436 58.9546 118.436 58.1337C118.436 56.4148 119.886 55.3545 121.673 55.3545C123.307 55.3545 124.465 56.2011 124.91 57.5907L123.405 58.2192C123.072 57.2272 122.387 56.945 121.673 56.945C120.878 56.945 120.223 57.3341 120.223 58.0995C120.223 58.433 120.318 58.9333 121.378 59.3181L122.635 59.7756C124.538 60.3785 125.132 61.5757 125.145 62.5378C125.145 64.4191 123.537 65.4239 121.656 65.4239C119.74 65.4239 118.235 64.3507 117.97 62.7686L119.6 62.4223Z" fill="#18181B"/>
<path id="Vector_12" d="M138.823 58.2241V65.292H137.105V64.223C136.604 64.9883 135.724 65.4416 134.689 65.4416C132.598 65.4416 131.23 63.7911 131.23 61.726C131.23 59.7292 132.542 58.0659 134.706 58.0659C135.656 58.0659 136.532 58.455 137.105 59.2631V58.2241H138.823ZM135.039 64.005C136.211 64.005 137.148 63.2096 137.148 61.8157C137.148 60.4475 136.267 59.5111 135.001 59.5111C133.701 59.5111 132.962 60.5287 132.962 61.743C132.962 62.9958 133.752 64.005 135.039 64.005Z" fill="#18181B"/>
<path id="Vector_13" d="M165.773 63.7237V65.2843H159.548V55.1379H161.335V63.7237H165.773Z" fill="#18181B"/>
<path id="Vector_14" d="M173.812 58.2241V65.292H172.093V64.223C171.593 64.9883 170.712 65.4416 169.677 65.4416C167.582 65.4416 166.218 63.7911 166.218 61.726C166.218 59.7292 167.531 58.0659 169.694 58.0659C170.644 58.0659 171.521 58.455 172.093 59.2631V58.2241H173.812ZM170.028 64.005C171.196 64.005 172.136 63.2096 172.136 61.8157C172.136 60.4475 171.255 59.5111 169.989 59.5111C168.69 59.5111 167.95 60.5287 167.95 61.743C167.95 62.9958 168.745 64.005 170.028 64.005Z" fill="#18181B"/>
<path id="Vector_15" d="M179.537 65.4427C178.507 65.4427 177.622 64.998 177.122 64.224V65.2844H175.403V55.1936H177.122V59.2684C177.695 58.4603 178.571 58.0712 179.52 58.0712C181.684 58.0712 182.996 59.7345 182.996 61.7313C182.996 63.7922 181.632 65.4427 179.537 65.4427ZM179.23 59.5079C177.955 59.5079 177.096 60.4443 177.096 61.8125C177.096 63.2064 178.02 64.0017 179.187 64.0017C180.474 64.0017 181.265 62.9969 181.265 61.7355C181.269 60.5298 180.529 59.5079 179.23 59.5079Z" fill="#18181B"/>
<path id="Vector_16" d="M184.942 63.0375C185.126 63.7345 185.81 64.0551 186.447 64.0551C186.947 64.0551 187.508 63.8713 187.508 63.3154C187.508 62.952 187.174 62.7425 186.742 62.5629L185.711 62.1738C184.301 61.6394 183.941 60.8483 183.941 60.2027C183.941 58.89 185.057 58.0691 186.528 58.0691C187.422 58.0691 188.538 58.3769 189 59.6511L187.618 60.1514C187.435 59.5784 186.921 59.4244 186.546 59.4244C186.101 59.4244 185.622 59.6768 185.622 60.1642C185.622 60.5533 185.972 60.7543 186.361 60.8911L187.409 61.2673C188.914 61.7676 189.209 62.6784 189.209 63.2941C189.209 64.688 187.909 65.4405 186.447 65.4405C185.306 65.4405 184.006 64.9702 183.599 63.6147L184.942 63.0375Z" fill="#18181B"/>
<path id="Vector_17" d="M129.118 64.0052C128.617 64.0052 128.433 63.6716 128.433 63.2398V59.537H130.541V58.2244H128.433V56.3345H127.108L126.8 58.2157H125.616V59.5284H126.719V62.9918C126.719 64.933 127.873 65.4332 129.053 65.4332C129.759 65.4332 130.293 65.2366 130.652 64.9202L130.028 63.7828C130.028 63.7828 129.541 64.0052 129.118 64.0052Z" fill="#18181B"/>
<path id="Vector_18" d="M96.1725 55.1936V65.2844H97.9597V60.8932H99.8069L101.286 59.4138H97.9597V56.7671H102.317V55.1936H96.1725Z" fill="#18181B"/>
<path id="Vector_19" d="M145.109 62.6706C144.848 63.4659 144.164 63.8593 143.377 63.8593C142.304 63.8593 141.505 62.9956 141.505 61.7129C141.505 60.4259 142.304 59.5664 143.377 59.5664C144.207 59.5664 144.908 59.964 145.109 60.7551H146.93C146.665 59.0918 145.233 57.9929 143.382 57.9929C141.32 57.9929 139.79 59.5236 139.79 61.7129C139.79 63.902 141.32 65.4327 143.382 65.4327C145.233 65.4327 146.678 64.3381 146.939 62.6706H145.109Z" fill="#18181B"/>
<path id="Vector_20" d="M154.11 65.2844L151.3 61.4619L153.755 58.4304V58.2166H151.851L149.637 60.9317V55.1936H147.922V65.2844H149.637V61.8638L152.113 65.2844H154.11Z" fill="#18181B"/>
</g>
<defs>
<linearGradient id="paint0_linear_11_694" x1="69.2492" y1="51.2146" x2="69.2492" y2="74.9259" gradientUnits="userSpaceOnUse">
<stop offset="0.4863" stop-color="#092D82"/>
<stop offset="0.6633" stop-color="#2C6AFA"/>
<stop offset="0.7976" stop-color="#2C6AFA"/>
<stop offset="1" stop-color="#6593FF"/>
</linearGradient>
<linearGradient id="paint1_linear_11_694" x1="60.8715" y1="64.5956" x2="64.1345" y2="57.9406" gradientUnits="userSpaceOnUse">
<stop stop-color="#092D82"/>
<stop offset="1" stop-color="#2C6AFA"/>
</linearGradient>
<linearGradient id="paint2_linear_11_694" x1="77.6421" y1="64.5974" x2="74.3788" y2="57.9424" gradientUnits="userSpaceOnUse">
<stop stop-color="#092D82"/>
<stop offset="1" stop-color="#2C6AFA"/>
</linearGradient>
<linearGradient id="paint3_linear_11_694" x1="69.2492" y1="45.4998" x2="69.2492" y2="69.2111" gradientUnits="userSpaceOnUse">
<stop offset="0.4863" stop-color="#092D82"/>
<stop offset="0.6633" stop-color="#2C6AFA"/>
<stop offset="0.7976" stop-color="#2C6AFA"/>
<stop offset="1" stop-color="#6593FF"/>
</linearGradient>
<linearGradient id="paint4_linear_11_694" x1="77.9738" y1="59.0959" x2="72.648" y2="52.1082" gradientUnits="userSpaceOnUse">
<stop stop-color="#092D82"/>
<stop offset="1" stop-color="#2C6AFA"/>
</linearGradient>
<linearGradient id="paint5_linear_11_694" x1="60.538" y1="59.0999" x2="65.864" y2="52.1122" gradientUnits="userSpaceOnUse">
<stop stop-color="#092D82"/>
<stop offset="1" stop-color="#2C6AFA"/>
</linearGradient>
<linearGradient id="paint6_linear_11_694" x1="69.2494" y1="45.2642" x2="69.2494" y2="63.4398" gradientUnits="userSpaceOnUse">
<stop stop-color="#2C6AFA"/>
<stop offset="0.6416" stop-color="#2C6AFA"/>
<stop offset="1" stop-color="#6593FF"/>
</linearGradient>
</defs>
</svg>
