<svg width="241" height="121" viewBox="0 0 241 121" fill="none" xmlns="http://www.w3.org/2000/svg">
<g id="7.svg">
<path id="Vector" d="M113.81 37.9896C116.44 35.2528 120.13 33.5662 124.204 33.5662C129.624 33.5662 134.341 36.5576 136.874 41.0128C139.056 40.0581 141.494 39.5171 144.029 39.5171C153.78 39.5171 161.704 47.441 161.704 57.2105C161.704 66.9801 153.78 74.9039 144.029 74.9039C142.841 74.9039 141.687 74.7766 140.532 74.5538C138.318 78.4678 134.084 81.1093 129.24 81.1093C127.219 81.1093 125.294 80.6316 123.594 79.8043C121.349 85.0551 116.12 88.715 110.025 88.715C103.673 88.715 98.2518 84.7369 96.1665 79.1364C95.2681 79.3273 94.3059 79.4224 93.3431 79.4224C85.8048 79.4546 79.6779 73.3127 79.6779 65.739C79.6779 60.6474 82.4363 56.224 86.5109 53.8373C85.6768 51.9279 85.1953 49.7958 85.1953 47.5683C85.2275 38.8488 92.3488 31.7842 101.139 31.7842C106.304 31.7842 110.923 34.2346 113.81 37.9896Z" fill="#0D98D3"/>
<path id="Vector_2" d="M91.5476 61.3157C91.4839 61.443 91.5798 61.4748 91.5798 61.5067C91.7407 61.6021 91.901 61.6976 92.0612 61.793C92.8953 62.2386 93.6972 62.3659 94.4991 62.3659C96.1673 62.3659 97.226 61.4748 97.226 60.0428V60.011C97.226 58.6744 96.0392 58.1971 94.9483 57.8471L94.8203 57.8152C93.9862 57.5607 93.2801 57.3061 93.2801 56.7651V56.7332C93.2801 56.2559 93.6972 55.9377 94.3389 55.9377C95.0764 55.9377 95.9105 56.1923 96.4877 56.4787C96.4877 56.4787 96.6487 56.5741 96.7123 56.415C96.7445 56.3196 97.0335 55.5876 97.0657 55.4921C97.0979 55.3967 97.0336 55.333 96.9692 55.3012C96.3275 54.9194 95.4612 54.6648 94.5635 54.6648H94.4032C92.8631 54.6648 91.7722 55.5876 91.7722 56.9242V56.956C91.7722 58.3562 92.9597 58.8017 94.082 59.12L94.2745 59.1836C95.0764 59.4382 95.7824 59.6291 95.7824 60.2019V60.2337C95.7824 60.7429 95.3332 61.1248 94.5957 61.1248C94.3067 61.1248 93.4082 61.1248 92.4139 60.5202C92.2858 60.4565 92.2214 60.3928 92.1256 60.361C92.0934 60.3292 91.9646 60.2656 91.901 60.4247L91.5476 61.3157Z" fill="white"/>
<path id="Vector_3" d="M116.185 61.3157C116.12 61.443 116.217 61.4748 116.217 61.5067C116.377 61.6021 116.537 61.6976 116.698 61.793C117.532 62.2386 118.334 62.3659 119.136 62.3659C120.804 62.3659 121.862 61.4748 121.862 60.0428V60.011C121.862 58.6744 120.676 58.1971 119.585 57.8471L119.457 57.8152C118.623 57.5607 117.916 57.3061 117.916 56.7651V56.7332C117.916 56.2559 118.334 55.9377 118.975 55.9377C119.713 55.9377 120.548 56.1923 121.125 56.4787C121.125 56.4787 121.285 56.5741 121.349 56.415C121.382 56.3196 121.67 55.5876 121.702 55.4921C121.734 55.3967 121.67 55.333 121.606 55.3012C120.965 54.9194 120.098 54.6648 119.2 54.6648H119.04C117.499 54.6648 116.409 55.5876 116.409 56.9242V56.956C116.409 58.3562 117.596 58.8017 118.719 59.12L118.912 59.1836C119.713 59.4382 120.419 59.6291 120.419 60.2019V60.2337C120.419 60.7429 119.97 61.1248 119.232 61.1248C118.943 61.1248 118.045 61.1248 117.051 60.5202C116.922 60.4565 116.859 60.3928 116.762 60.361C116.73 60.3292 116.602 60.2974 116.537 60.4247L116.185 61.3157Z" fill="white"/>
<path id="Vector_4" d="M133.026 58.5157C133.026 59.3112 132.866 59.9477 132.577 60.4251C132.288 60.8706 131.839 61.0934 131.198 61.0934C130.588 61.0934 130.139 60.8706 129.85 60.4251C129.562 59.9796 129.401 59.3431 129.401 58.5157C129.401 57.7201 129.562 57.0837 129.85 56.6382C130.139 56.1927 130.588 55.9699 131.198 55.9699C131.807 55.9699 132.256 56.1927 132.577 56.6382C132.866 57.0837 133.026 57.7201 133.026 58.5157ZM134.405 57.02C134.277 56.5427 134.052 56.1609 133.763 55.8108C133.475 55.4607 133.122 55.2062 132.673 54.9834C132.256 54.7925 131.743 54.697 131.165 54.697C130.588 54.697 130.074 54.7925 129.657 54.9834C129.24 55.1743 128.856 55.4607 128.567 55.8108C128.278 56.1609 128.054 56.5745 127.925 57.02C127.797 57.4655 127.732 57.9748 127.732 58.5157C127.732 59.0567 127.797 59.5659 127.925 60.0114C128.054 60.4569 128.278 60.8706 128.567 61.2207C128.856 61.5707 129.208 61.8253 129.657 62.0162C130.074 62.2071 130.588 62.3026 131.165 62.3026C131.743 62.3026 132.256 62.2071 132.673 62.0162C133.09 61.8253 133.475 61.5389 133.763 61.2207C134.052 60.8706 134.277 60.4887 134.405 60.0114C134.533 59.5659 134.598 59.0567 134.598 58.5157C134.63 58.0066 134.565 57.4974 134.405 57.02Z" fill="white"/>
<path id="Vector_5" d="M145.954 60.871C145.921 60.7438 145.761 60.7756 145.761 60.7756C145.569 60.8392 145.344 60.9347 145.12 60.9665C144.895 60.9983 144.639 61.0301 144.35 61.0301C143.676 61.0301 143.131 60.8392 142.746 60.4255C142.361 60.0437 142.137 59.3754 142.137 58.5162C142.137 57.7206 142.329 57.1478 142.682 56.6705C143.034 56.2249 143.548 56.0022 144.253 56.0022C144.831 56.0022 145.28 56.0658 145.729 56.2249C145.729 56.2249 145.826 56.2567 145.89 56.1295C146.018 55.7794 146.114 55.5567 146.243 55.1748C146.275 55.0794 146.178 55.0156 146.146 55.0156C145.954 54.952 145.537 54.8247 145.216 54.7929C144.927 54.7611 144.542 54.7292 144.157 54.7292C143.58 54.7292 143.034 54.8247 142.586 55.0156C142.137 55.2066 141.752 55.493 141.463 55.8431C141.174 56.1931 140.918 56.6068 140.789 57.0523C140.629 57.4978 140.564 58.007 140.564 58.548C140.564 59.6936 140.885 60.6483 141.495 61.3165C142.104 62.0167 143.034 62.3667 144.253 62.3667C144.959 62.3667 145.697 62.2076 146.243 62.0167C146.243 62.0167 146.338 61.953 146.307 61.8576L145.954 60.871Z" fill="white"/>
<path id="Vector_6" d="M148.424 57.7519C148.489 57.3064 148.617 56.9246 148.809 56.6382C149.098 56.1927 149.548 55.9699 150.157 55.9699C150.767 55.9699 151.184 56.2245 151.504 56.6382C151.696 56.9246 151.793 57.3064 151.825 57.7519H148.424ZM153.14 56.7655C153.012 56.32 152.723 55.8744 152.531 55.6517C152.21 55.3334 151.921 55.1107 151.633 54.9834C151.247 54.8243 150.767 54.697 150.285 54.697C149.676 54.697 149.163 54.7925 148.713 55.0152C148.264 55.2062 147.912 55.4926 147.623 55.8426C147.334 56.1927 147.11 56.6064 146.981 57.0519C146.853 57.5292 146.756 58.0384 146.756 58.5475C146.756 59.0885 146.821 59.5977 146.981 60.0432C147.141 60.4887 147.366 60.9024 147.655 61.2525C147.975 61.6025 148.36 61.8571 148.842 62.048C149.323 62.2389 149.9 62.3344 150.574 62.3344C151.953 62.3344 152.659 62.0162 152.98 61.8571C153.044 61.8253 153.076 61.7616 153.012 61.6343L152.691 60.7751C152.659 60.6478 152.498 60.6796 152.498 60.6796C152.146 60.8069 151.664 61.0297 150.542 61.0297C149.804 61.0297 149.259 60.8069 148.906 60.4887C148.553 60.1387 148.392 59.6295 148.36 58.9294H153.108C153.108 58.9294 153.237 58.9294 153.237 58.8021C153.3 58.7385 153.461 57.8156 153.14 56.7655Z" fill="white"/>
<path id="Vector_7" d="M110.345 57.7519C110.409 57.3064 110.538 56.9246 110.73 56.6382C111.018 56.1927 111.435 55.9699 112.077 55.9699C112.719 55.9699 113.104 56.2245 113.425 56.6382C113.617 56.9246 113.713 57.3064 113.745 57.7519H110.345ZM115.061 56.7655C114.932 56.32 114.644 55.8744 114.451 55.6517C114.13 55.3334 113.842 55.1107 113.553 54.9834C113.168 54.8243 112.687 54.697 112.206 54.697C111.628 54.697 111.083 54.7925 110.634 55.0152C110.184 55.2062 109.832 55.4926 109.543 55.8426C109.254 56.1927 109.03 56.6064 108.902 57.0519C108.773 57.5292 108.677 58.0384 108.677 58.5475C108.677 59.0885 108.741 59.5977 108.902 60.0432C109.062 60.4887 109.287 60.9024 109.575 61.2525C109.896 61.6025 110.281 61.8571 110.762 62.048C111.243 62.2389 111.82 62.3344 112.494 62.3344C113.874 62.3344 114.579 62.0162 114.901 61.8571C114.964 61.8253 114.996 61.7616 114.932 61.6343L114.612 60.7751C114.579 60.6478 114.419 60.6796 114.419 60.6796C114.067 60.8069 113.585 61.0297 112.462 61.0297C111.724 61.0297 111.179 60.8069 110.826 60.4887C110.473 60.1387 110.313 59.6295 110.281 58.9294H115.029C115.029 58.9294 115.157 58.9294 115.157 58.8021C115.221 58.7385 115.349 57.8156 115.061 56.7655Z" fill="white"/>
<path id="Vector_8" d="M100.047 60.838C99.8548 60.6789 99.8233 60.6471 99.7589 60.5516C99.6624 60.3925 99.6302 60.2016 99.6302 59.9469C99.6302 59.5333 99.7589 59.2469 100.047 59.0241C100.047 59.0241 100.464 58.6741 101.427 58.6741C102.1 58.6741 102.71 58.7695 102.71 58.7695V60.9016C102.71 60.9016 102.1 61.0289 101.427 61.0607C100.464 61.188 100.047 60.838 100.047 60.838ZM101.94 57.5284C101.748 57.5284 101.491 57.4966 101.203 57.4966C100.785 57.4966 100.401 57.5603 100.016 57.6557C99.6302 57.7512 99.3097 57.9103 99.0207 58.1012C98.7324 58.2922 98.5078 58.5786 98.3476 58.865C98.1866 59.1832 98.0908 59.5333 98.0908 59.9469C98.0908 60.3607 98.1552 60.7425 98.3154 61.0289C98.4756 61.3153 98.668 61.5699 98.9248 61.7609C99.1817 61.9518 99.5021 62.0791 99.887 62.1746C100.272 62.27 100.689 62.3019 101.138 62.3019C101.62 62.3019 102.1 62.27 102.582 62.1746C103.063 62.1109 103.608 61.9836 103.768 61.9518C103.929 61.92 104.09 61.8564 104.09 61.8564C104.218 61.8245 104.185 61.6973 104.185 61.6973V57.3693C104.185 56.4146 103.929 55.7146 103.416 55.3009C102.903 54.8553 102.197 54.6326 101.235 54.6326C100.881 54.6326 100.304 54.6962 99.9514 54.7599C99.9514 54.7599 98.9248 54.9508 98.4756 55.3009C98.4756 55.3009 98.3798 55.3645 98.4434 55.4918L98.7646 56.3828C98.7968 56.5101 98.9248 56.4465 98.9248 56.4465C98.9248 56.4465 98.957 56.4464 98.9892 56.4146C99.9192 55.9055 101.074 55.9373 101.074 55.9373C101.587 55.9373 101.972 56.0328 102.261 56.2555C102.517 56.4464 102.646 56.7647 102.646 57.3693V57.5603C102.325 57.5603 101.94 57.5284 101.94 57.5284Z" fill="white"/>
<path id="Vector_9" d="M140.307 55.0772C140.339 54.9818 140.275 54.9181 140.243 54.9181C140.146 54.8863 139.762 54.7908 139.441 54.7908C138.832 54.759 138.51 54.8545 138.222 54.9818C137.933 55.1091 137.613 55.3318 137.42 55.5545V55.0136C137.42 54.9181 137.356 54.8545 137.292 54.8545H136.073C136.008 54.8545 135.945 54.9181 135.945 55.0136V62.0464C135.945 62.11 136.008 62.2055 136.105 62.2055H137.356C137.42 62.2055 137.484 62.1418 137.484 62.0464V58.5141C137.484 58.0368 137.548 57.5594 137.644 57.273C137.741 56.9866 137.901 56.732 138.061 56.5729C138.222 56.4138 138.447 56.2865 138.639 56.2229C138.864 56.1592 139.088 56.1274 139.281 56.1274C139.537 56.1274 139.794 56.191 139.794 56.191C139.89 56.191 139.922 56.1592 139.954 56.0638C140.018 55.8728 140.243 55.2363 140.307 55.0772Z" fill="white"/>
<path id="Vector_10" d="M128.566 51.8317C128.406 51.7999 128.277 51.7681 128.085 51.7362C127.893 51.7044 127.7 51.6726 127.443 51.6726C126.577 51.6726 125.903 51.9272 125.423 52.4045C124.941 52.8819 124.621 53.582 124.46 54.5367L124.396 54.8549H123.305C123.305 54.8549 123.177 54.8549 123.145 54.9822L122.952 55.9687C122.952 56.0642 122.985 56.1278 123.113 56.1278H124.171L123.145 62.015C123.048 62.4923 122.952 62.8742 122.856 63.1924C122.76 63.4788 122.663 63.7015 122.535 63.8607C122.407 64.0198 122.311 64.1153 122.086 64.1789C121.926 64.2426 121.734 64.2744 121.541 64.2744C121.412 64.2744 121.284 64.2426 121.156 64.2426C121.06 64.2108 120.995 64.2108 120.899 64.1471C120.899 64.1471 120.771 64.1153 120.739 64.2108C120.707 64.3062 120.418 65.0699 120.386 65.1654C120.354 65.2609 120.386 65.3245 120.45 65.3563C120.578 65.42 120.707 65.4518 120.899 65.4836C121.156 65.5473 121.38 65.5473 121.605 65.5473C122.054 65.5473 122.439 65.4836 122.76 65.3563C123.08 65.229 123.37 65.0381 123.626 64.7517C123.915 64.4335 124.075 64.1153 124.236 63.7015C124.396 63.2879 124.556 62.7469 124.653 62.1104L125.711 56.096H127.283C127.283 56.096 127.411 56.096 127.443 55.9687L127.636 54.9822C127.636 54.8867 127.604 54.8231 127.476 54.8231H125.968C125.968 54.7912 126.032 54.2503 126.224 53.7729C126.289 53.5501 126.449 53.391 126.545 53.2637C126.674 53.1365 126.802 53.0728 126.93 53.0092C127.091 52.9455 127.251 52.9455 127.443 52.9455C127.571 52.9455 127.732 52.9774 127.828 52.9774C127.988 53.0092 128.021 53.0092 128.085 53.041C128.245 53.0728 128.277 53.041 128.277 52.9774L128.63 51.9908C128.695 51.8954 128.598 51.8317 128.566 51.8317Z" fill="white"/>
<path id="Vector_11" d="M107.331 62.0486C107.331 62.1123 107.266 62.1759 107.202 62.1759H105.951C105.887 62.1759 105.823 62.1123 105.823 62.0486V51.9609C105.823 51.8971 105.887 51.8335 105.951 51.8335H107.202C107.266 51.8335 107.331 51.8971 107.331 51.9609V62.0486Z" fill="white"/>
</g>
</svg>
