<svg width="142" height="24" viewBox="0 0 142 24" fill="none" xmlns="http://www.w3.org/2000/svg">
<g id="logo-careerist-white.svg" clip-path="url(#clip0_11_806)">
<g id="logo-careerist-black">
<path id="Vector" d="M9.63101 18.3239C7.41777 18.3239 5.80272 16.6224 5.80272 14.0705C5.7429 11.5184 7.41777 9.8171 9.57113 9.8171C12.2031 9.8171 12.8611 12.1868 12.8611 12.1868H18.0053C18.0053 12.1868 16.9884 5.07764 9.51134 5.07764C4.42694 5.1384 0.778137 8.84492 0.778137 14.1312C0.778137 19.3568 4.42694 23.0633 9.57113 23.0633C17.108 23.0633 18.125 15.9541 18.125 15.9541H12.9807C12.9807 15.9541 12.2629 18.3239 9.63101 18.3239Z" fill="white"/>
<path id="Vector_2" d="M28.4728 5.13867C23.8071 5.13867 21.2948 7.69074 20.9958 10.7288H25.8408C25.8408 10.7288 26.3194 9.20976 28.4728 9.20976C30.1476 9.20976 31.1047 10.2427 31.1047 11.7617V12.1263H27.2765C22.6108 12.1263 20.2779 14.4961 20.2779 17.7164C20.2779 20.7546 22.6108 23.1243 26.6185 23.1243C29.7888 23.1243 31.2842 21.2407 31.2842 21.2407H31.4636L31.8225 22.7597H36.1293V11.701C36.1293 7.87302 33.4375 5.13867 28.4728 5.13867ZM27.5755 19.114C26.0801 19.114 25.2427 18.2633 25.2427 17.2303C25.2427 16.1974 26.0801 15.3467 27.8746 15.3467H31.0448V15.7113H31.1047C31.1047 17.7772 29.7888 19.114 27.5755 19.114Z" fill="white"/>
<path id="Vector_3" d="M59.9353 5.13867C54.791 5.13867 51.1423 8.8452 51.1423 14.0708C51.1423 19.2963 54.791 23.0027 59.9353 23.0027C66.2759 23.0027 68.0704 17.4126 68.0704 17.4126H63.0457C63.0457 17.4126 62.0289 18.9317 59.8755 18.9317C57.6622 18.9317 56.2267 17.4126 56.0472 15.3467H68.3694C68.3694 15.3467 68.5489 14.8606 68.5489 13.6454C68.6087 8.8452 64.9599 5.13867 59.9353 5.13867ZM56.107 12.4301C56.5855 10.1819 57.9614 9.08824 59.9353 9.08824C61.9092 9.08824 63.2252 10.3035 63.7636 12.4301H56.107Z" fill="white"/>
<path id="Vector_4" d="M79.7948 5.13867C74.6505 5.13867 71.0017 8.8452 71.0017 14.0708C71.0017 19.2963 74.6505 23.0027 79.7948 23.0027C86.1353 23.0027 87.9298 17.4126 87.9298 17.4126H82.9052C82.9052 17.4126 81.8883 18.9317 79.7349 18.9317C77.5217 18.9317 76.0861 17.4126 75.9067 15.3467H88.2288C88.2288 15.3467 88.4083 14.8606 88.4083 13.6454C88.4083 8.8452 84.7595 5.13867 79.7948 5.13867ZM75.9665 12.4301C76.445 10.1819 77.8208 9.08824 79.7948 9.08824C81.7687 9.08824 83.0846 10.3035 83.623 12.4301H75.9665Z" fill="white"/>
<path id="Vector_5" d="M109.584 5.44189H104.201V22.6983H109.584V5.44189Z" fill="white"/>
<path id="Vector_6" d="M122.505 12.2478L119.993 11.8833C118.497 11.701 118.019 11.2149 118.019 10.5465C118.019 9.69585 118.857 9.02748 120.531 9.02748C122.864 9.02748 123.163 10.5465 123.163 10.5465H128.009C128.009 10.5465 127.649 5.13867 120.531 5.13867C115.686 5.13867 113.174 7.69074 113.174 10.5465C113.174 13.4631 114.849 15.0429 118.857 15.6505L121.369 16.0151C122.864 16.1974 123.343 16.6835 123.343 17.7164C123.343 18.5672 122.505 19.4178 120.71 19.4178C117.839 19.4178 117.839 17.4126 117.839 17.4126H112.994C112.994 17.4126 112.994 23.185 120.71 23.185C125.735 23.185 128.187 20.633 128.187 17.7772C128.187 14.5568 126.393 12.7339 122.505 12.2478Z" fill="white"/>
<path id="Vector_7" d="M39.2991 22.6983H44.3238V13.2195V10.1814H49.767V5.44189H39.2991V22.6983Z" fill="white"/>
<path id="Vector_8" d="M90.3825 22.6983H95.4071V13.2195V10.1814H100.911V5.44189H90.3825V22.6983Z" fill="white"/>
<path id="Vector_9" d="M138.415 18.0207C137.578 18.0207 137.219 17.6562 137.219 16.8055V10.1825H140.987V5.44299V0.0351562H135.484V5.44299H129.502V10.1825H132.135V18.0207C132.135 21.0589 133.809 22.7602 136.979 22.7602H140.987V18.0207H138.415Z" fill="white"/>
</g>
</g>
<defs>
<clipPath id="clip0_11_806">
<rect width="140.741" height="23.295" fill="white" transform="translate(0.778442 0.0351562)"/>
</clipPath>
</defs>
</svg>
