<svg width="32" height="28" viewBox="0 0 32 28" fill="none" xmlns="http://www.w3.org/2000/svg">
<rect width="32" height="28" fill="#1E1E1E"/>
<g clip-path="url(#clip0_0_1)">
<rect width="1440" height="6734" transform="translate(-489 -2114)" fill="white"/>
<path d="M26.4857 18.3865L26.502 17.8252L25.9242 17.8084V18.3865H26.4857ZM26.4857 27.1327V27.6943H27.0473V27.1327H26.4857ZM0.855142 27.1327H0.293579V27.6943H0.855142V27.1327ZM0.855142 18.5169L0.861356 17.9553L0.293579 17.949V18.5169H0.855142ZM0.88918 18.5172L0.882965 19.0787L0.887158 19.0788L0.88918 18.5172ZM0.919736 18.5173L0.917715 19.0789H0.919736V18.5173ZM0.855142 10.1266H0.293579V10.6967L0.86361 10.6882L0.855142 10.1266ZM0.855142 1.50211V0.940552H0.293579V1.50211H0.855142ZM9.50768 1.50211L10.0688 1.52426L10.0919 0.940552H9.50768V1.50211ZM17.8923 1.50211V0.940552H17.3081L17.3311 1.52425L17.8923 1.50211ZM26.4857 1.50211H27.0473V0.940552H26.4857V1.50211ZM26.4857 9.99887H25.9242V10.5769L26.502 10.5602L26.4857 9.99887ZM31.3666 14.1927C31.3666 11.5654 29.2368 9.43551 26.6094 9.43551V10.5586C28.6165 10.5586 30.2435 12.1857 30.2435 14.1927H31.3666ZM26.6094 18.9499C29.2368 18.9499 31.3666 16.82 31.3666 14.1927H30.2435C30.2435 16.1997 28.6165 17.8268 26.6094 17.8268V18.9499ZM26.4695 18.9479C26.516 18.9492 26.5626 18.9499 26.6094 18.9499V17.8268C26.5735 17.8268 26.5377 17.8262 26.502 17.8252L26.4695 18.9479ZM27.0473 27.1327V18.3865H25.9242V27.1327H27.0473ZM0.855142 27.6943H26.4857V26.5712H0.855142V27.6943ZM0.293579 18.5169V27.1327H1.4167V18.5169H0.293579ZM0.895402 17.9557L0.861356 17.9553L0.84892 19.0784L0.882965 19.0787L0.895402 17.9557ZM0.921765 17.9558L0.891209 17.9557L0.887158 19.0788L0.917715 19.0789L0.921765 17.9558ZM4.55377 14.3218C4.55377 16.3287 2.92676 17.9558 0.919736 17.9558V19.0789C3.54705 19.0789 5.67693 16.9491 5.67693 14.3218H4.55377ZM0.919736 10.6877C2.92676 10.6877 4.55377 12.3148 4.55377 14.3218H5.67693C5.67693 11.6944 3.54705 9.5646 0.919736 9.5646V10.6877ZM0.86361 10.6882C0.882284 10.6879 0.900995 10.6877 0.919736 10.6877V9.5646C0.895342 9.5646 0.870985 9.56474 0.846673 9.56512L0.86361 10.6882ZM0.293579 1.50211V10.1266H1.4167V1.50211H0.293579ZM9.50768 0.940552H0.855142V2.06368H9.50768V0.940552ZM10.0659 1.6705C10.0659 1.62149 10.0669 1.57274 10.0688 1.52426L8.94657 1.47996C8.94402 1.5432 8.94282 1.60671 8.94282 1.6705H10.0659ZM13.6999 5.30451C11.6929 5.30451 10.0659 3.67752 10.0659 1.6705H8.94282C8.94282 4.29781 11.0726 6.42763 13.6999 6.42763V5.30451ZM17.334 1.6705C17.334 3.67752 15.707 5.30451 13.6999 5.30451V6.42763C16.3272 6.42763 18.4571 4.29781 18.4571 1.6705H17.334ZM17.3311 1.52425C17.333 1.57274 17.334 1.62149 17.334 1.6705H18.4571C18.4571 1.60671 18.4558 1.54319 18.4534 1.47997L17.3311 1.52425ZM26.4857 0.940552H17.8923V2.06368H26.4857V0.940552ZM27.0473 9.99887V1.50211H25.9242V9.99887H27.0473ZM26.6094 9.43551C26.5626 9.43551 26.516 9.43618 26.4695 9.43753L26.502 10.5602C26.5377 10.5592 26.5735 10.5586 26.6094 10.5586V9.43551Z" fill="#18181B"/>
</g>
<defs>
<clipPath id="clip0_0_1">
<rect width="1440" height="6734" fill="white" transform="translate(-489 -2114)"/>
</clipPath>
</defs>
</svg>
