<svg width="32" height="28" viewBox="0 0 32 28" fill="none" xmlns="http://www.w3.org/2000/svg">
<rect width="32" height="28" fill="#1E1E1E"/>
<g id="Demo Project" clip-path="url(#clip0_0_1)">
<rect width="1440" height="6734" transform="translate(-242 -2114)" fill="white"/>
<g id="Tech Career For All">
<g id="div.row">
<g id="Item 1">
<g id="div.card-techfor">
<g id="how-1682067930339.svg">
<g id="how-1682067930339.svg_2">
<path id="Vector" d="M26.5012 10.0155H25.9396V10.5764L26.5005 10.577L26.5012 10.0155ZM26.5012 18.4429L26.5005 17.8813L25.9396 17.8819V18.4429H26.5012ZM26.5012 27.1881V27.7496H27.0627V27.1881H26.5012ZM0.759927 27.1881H0.198364V27.7496H0.759927V27.1881ZM0.759927 1.44682V0.885254H0.198364V1.44682H0.759927ZM9.31773 1.44682L9.87914 1.45687L9.8894 0.885254H9.31773V1.44682ZM17.7437 1.44682V0.885254H17.172L17.1822 1.45684L17.7437 1.44682ZM26.5012 1.44682H27.0627V0.885254H26.5012V1.44682ZM31.2715 14.2291C31.2715 11.5937 29.1365 9.45691 26.5018 9.45391L26.5005 10.577C28.5156 10.5793 30.1484 12.2136 30.1484 14.2291H31.2715ZM26.5018 19.0044C29.1365 19.0014 31.2715 16.8647 31.2715 14.2291H30.1484C30.1484 16.2448 28.5156 17.879 26.5005 17.8813L26.5018 19.0044ZM25.9396 18.4429V27.1881H27.0627V18.4429H25.9396ZM26.5012 26.6265H0.759927V27.7496H26.5012V26.6265ZM1.32149 27.1881V1.44682H0.198364V27.1881H1.32149ZM0.759927 2.00838H9.31773V0.885254H0.759927V2.00838ZM8.75624 1.43675C8.75572 1.46569 8.75542 1.49469 8.75542 1.52374H9.87854C9.87854 1.50139 9.87876 1.4791 9.87914 1.45687L8.75624 1.43675ZM8.75542 1.52374C8.75542 4.16107 10.8934 6.29898 13.5307 6.29898V5.17585C11.5137 5.17585 9.87854 3.54076 9.87854 1.52374H8.75542ZM13.5307 6.29898C16.168 6.29898 18.3059 4.16107 18.3059 1.52374H17.1828C17.1828 3.54076 15.5477 5.17585 13.5307 5.17585V6.29898ZM18.3059 1.52374C18.3059 1.49467 18.3057 1.46568 18.3052 1.43678L17.1822 1.45684C17.1827 1.47911 17.1828 1.50141 17.1828 1.52374H18.3059ZM17.7437 2.00838H26.5012V0.885254H17.7437V2.00838ZM25.9396 1.44682V10.0155H27.0627V1.44682H25.9396Z" fill="#18181B"/>
</g>
</g>
</g>
</g>
</g>
</g>
</g>
<defs>
<clipPath id="clip0_0_1">
<rect width="1440" height="6734" fill="white" transform="translate(-242 -2114)"/>
</clipPath>
</defs>
</svg>
