<svg width="32" height="32" viewBox="0 0 32 32" fill="none" xmlns="http://www.w3.org/2000/svg">
<rect width="32" height="32" fill="#1E1E1E"/>
<g clip-path="url(#clip0_0_1)">
<rect width="1440" height="6734" transform="translate(-736 -2112)" fill="white"/>
<path d="M27.0725 22.8958L27.053 22.3346L26.5109 22.3534V22.8958H27.0725ZM27.0725 31.1025V31.664H27.634V31.1025H27.0725ZM1.20686 31.1025H0.645302V31.664H1.20686V31.1025ZM1.20686 22.3155L1.1984 21.754L0.645294 21.7624V22.3155H1.20686ZM1.20686 13.8484H0.645294V14.4015L1.1984 14.4099L1.20686 13.8484ZM1.20686 5.23685V4.67529H0.645294V5.23685H1.20686ZM9.82405 5.23685V5.79841H10.3199L10.3813 5.30641L9.82405 5.23685ZM18.2265 5.23685L17.6693 5.30641L17.7307 5.79841H18.2265V5.23685ZM27.0725 5.23684H27.634V4.67528H27.0725V5.23684ZM27.0725 14.4329H26.5109V14.9753L27.053 14.9941L27.0725 14.4329ZM26.5109 22.8958V31.1025H27.634V22.8958H26.5109ZM27.0725 30.5409H1.20686V31.664H27.0725V30.5409ZM1.76843 31.1025L1.76842 22.3155H0.645294L0.645302 31.1025H1.76843ZM1.21532 22.877C3.83009 22.8376 5.93744 20.7059 5.93744 18.0819H4.81433C4.81433 20.0913 3.20049 21.7239 1.1984 21.754L1.21532 22.877ZM5.93744 18.0819C5.93744 15.458 3.83009 13.3262 1.21531 13.2869L1.1984 14.4099C3.20049 14.44 4.81433 16.0725 4.81433 18.0819H5.93744ZM1.76842 13.8484V5.23685H0.645294V13.8484H1.76842ZM1.20686 5.79841H9.82405V4.67529H1.20686V5.79841ZM10.3813 5.30641C10.6073 3.49563 12.1531 2.09419 14.0253 2.09419V0.971069C11.5796 0.971069 9.56214 2.8014 9.26683 5.16728L10.3813 5.30641ZM14.0253 2.09419C15.8975 2.09419 17.4432 3.49563 17.6693 5.30641L18.7837 5.16728C18.4884 2.8014 16.471 0.971069 14.0253 0.971069V2.09419ZM18.2265 5.79841L27.0725 5.7984V4.67528L18.2265 4.67529V5.79841ZM26.5109 5.23684V14.4329H27.634V5.23684H26.5109ZM27.053 14.9941C29.0207 15.0625 30.5953 16.6797 30.5953 18.6643H31.7184C31.7184 16.0725 29.6624 13.961 27.0919 13.8717L27.053 14.9941ZM30.5953 18.6643C30.5953 20.649 29.0207 22.2662 27.053 22.3346L27.0919 23.4571C29.6624 23.3677 31.7184 21.2563 31.7184 18.6643H30.5953Z" fill="#18181B"/>
</g>
<defs>
<clipPath id="clip0_0_1">
<rect width="1440" height="6734" fill="white" transform="translate(-736 -2112)"/>
</clipPath>
</defs>
</svg>
