<svg width="96" height="31" viewBox="0 0 96 31" fill="none" xmlns="http://www.w3.org/2000/svg">
<path id="Vector" d="M49.8931 10.0778C49.7987 14.3449 53.6862 16.7154 56.6257 18.1377C59.5652 19.56 60.6082 20.5082 60.6082 21.8357C60.6082 23.827 58.2377 24.6804 56.0567 24.7752C52.1692 24.87 49.9882 23.7321 48.1867 22.8788L46.7641 29.3266C48.5656 30.18 51.8847 30.8438 55.2982 30.9386C63.3583 30.9386 68.5733 26.9561 68.6684 20.7927C68.6684 13.0174 57.8581 12.5433 57.9532 9.03486C57.9532 7.9918 58.9962 6.85394 61.1773 6.5695C62.3153 6.37985 65.2541 6.28506 68.7627 7.89701L70.0902 1.63878C68.2887 0.975031 65.9183 0.311279 62.8836 0.311279C55.2982 0.311279 49.9882 4.2938 49.8931 10.0778ZM82.9864 0.785376C81.5638 0.785376 80.2363 1.63878 79.7624 2.96629L68.2887 30.3697H76.3489L77.9609 25.9131H87.8217L88.7704 30.3697H95.8819L89.7183 0.785376H82.9864ZM84.1237 8.8452L86.3999 19.9393H80.0469L84.1237 8.8452ZM40.2217 0.785376L33.8687 30.3697H41.5492L47.9022 0.785376H40.2217ZM28.8432 0.785376L20.8781 20.8875L17.6541 3.72483C17.2745 1.82844 15.7575 0.690588 14.1455 0.690588H1.1552L0.965546 1.54392C3.62056 2.11288 6.65518 3.06108 8.55097 4.10414C9.68905 4.67303 9.97357 5.242 10.3532 6.66429L16.4217 30.2748H24.481L36.9025 0.690588L28.8432 0.785376Z" fill="#243A86"/>
</svg>
