<svg width="61" height="59" viewBox="0 0 61 59" fill="none" xmlns="http://www.w3.org/2000/svg">
<path id="Vector" d="M47.9693 19.9267C48.9142 19.9267 49.7753 19.829 50.6213 19.9407C52.7792 20.2478 54.2459 21.4763 54.8247 23.5425C55.4027 25.5668 54.8524 27.4096 53.2726 28.8056C52.1585 29.7829 50.8751 30.5786 49.648 31.4302C48.8296 32.0026 48.745 32.1981 49.1965 33.0776C50.6775 36.0512 53.0614 38.1453 55.9104 39.7647C56.7145 40.2254 57.5606 40.6023 58.3228 41.1049C60.5226 42.5568 60.706 45.181 58.7878 46.996C57.4341 48.2666 55.7554 48.909 54.0206 49.4256C53.2307 49.6487 52.6946 49.9842 52.3704 50.7936C51.6508 52.5808 50.1983 53.4321 48.3077 53.5998C47.0244 53.7114 45.7268 53.7391 44.4435 53.8791C42.8779 54.0603 41.4388 54.6465 40.0986 55.4986C38.2934 56.6427 36.3894 57.5921 34.2735 58.0533C30.127 58.9608 26.1916 58.4576 22.4816 56.3918C21.8609 56.0429 21.2268 55.694 20.6345 55.3032C18.9132 54.1584 16.9672 53.8506 14.9501 53.7256C13.991 53.6694 13.0176 53.6417 12.0727 53.4883C10.4787 53.2225 9.29417 52.3569 8.70118 50.8632C8.37697 50.0254 7.81318 49.6487 6.98059 49.4114C5.26 48.909 3.59556 48.2808 2.26955 47.0102C0.238233 45.056 0.605111 42.1938 3.11562 40.8955C5.45766 39.6809 7.75627 38.3965 9.51954 36.4141C10.4502 35.3671 11.184 34.1526 11.9454 32.9798C12.3543 32.3376 12.185 31.9747 11.5082 31.5C10.1964 30.5647 8.77231 29.741 7.62974 28.6241C5.06233 26.1532 5.69725 22.0487 8.77231 20.4572C9.88642 19.8848 11.0709 19.7731 12.3123 19.9407C12.5519 19.9686 12.7915 20.0105 13.0461 20.0523C13.1165 18.7122 13.1726 17.4417 13.2288 16.1713C13.6383 7.89273 19.7458 2.53186 26.7419 1.21955C31.1849 0.38187 35.4587 0.870495 39.4644 3.04834C44.2032 5.6311 47.0386 9.55402 47.7013 14.9149C47.8847 16.3668 47.8847 17.8326 47.9693 19.2985C47.9835 19.5218 47.9693 19.7592 47.9693 19.9267ZM16.473 19.8569C16.4311 19.8569 16.5157 19.8569 16.473 19.8569C16.4873 21.1831 16.628 22.4954 16.6145 23.8217C16.6145 24.4499 16.3607 24.6454 15.7535 24.4639C14.9501 24.2126 14.1744 23.8915 13.3703 23.6542C12.6792 23.4588 11.9881 23.2633 11.2828 23.2074C10.5775 23.1516 9.94258 23.4168 9.61838 24.1149C9.27995 24.8409 9.30766 25.5667 9.8722 26.1671C10.2952 26.6278 10.7886 27.0326 11.3105 27.3956C12.4389 28.1774 13.6241 28.8754 14.7382 29.6712C16.0081 30.5786 16.1631 31.1091 15.6974 32.6029C14.8797 35.1577 13.4122 37.3077 11.5082 39.2063C9.67454 41.0351 7.51668 42.3753 5.21731 43.548C4.25819 44.0366 4.25819 44.5392 5.18961 45.0979C5.3446 45.1953 5.51381 45.2934 5.68303 45.3488C6.85405 45.7815 8.01009 46.2562 9.20957 46.6051C10.6194 47.0102 11.7201 47.5965 11.7478 49.2721C11.762 49.8861 12.2135 50.1931 12.7915 50.2912C13.0176 50.3189 13.243 50.3331 13.4691 50.3608C15.1613 50.542 16.8684 50.6543 18.5463 50.9193C20.5776 51.254 22.242 52.4408 23.9769 53.4463C27.4749 55.4425 31.1707 55.7494 34.9503 54.4369C36.2486 53.9907 37.4616 53.2367 38.6603 52.5389C40.3105 51.5752 42.0453 50.8774 43.9636 50.682C45.318 50.542 46.6717 50.4581 48.012 50.3466C48.9988 50.2627 49.338 49.9977 49.4226 49.0063C49.5207 47.9596 49.9864 47.2476 51.0159 46.9406C51.284 46.8567 51.5662 46.7729 51.8343 46.6755C53.1034 46.2143 54.3875 45.7958 55.6281 45.2514C56.0234 45.0837 56.2915 44.5951 56.6157 44.26C56.3057 43.9808 56.0519 43.6318 55.685 43.4503C53.8229 42.487 52.0462 41.3841 50.4663 40.0021C48.0262 37.8661 46.1926 35.3392 45.3038 32.212C44.9931 31.1231 45.1488 30.5926 46.0795 29.9364C47.3351 29.0569 48.6462 28.2472 49.8876 27.3538C50.4237 26.9628 50.974 26.5301 51.3686 25.9996C52.2289 24.7989 51.4389 23.2773 49.9579 23.2353C49.5207 23.2214 49.0557 23.2912 48.6327 23.4168C47.5178 23.7519 46.4179 24.1567 45.3038 24.5058C44.725 24.6873 44.4854 24.4918 44.4854 23.8915C44.4854 23.6681 44.5139 23.4448 44.5139 23.2214C44.5139 20.7644 44.6404 18.2933 44.457 15.8502C44.0909 10.992 41.4388 7.5856 37.0662 5.54732C33.5262 3.89995 29.7885 3.71846 26.0501 4.80742C21.551 6.11972 18.4055 8.91183 17.0518 13.4629C16.4311 15.5291 16.4453 17.693 16.473 19.8569Z" fill="black"/>
</svg>
