<svg width="113" height="38" viewBox="0 0 113 38" fill="none" xmlns="http://www.w3.org/2000/svg">
<path id="Vector" d="M57.942 22.9348C57.301 22.9348 57.0233 22.6565 57.0233 21.9193V21.0706H53.9744V22.6426C53.9744 24.0755 55.6029 24.9798 57.9831 24.9798C60.6142 24.9798 61.6722 23.7277 61.8811 22.74C61.9088 22.5035 61.9365 22.1418 61.9365 21.8218C61.9365 21.3906 61.923 21.0706 61.8668 20.6533C61.756 19.2343 60.4472 18.4831 59.2777 18.0101C57.6073 17.3562 57.1618 16.9806 57.0367 16.3964C56.9813 16.2294 56.9948 15.8677 57.0367 15.6869C57.1206 15.3947 57.5099 15.1721 57.9697 15.1721C58.4848 15.1721 58.9018 15.5199 58.9018 15.9651V16.8833H61.756V15.506C61.756 13.7253 59.7374 13.1689 57.9974 13.1828C56.1323 13.1828 54.6011 13.767 54.2807 15.2277C54.211 15.5755 54.1691 16.0207 54.1691 16.4937C54.1691 17.3423 54.2949 18.0797 54.4753 18.4135C54.6707 18.7752 55.3386 19.4569 57.0367 20.2499C58.6937 21.015 58.791 21.2932 58.8884 21.6549C58.9161 21.7384 58.9303 21.8358 58.9303 21.9331C58.9438 22.4896 58.4983 22.9348 57.942 22.9348ZM80.7289 13.5445H77.1792V24.6181H80.0191L79.8522 17.8014H80.0603L83.2065 24.6181H86.5893V13.5445H83.7493L83.9163 20.3611H83.7074L80.7289 13.5445ZM73.3928 22.1001V13.5445H70.1636V22.1696C70.1636 22.5591 69.7877 22.8931 69.3422 22.8931C68.8967 22.8931 68.5208 22.573 68.5208 22.1696V13.5445H65.2915V22.1001C65.2915 23.6999 67.1147 24.9798 69.3422 24.9798C71.5697 24.9937 73.3928 23.6999 73.3928 22.1001ZM44.6063 19.6516H44.3554L43.3394 13.5584H38.5093L38.2862 24.632H41.1261V16.1181H41.4047L43.0609 24.632H45.9427L47.5989 16.1181H47.8775V24.632H50.7174L50.4808 13.5584H45.5107L44.6063 19.6516ZM31.0901 16.0347L32.2866 24.632H35.4193L33.3865 13.5445H28.5706L26.5378 24.6181H29.6698L30.8812 16.0347H31.0901ZM53.8352 3.37513C84.543 -2.03642 110.699 0.690241 112.244 9.4684C113.023 13.9062 107.358 19.0535 97.5725 23.7417C97.8922 23.3521 98.0734 22.8652 98.0734 22.3783V18.5109H94.2728V20.0134H95.0111V22.1836C95.0111 22.573 94.6352 22.9069 94.1897 22.9069C93.7442 22.9069 93.3683 22.587 93.3683 22.1836V15.8399C93.3683 15.4503 93.7442 15.1304 94.1897 15.1304C94.6352 15.1304 95.0111 15.4503 95.0111 15.8399V16.8833H98.0734V16.1321C98.0734 14.1983 96.9877 13.1689 94.1897 13.1689C91.4471 13.1689 90.4864 14.5461 90.4864 15.993V22.3505C90.4864 23.8112 92.1434 24.9798 94.1897 24.9798C94.4121 24.9798 94.6352 24.9659 94.8441 24.938V24.9798C85.5448 29.0558 73.2116 32.7007 59.4447 35.1352C28.7233 40.5605 2.56759 37.8344 1.02242 29.0558C0.228991 24.5346 6.11719 19.2899 16.209 14.5322C16.1536 14.6852 16.0697 14.9634 16.042 15.1582C15.9866 15.506 15.9447 15.9512 15.9447 16.4241C15.9447 17.2728 16.0697 18.0101 16.2509 18.344C16.4321 18.7057 17.0169 19.4708 18.6731 20.2499C20.3016 21.015 20.3854 21.2932 20.4828 21.6549C20.5105 21.7384 20.5247 21.8358 20.5247 21.9331C20.5247 22.4896 20.0927 22.9487 19.5499 22.9487C18.9239 22.9487 18.6589 22.6705 18.6589 21.9331V21.0846H15.6939V22.6565C15.6939 24.0895 17.2947 24.9937 19.606 24.9937C22.1809 24.9937 23.2112 23.7417 23.4058 22.7539C23.4335 22.5174 23.4612 22.1557 23.4612 21.8358C23.4612 21.4045 23.4478 21.0846 23.3924 20.6672C23.2808 19.2482 21.9997 18.497 20.8586 18.024C19.2301 17.3702 18.7981 16.9945 18.6731 16.4103C18.6177 16.2433 18.6312 15.8816 18.6731 15.7008C18.7569 15.4086 19.1328 15.186 19.5776 15.186C20.0792 15.186 20.4828 15.5338 20.4828 15.979V16.8972H23.2666V15.5199C23.2666 13.7393 21.3041 13.1828 19.606 13.1967C19.5364 13.1967 19.2579 13.2106 19.1882 13.2106C28.3752 9.25973 40.4298 5.74008 53.8352 3.37513Z" fill="#034EA2"/>
</svg>
