<svg width="28" height="32" viewBox="0 0 28 32" fill="none" xmlns="http://www.w3.org/2000/svg">
<path d="M18.2699 5.60113L17.7084 5.5942L17.7014 6.16269H18.2699V5.60113ZM26.881 5.60113H27.4426V5.03957H26.881V5.60113ZM26.881 31.2928V31.8544H27.4426V31.2928H26.881ZM1.18925 31.2928H0.627686V31.8544H1.18925V31.2928ZM1.18925 22.6931L1.1808 22.1316L0.627686 22.1399V22.6931H1.18925ZM1.18925 14.2828H0.627686V14.836L1.1808 14.8443L1.18925 14.2828ZM1.18925 5.60113V5.03957H0.627686V5.60113H1.18925ZM9.85944 5.60113V6.16269H10.4279L10.4209 5.59422L9.85944 5.60113ZM14.0646 0.781128C11.4318 0.781128 9.2975 2.91545 9.2975 5.54828H10.4206C10.4206 3.53574 12.0522 1.90425 14.0646 1.90425V0.781128ZM18.8319 5.54828C18.8319 2.91545 16.6975 0.781128 14.0646 0.781128V1.90425C16.0772 1.90425 17.7087 3.53574 17.7087 5.54828H18.8319ZM18.8315 5.60806C18.8317 5.58815 18.8319 5.56823 18.8319 5.54828H17.7087C17.7087 5.56362 17.7086 5.57892 17.7084 5.5942L18.8315 5.60806ZM18.2699 6.16269H26.881V5.03957H18.2699V6.16269ZM26.3194 5.60113V31.2928H27.4426V5.60113H26.3194ZM26.881 30.7313H1.18925V31.8544H26.881V30.7313ZM1.75081 31.2928V22.6931H0.627686V31.2928H1.75081ZM1.19769 23.2546C3.79696 23.2155 5.89188 21.0964 5.89188 18.4879H4.76876C4.76876 20.4818 3.16738 22.1016 1.1808 22.1316L1.19769 23.2546ZM5.89188 18.4879C5.89188 15.8795 3.79696 13.7604 1.19769 13.7213L1.1808 14.8443C3.16738 14.8742 4.76876 16.4941 4.76876 18.4879H5.89188ZM1.75081 14.2828V5.60113H0.627686V14.2828H1.75081ZM1.18925 6.16269H9.85944V5.03957H1.18925V6.16269ZM9.2975 5.54828C9.2975 5.56823 9.29765 5.58815 9.29787 5.60803L10.4209 5.59422C10.4207 5.57893 10.4206 5.56362 10.4206 5.54828H9.2975Z" fill="#18181B"/>
</svg>
