<svg width="121" height="36" viewBox="0 0 121 36" fill="none" xmlns="http://www.w3.org/2000/svg">
<path id="Vector" d="M21.2218 8.87378L23.7585 4.465C24.4975 3.16835 24.058 1.53251 22.7799 0.774418C21.5019 0.0363155 19.8442 0.475149 19.1052 1.75189L16.5692 6.16074C11.1575 4.44509 5.08675 6.65947 2.13127 11.7864C0.314014 14.9185 -0.02546 18.6689 1.17274 22.0803L5.84559 13.9609C6.904 12.1056 8.68127 10.7491 10.7581 10.1904C12.835 9.63188 15.0316 9.91115 16.8889 11.0083C20.7426 13.2427 22.0806 18.1901 19.8442 22.0603C17.6077 25.9305 12.6553 27.2471 8.80107 25.0127L11.497 20.3446C12.7751 21.0828 14.4325 20.6439 15.1714 19.3671C15.9103 18.0704 15.4708 16.4346 14.1929 15.6765C12.9148 14.9384 11.2574 15.3773 10.5185 16.654L1.93158 31.5562C1.19273 32.8527 1.63201 34.4887 2.9101 35.2464C4.18812 35.9846 5.84559 35.5459 6.58452 34.2693L9.12063 29.8604C14.5324 31.5761 20.6034 29.3617 23.5586 24.2347C26.5341 19.0679 25.4155 12.7041 21.2218 8.87378ZM36.7386 17.8909C37.9366 17.8909 38.7153 17.3522 38.7153 16.0356C38.7153 14.7189 37.9171 14.2003 36.7386 14.2003H35.0809V17.8909H36.7386ZM32.6445 12.0657H36.7985C39.2147 12.0657 41.2115 13.2626 41.2115 16.0356C41.2115 18.8085 39.2147 20.0254 36.7985 20.0254H35.0809V23.9156H32.6445V12.0657ZM44.8062 12.0657H52.6544V14.2202H47.2426V16.9333H52.015V19.028H47.2426V21.8009H52.894V23.9555H44.8062V12.0657ZM57.0076 12.0657H59.444V21.8009H64.8161V23.9555H57.0076V12.0657ZM77.317 18.0106C77.317 15.7962 75.8592 14.1005 73.6819 14.1005C71.5255 14.1005 70.0475 15.7962 70.0475 18.0106C70.0475 20.225 71.5053 21.9206 73.6819 21.9206C75.8592 21.9206 77.317 20.225 77.317 18.0106ZM67.5513 18.0106C67.5513 14.4995 70.2677 11.9261 73.7021 11.9261C77.1171 11.9261 79.8328 14.5195 79.8328 18.0106C79.8328 21.5216 77.1171 24.0951 73.7021 24.0951C70.2871 24.0951 67.5513 21.5216 67.5513 18.0106ZM85.8436 14.2202H82.469V12.0657H91.6747V14.2202H88.3002V23.9355H85.8638V14.2202H85.8436ZM104.056 18.0106C104.056 15.7962 102.598 14.1005 100.421 14.1005C98.2651 14.1005 96.7871 15.7962 96.7871 18.0106C96.7871 20.225 98.2449 21.9206 100.421 21.9206C102.598 21.9206 104.056 20.225 104.056 18.0106ZM94.2908 18.0106C94.2908 14.4995 97.0065 11.9261 100.442 11.9261C103.857 11.9261 106.572 14.5195 106.572 18.0106C106.572 21.5216 103.857 24.0951 100.442 24.0951C97.0065 24.0951 94.2908 21.5216 94.2908 18.0106ZM114.041 18.4295C113.442 17.8709 112.623 16.8136 112.623 16.8136C112.623 16.8136 112.803 18.1303 112.803 18.9881V23.9555H110.526V11.9859H110.766L116.757 17.6116C117.336 18.1502 118.154 19.2275 118.154 19.2275C118.154 19.2275 117.995 17.8909 117.995 17.0729V12.1056H120.271V24.0752H120.032L114.041 18.4295Z" fill="#181A1D"/>
</svg>
