<svg width="38" height="49" viewBox="0 0 38 49" fill="none" xmlns="http://www.w3.org/2000/svg">
<g id="Vector">
<path d="M35.6351 16.5729C33.621 13.9713 30.6657 12.5105 26.7251 12.1981L26.7244 12.198C25.2494 12.0769 23.4187 12.3842 21.2114 13.1615C21.2114 13.1616 21.2107 13.1618 21.2107 13.1619L21.0864 12.8088C18.7257 13.6574 17.3293 14.0837 16.9182 14.0837C16.3694 14.0837 15.1115 13.7189 13.1573 13.0015L35.6351 16.5729ZM35.6351 16.5729C32.0239 18.8374 30.2082 21.989 30.2464 25.9959C30.2809 29.205 31.4766 31.8873 33.8186 34.0081C34.7883 34.9056 35.8619 35.6206 37.0472 36.1479C36.8083 36.8096 36.5575 37.4427 36.2947 38.0547C35.5497 39.733 34.6737 41.2762 33.6584 42.6928C32.253 44.6515 31.1262 45.9767 30.2734 46.7L30.2696 46.7038L30.2651 46.7067C28.9459 47.895 27.5547 48.4857 26.0805 48.5172C25.0135 48.5164 23.6935 48.2177 22.1316 47.5888H22.1301C20.5002 46.9404 18.9855 46.6109 17.5853 46.6109C16.1201 46.6109 14.5634 46.9389 12.9155 47.588H12.9147C11.3117 48.2214 10.059 48.5359 9.12388 48.5666H9.12089C7.73573 48.6228 6.31763 48.0305 4.85535 46.7038L4.85085 46.7L4.84712 46.6963C3.92168 45.9063 2.73867 44.5294 1.3011 42.5438L1.30036 42.543C-0.222564 40.4481 -1.47745 38.0175 -2.46054 35.2354C-3.50877 32.232 -4.03662 29.3348 -4.03662 26.5335C-4.03662 23.3267 -3.32832 20.5849 -1.92819 18.2965L-1.92669 18.2937C-0.822309 16.4536 0.641471 15.0068 2.47288 13.9403C4.30727 12.8786 6.28093 12.334 8.41857 12.2977C9.5559 12.2983 11.0826 12.6455 13.0285 13.353L35.6351 16.5729ZM19.72 4.22565L19.7222 4.22341C20.6072 3.22826 21.7393 2.39575 23.1222 1.72967C24.3719 1.1351 25.5444 0.787238 26.6435 0.678223C26.6555 0.869974 26.6615 1.06202 26.6615 1.25265C26.6615 3.58474 25.793 5.77112 24.0319 7.81621C21.9729 10.1682 19.5455 11.5145 16.9512 11.4242C16.9362 11.2418 16.9279 11.0529 16.9279 10.8575C16.9279 8.62851 17.9223 6.21437 19.72 4.22565Z" fill="#18181B"/>
<path d="M35.6351 16.5729C33.621 13.9713 30.6657 12.5105 26.7251 12.1981L26.7244 12.198C25.2494 12.0769 23.4187 12.3842 21.2114 13.1615C21.2114 13.1616 21.2107 13.1618 21.2107 13.1619L21.0864 12.8088C18.7257 13.6574 17.3293 14.0837 16.9182 14.0837C16.3694 14.0837 15.1115 13.7189 13.1573 13.0015L35.6351 16.5729ZM35.6351 16.5729C32.0239 18.8374 30.2082 21.989 30.2464 25.9959C30.2809 29.205 31.4766 31.8873 33.8186 34.0081C34.7883 34.9056 35.8619 35.6206 37.0472 36.1479C36.8083 36.8096 36.5575 37.4427 36.2947 38.0547C35.5497 39.733 34.6737 41.2762 33.6584 42.6928C32.253 44.6515 31.1262 45.9767 30.2734 46.7L30.2696 46.7038L30.2651 46.7067C28.9459 47.895 27.5547 48.4857 26.0805 48.5172C25.0135 48.5164 23.6935 48.2177 22.1316 47.5888H22.1301C20.5002 46.9404 18.9855 46.6109 17.5853 46.6109C16.1201 46.6109 14.5634 46.9389 12.9155 47.588H12.9147C11.3117 48.2214 10.059 48.5359 9.12388 48.5666H9.12089C7.73573 48.6228 6.31763 48.0305 4.85535 46.7038L4.85085 46.7L4.84712 46.6963C3.92168 45.9063 2.73867 44.5294 1.3011 42.5438L1.30036 42.543C-0.222564 40.4481 -1.47745 38.0175 -2.46054 35.2354C-3.50877 32.232 -4.03662 29.3348 -4.03662 26.5335C-4.03662 23.3267 -3.32832 20.5849 -1.92819 18.2965L-1.92669 18.2937C-0.82231 16.4536 0.641471 15.0068 2.47288 13.9403C4.30727 12.8786 6.28093 12.334 8.41857 12.2977C9.5559 12.2983 11.0826 12.6455 13.0285 13.353L35.6351 16.5729ZM19.72 4.22565L19.7222 4.22341C20.6072 3.22826 21.7393 2.39575 23.1222 1.72967C24.3719 1.1351 25.5444 0.787238 26.6435 0.678223C26.6555 0.869974 26.6615 1.06202 26.6615 1.25265C26.6615 3.58474 25.793 5.77112 24.0319 7.81621C21.9729 10.1682 19.5455 11.5145 16.9512 11.4242C16.9362 11.2418 16.9279 11.0529 16.9279 10.8575C16.9279 8.62851 17.9223 6.21436 19.72 4.22565Z" stroke="#18181B" stroke-width="0.748734"/>
</g>
</svg>
