<svg width="54" height="28" viewBox="0 0 54 28" fill="none" xmlns="http://www.w3.org/2000/svg">
<path id="Vector" d="M-20.1343 21.8754H-15.7497V14.9049C-15.7497 12.3134 -14.4971 11.1515 -12.7967 11.1515C-11.2753 11.1515 -10.4704 12.3133 -10.4704 14.3687V21.8754H-6.08577V13.5644C-6.08577 9.81108 -8.1433 7.21948 -11.6332 7.21948C-13.5125 7.21948 -14.9441 8.02378 -15.6598 9.00679V0.338392H-20.1343V21.8754ZM-0.626751 5.52158C0.893929 5.52158 2.14731 4.35984 2.14731 2.84058C2.14731 1.3214 0.893929 0.159668 -0.626751 0.159668C-2.05908 0.159668 -3.31171 1.3214 -3.31171 2.84058C-3.31171 4.35984 -2.14818 5.52158 -0.626751 5.52158ZM-2.77487 21.8754H1.60972V7.48761H-2.77487V21.8754ZM5.09957 27.8628H9.48491V20.4455C10.0218 21.2498 11.4533 22.2328 13.4218 22.2328C17.1804 22.2328 20.1327 18.837 20.1327 14.7261C20.1327 10.6154 17.1804 7.21948 13.4218 7.21948C11.4533 7.21948 10.1109 8.2025 9.48491 9.00679V7.48761H5.09957V27.8628ZM12.4372 18.2114C10.4687 18.2114 9.12626 16.6922 9.12626 14.6368C9.12626 12.5814 10.4687 11.0622 12.4372 11.0622C14.4063 11.0622 15.7481 12.5814 15.7481 14.6368C15.659 16.7816 14.4063 18.2114 12.4372 18.2114ZM22.012 27.8628H26.3966V20.4455C26.9334 21.2498 28.3657 22.2328 30.3342 22.2328C34.0921 22.2328 37.0451 18.837 37.0451 14.7261C37.0451 10.6154 34.0921 7.21948 30.3342 7.21948C28.3657 7.21948 27.0233 8.2025 26.3966 9.00679V7.48761H22.012V27.8628ZM29.3496 18.2114C27.3811 18.2114 26.0387 16.6922 26.0387 14.6368C26.0387 12.5814 27.3811 11.0622 29.3496 11.0622C31.3187 11.0622 32.6605 12.5814 32.6605 14.6368C32.6605 16.7816 31.3187 18.2114 29.3496 18.2114ZM45.6353 22.1435C49.7518 22.1435 53.2417 18.837 53.2417 14.6368C53.2417 10.4366 49.8417 7.13016 45.6353 7.13016C41.5195 7.13016 38.0297 10.4366 38.0297 14.6368C38.0297 18.837 41.5195 22.1435 45.6353 22.1435ZM45.6353 18.122C43.8458 18.122 42.4142 16.6922 42.4142 14.6368C42.4142 12.5814 43.7567 11.1515 45.6353 11.1515C47.5146 11.1515 48.8571 12.5814 48.8571 14.6368C48.8571 16.6922 47.5146 18.122 45.6353 18.122Z" fill="#02DE82"/>
</svg>
