<svg width="76" height="17" viewBox="0 0 76 17" fill="none" xmlns="http://www.w3.org/2000/svg">
<path id="Vector" d="M6.75421 10.9479H14.7791L10.5398 4.19436L2.77169 16.4131H-0.777313L8.68669 1.75453C9.10074 1.16894 9.79033 0.798096 10.5398 0.798096C11.2691 0.798096 11.9594 1.1494 12.354 1.71544L21.8569 16.3936H18.3079L16.6323 13.661H8.50924L6.75421 10.9479ZM43.544 13.6804V0.954284H40.5476V14.9296C40.5476 15.32 40.7048 15.6909 40.9811 15.9642C41.2768 16.2569 41.6512 16.4131 42.0855 16.4131H55.7881L57.5626 13.6804H43.544ZM-6.15922 11.3968C-3.2414 11.3968 -0.875397 9.07408 -0.875397 6.18524C-0.875397 3.29647 -3.2414 0.954284 -6.15922 0.954284H-19.31V16.4131H-16.3136V3.68686H-6.37635C-4.97622 3.68686 -3.85312 4.81895 -3.85312 6.18524C-3.85312 7.57107 -4.97622 8.68369 -6.37635 8.68369L-14.8543 8.66415L-5.88367 16.3936H-1.52605L-7.55935 11.3773H-6.15922V11.3968ZM-37.7838 16.4131C-42.1016 16.4131 -45.5913 12.9583 -45.5913 8.68369C-45.5913 4.40909 -42.1016 0.954284 -37.7838 0.954284H-28.7145C-24.3969 0.954284 -20.907 4.42856 -20.907 8.68369C-20.907 12.9583 -24.3969 16.4131 -28.7145 16.4131H-37.7838ZM-28.9117 13.6804C-26.1122 13.6804 -23.8645 11.4554 -23.8645 8.68369C-23.8645 5.91203 -26.1317 3.66732 -28.9117 3.66732H-37.5867C-40.3863 3.66732 -42.634 5.91203 -42.634 8.68369C-42.634 11.4554 -40.3666 13.6804 -37.5867 13.6804H-28.9117ZM28.1261 16.4131C23.8089 16.4131 20.319 12.9583 20.319 8.68369C20.319 4.40909 23.8283 0.954284 28.1261 0.954284H38.9109L37.1566 3.68686H28.3237C25.5242 3.68686 23.2563 5.93149 23.2563 8.70316C23.2563 11.4748 25.5242 13.7 28.3237 13.7H39.1474L37.3729 16.4326H28.1261V16.4131ZM64.8575 13.6804C62.5506 13.6804 60.5987 12.158 59.987 10.0304H72.8225L74.597 7.29786H59.987C60.5785 5.20934 62.5506 3.64785 64.8575 3.64785H73.6701L75.4446 0.9152H64.6404C60.3224 0.9152 56.8326 4.38955 56.8326 8.64461C56.8326 12.9192 60.3419 16.3741 64.6404 16.3741H73.9067L75.6812 13.6414H64.8575" fill="#F80000"/>
</svg>
