<svg width="48" height="24" viewBox="0 0 48 24" fill="none" xmlns="http://www.w3.org/2000/svg">
<path id="Vector" d="M11.6587 0.53762V11.9207C11.6587 14.436 9.81472 17.0799 5.33279 17.0799C2.30049 17.0799 0.984067 14.8321 0.850942 13.3764C0.717742 12.0544 1.63974 10.7274 3.08929 10.7274C4.40571 10.7274 5.19967 11.787 5.19967 12.5791C5.3328 13.6387 4.67203 14.5646 3.48881 14.6984C2.70002 14.6984 2.70002 14.0348 2.3005 14.1686C1.63974 14.4308 2.96125 16.5501 5.06647 16.5501C7.17685 16.4163 7.43801 14.9606 7.43801 13.505V0.53762H5.33279V0.141534H13.5027V0.671341C12.7139 0.537617 12.0531 0.53762 11.6587 0.53762ZM47.7701 0.0078125L43.9493 11.2572L40.1278 0.0078125C38.8115 0.141536 37.2287 0.141534 33.8017 0.141534V0.671341C34.5909 0.671341 35.2512 0.53762 35.5126 0.53762V16.154C35.2512 16.154 34.4576 16.0202 33.6684 16.0202V16.5501H38.1503V16.0202C37.2287 16.0202 36.5683 16.154 36.1737 16.154V0.671341H36.307L41.8439 16.5501H42.7655L48.1647 0.671341H48.2979V16.0254H46.7151V16.5552H54.0961V16.0254H52.3853V0.542784H54.0961V0.0078125C51.197 0.0078125 49.6142 0.141536 47.7701 0.0078125ZM75.5788 6.62266C75.7114 5.8305 76.7671 3.57755 78.8718 3.57755C80.3213 3.57755 81.1105 4.50344 81.2438 5.56305C81.377 6.62266 80.5826 7.54854 79.6609 7.68227C78.606 7.94462 77.5503 7.28618 77.4222 6.09285C77.4222 4.77089 78.4779 4.77089 78.3447 4.50344C78.2114 4.10736 77.2897 4.50344 76.7618 5.16697C76.3672 5.69677 75.4456 7.01874 75.4456 9.53403V16.1489C75.8394 16.1489 76.6338 16.1489 77.4222 16.0152V16.545H70.1745V16.1489H72.0186V4.63716H70.1745V4.24108H73.8627C74.3898 4.24108 74.6512 4.10736 75.4456 3.9788V6.62782L75.5788 6.62266ZM123.548 16.154C123.809 16.154 124.336 16.154 125.131 16.0202V16.5501H118.671V16.0202C119.107 16.1129 119.548 16.154 119.988 16.154V6.3603C119.988 5.43449 119.721 4.37488 118.538 4.50861C117.089 4.50861 115.639 6.09802 115.506 8.34579V16.154C115.767 16.154 116.428 16.154 117.089 16.0202V16.5501H110.369V16.0202C111.029 16.154 111.557 16.154 111.951 16.154V4.50861H110.501V4.11252H113.662C114.323 4.11252 114.851 3.9788 115.506 3.85017V6.23174C115.767 5.83566 116.694 3.71644 119.854 3.71644C121.699 3.71644 123.543 4.77605 123.543 7.15763L123.548 16.154ZM21.8055 0.671341V9.27168C22.4666 9.40541 22.8612 9.4054 23.5163 9.4054C25.4937 9.4054 26.5487 7.94971 26.5487 4.90469C26.5539 1.72578 25.8936 0.403893 21.8055 0.671341V0.141534H25.3657C28.7927 0.141534 31.0306 1.85958 30.9026 5.03841C30.6413 8.61332 27.7422 10.0689 24.5765 10.0689C22.9945 10.0689 21.8107 9.80665 21.8107 9.80665V16.0254C22.2053 16.1591 22.7332 16.0254 23.6549 16.0254V16.5552H15.8743V16.0254C16.6631 16.0254 17.3239 16.1591 17.7183 16.1591V0.53762H15.7463V0.141534H21.8055V0.671341ZM62.1331 16.8124C65.2935 16.8124 68.7197 14.6932 68.7197 10.1976C68.853 5.69677 65.2935 3.58272 62.1331 3.58272V4.11252C63.8484 4.11252 64.6376 5.56821 64.6376 8.74187V11.9155C64.6376 15.0944 63.8484 16.4163 62.1331 16.4163C60.4222 16.4163 59.6278 15.0944 59.6278 11.9155V8.74187C59.6278 5.56821 60.417 4.11252 62.1331 4.11252V3.58272C58.9726 3.58272 55.5457 5.83049 55.5457 10.1976C55.5457 14.4308 58.9726 16.8124 62.1331 16.8124ZM86.5141 17.6097H90.8635C92.4456 17.6097 93.1015 18.4018 93.2347 19.5952C93.368 21.5806 91.1241 23.2986 88.225 23.4324V23.9622H88.3582C91.5239 23.6999 94.2897 21.843 94.2897 18.2732C94.1564 14.9658 92.313 14.0399 90.4689 14.0399L85.0646 14.1736C84.0096 14.1736 83.4817 13.6438 83.615 13.114C83.7483 12.3219 85.3259 11.5246 86.5141 11.6583C87.042 11.7921 87.3033 11.9207 87.9636 11.9207C90.3356 11.9207 93.1015 10.2027 92.9734 7.55371C92.9734 6.62782 92.5788 5.83566 91.6572 4.77605C91.9237 3.98389 92.3175 3.58272 92.7121 3.45409C93.1067 3.1918 93.3733 3.1918 93.3733 3.45409C93.3733 3.58789 92.7121 3.71644 92.8454 4.6475C92.8454 5.31102 93.6346 5.84083 94.4282 5.7071C95.2166 5.7071 95.7445 4.91494 95.6165 4.25142C95.6165 3.45926 94.9606 2.662 93.7723 2.662C92.5841 2.662 91.7957 3.58788 91.4011 4.51369C90.74 3.98389 89.9515 3.45409 87.9741 3.45409V3.85017C89.1624 3.85017 89.685 4.37997 89.8183 6.89527V8.48469C89.685 11.2623 89.0291 11.3961 87.9741 11.3961C87.0524 11.3961 86.13 11.3961 86.13 8.61841V7.029C86.13 4.5137 86.6578 3.85534 87.9741 3.85534V3.45926H87.8409C84.8085 3.45926 83.0976 5.84083 83.0976 7.56397C83.0976 9.41574 83.8868 10.4753 85.3363 11.4012C84.1481 11.6635 82.4372 12.7231 82.4372 14.58C82.5705 16.6993 84.5472 17.2291 85.2031 17.4914C84.4146 17.7537 82.1707 18.551 82.1707 20.4027C82.1707 22.522 84.8085 24.1062 88.2354 23.9776V23.4478C85.5976 23.5816 83.7535 21.8584 83.8868 20.0067C83.8815 18.0057 85.7257 17.6097 86.5141 17.6097ZM103.781 9.13795V5.8305C103.781 4.37488 102.593 3.84507 101.016 3.9788C99.8266 4.24108 99.2995 4.77089 99.4328 5.17213C99.6941 5.56821 100.621 5.56822 100.749 6.76155C100.882 7.55371 100.488 8.35096 99.5608 8.61332C98.7716 8.74704 97.4501 8.35096 97.3221 7.0239C97.1888 5.56821 98.2445 3.58272 102.593 3.449C104.703 3.449 107.336 4.37488 107.203 7.55371V14.5646C107.203 15.6242 107.464 15.8865 107.73 15.8865C108.258 15.8865 108.786 15.3567 108.919 14.5646L109.313 14.6984C109.18 15.758 108.391 16.6838 106.547 16.6838C104.831 16.6838 104.043 15.4904 103.781 14.6984C103.387 15.3619 102.726 16.154 101.671 16.5501V15.8865C102.327 15.8865 103.781 14.6932 103.781 13.3712V9.66776C101.804 9.53404 100.882 9.93012 100.354 11.1235C99.9599 11.787 99.9599 13.2427 100.093 14.1686C100.226 15.3619 100.754 16.0202 101.676 15.8865V16.5501C101.281 16.6838 100.888 16.6838 100.488 16.6838C98.3771 16.6838 96.2671 15.4904 96.2671 13.3764C96.2671 10.1976 99.2995 9.13795 103.781 9.13795Z" fill="#272727"/>
</svg>
